SplineFontDB: 3.0
FontName: 3270Medium
FullName: 3270-Medium
FamilyName: IBM 3270
Weight: Medium
Copyright: Copyright (c) 2011-2012, Ricardo Banffy.\nCopyright (c) 1993-2011, Paul Mattes.\nCopyright (c) 2004-2005, Don Russell.\nCopyright (c) 2004, Dick Altenbern.\nCopyright (c) 1990, Jeff Sparkes.\nCopyright (c) 1989, Georgia Tech Research Corporation (GTRC), Atlanta, GA 30332.\nAll rights reserved.\nRedistribution and use in source and binary forms, with or without modification, are permitted provided that the following conditions are met:\n\nRedistributions of source code must retain the above copyright notice, this list of conditions and the following disclaimer.\nRedistributions in binary form must reproduce the above copyright notice, this list of conditions and the following disclaimer in the documentation and/or other materials provided with the distribution.\nNeither the names of Paul Mattes, Don Russell, Dick Altenbern, Jeff Sparkes, GTRC nor the names of their contributors may be used to endorse or promote products derived from this software without specific prior written permission.\nTHIS SOFTWARE IS PROVIDED BY PAUL MATTES, DON RUSSELL, DICK ALTENBERN, JEFF SPARKES AND GTRC "AS IS" AND ANY EXPRESS OR IMPLIED WARRANTIES, INCLUDING, BUT NOT LIMITED TO, THE IMPLIED WARRANTIES OF MERCHANTABILITY AND FITNESS FOR A PARTICULAR PURPOSE ARE DISCLAIMED. IN NO EVENT SHALL PAUL MATTES, DON RUSSELL, DICK ALTENBERN, JEFF SPARKES OR GTRC BE LIABLE FOR ANY DIRECT, INDIRECT, INCIDENTAL, SPECIAL, EXEMPLARY, OR CONSEQUENTIAL DAMAGES (INCLUDING, BUT NOT LIMITED TO, PROCUREMENT OF SUBSTITUTE GOODS OR SERVICES; LOSS OF USE, DATA, OR PROFITS; OR BUSINESS INTERRUPTION) HOWEVER CAUSED AND ON ANY THEORY OF LIABILITY, WHETHER IN CONTRACT, STRICT LIABILITY, OR TORT (INCLUDING NEGLIGENCE OR OTHERWISE) ARISING IN ANY WAY OUT OF THE USE OF THIS SOFTWARE, EVEN IF ADVISED OF THE POSSIBILITY OF SUCH DAMAGE.
UComments: "2011-5-25: Created." 
Version: 001.000
ItalicAngle: 0

StartChar: euro
Encoding: 1 8364 2
Width: 536
VWidth: 0
InSpiro: 1
Flags: HW
HStem: 49 61<288 379> 262 61<61 122 183 423> 384 61<61 121 183 456> 598 62<290 382>
VStem: 122 61<219 262 323 384 445 494>
LayerCount: 2
Back
Fore
SplineSet
61 445 m 1
 121 445 l 1
 123 521 l 1
 262 659 l 1
 408 659 l 1
 473 597 l 1
 478 591 481 583 480 575 c 0
 479 567 476 559 470 554 c 0
 464 549 457 545 449 545 c 0
 441 545 433 548 427 553 c 2
 382 598 l 1
 290 598 l 1
 183 494 l 1
 183 445 l 1
 488 445 l 1
 456 385 l 1
 183 384 l 1
 183 323 l 1
 458 323 l 1
 423 261 l 1
 183 262 l 1
 183 219 l 1
 288 110 l 1
 379 110 l 1
 427 158 l 2
 433 164 442 167 450 167 c 0
 458 167 467 163 473 157 c 0
 479 151 483 143 483 134 c 0
 483 125 479 116 473 110 c 2
 409 49 l 1
 258 49 l 1
 122 189 l 1
 122 262 l 1
 61 262 l 1
 61 293 l 1
 61 323 l 1
 122 323 l 1
 121 384 l 1
 61 385 l 1
 61 445 l 1
EndSplineSet
EndChar

StartChar: eightones
Encoding: 4 -1 6
Width: 536
VWidth: 0
Flags: HW
HStem: 188 269<207.616 337.94>
VStem: 143 260<256.292 390.162>
LayerCount: 2
Back
Fore
SplineSet
214 442 m 0
 235 452 253 457 272 457 c 0
 346 457 403 385 403 314 c 0
 403 270 382 227 331 201 c 0
 311 191 292 188 274 188 c 0
 199 188 143 261 143 332 c 0
 143 375 164 417 214 442 c 0
EndSplineSet
EndChar

StartChar: hyphen
Encoding: 5 45 7
Width: 536
VWidth: 0
Flags: HW
HStem: 293 61<122 428>
VStem: 122 306<293 354>
LayerCount: 2
Back
Fore
SplineSet
122 354 m 1
 428 354 l 1
 428 293 l 1
 122 293 l 1
 122 354 l 1
EndSplineSet
EndChar

StartChar: greater
Encoding: 6 62 8
Width: 536
VWidth: 0
InSpiro: 1
Flags: HW
VStem: 131 294
LayerCount: 2
Back
Fore
SplineSet
138 549 m 1
 133 555 131 563 131 571 c 0
 131 579 135 586 140 592 c 0
 145 598 152 601 160 602 c 0
 168 603 175 602 182 598 c 1
 425 353 l 1
 425 298 l 1
 183 48 l 1
 177 45 170 44 163 45 c 0
 156 46 150 49 145 54 c 0
 139 59 135 66 134 74 c 0
 133 82 135 90 139 97 c 1
 366 325 l 1
 138 549 l 1
EndSplineSet
EndChar

StartChar: less
Encoding: 7 60 9
Width: 536
VWidth: 0
Flags: HW
VStem: 132 294
LayerCount: 2
Back
Fore
SplineSet
418 99 m 2
 423 93 426 85 426 77 c 0
 426 69 422 62 417 56 c 0
 412 50 404 47 396 46 c 0
 388 45 382 46 375 50 c 1
 132 295 l 1
 132 351 l 1
 374 600 l 1
 380 603 387 604 394 603 c 0
 401 602 407 599 412 594 c 0
 418 589 421 581 422 573 c 0
 423 565 422 558 418 551 c 1
 190 323 l 1
 418 99 l 2
EndSplineSet
EndChar

StartChar: bracketleft
Encoding: 8 91 10
Width: 536
VWidth: 0
Flags: HW
HStem: -13 62<244 366> 598 61<244 366>
VStem: 184 182<-13 49 598 659> 184 60<49 598>
LayerCount: 2
Back
Fore
SplineSet
184 659 m 1
 366 659 l 1
 366 598 l 1
 244 598 l 1
 244 49 l 1
 366 49 l 1
 366 -13 l 1
 184 -13 l 1
 184 659 l 1
EndSplineSet
EndChar

StartChar: bracketright
Encoding: 9 93 11
Width: 536
VWidth: 0
Flags: HW
HStem: -13 62<184 305> 598 61<184 305>
VStem: 184 182<-13 49 598 659> 305 61<49 598>
LayerCount: 2
Back
Fore
SplineSet
184 659 m 1
 366 659 l 1
 366 -13 l 1
 184 -13 l 1
 184 49 l 1
 305 49 l 1
 305 598 l 1
 184 598 l 1
 184 659 l 1
EndSplineSet
EndChar

StartChar: parenright
Encoding: 10 41 12
Width: 536
VWidth: 0
InSpiro: 1
Flags: HW
HStem: 49 21G<207 214.5>
VStem: 307 57<214 434>
LayerCount: 2
Back
Fore
SplineSet
357 467 m 2
 358 466 358 465 359 464 c 0
 360 463 361 462 361 461 c 0
 362 459 363 456 364 454 c 0
 365 451 365 449 365 446 c 2
 364 202 l 2
 364 201 364 199 364 198 c 0
 364 197 363 196 363 195 c 0
 362 193 362 190 361 188 c 0
 360 187 360 186 359 185 c 0
 358 184 357 183 356 182 c 2
 231 57 l 2
 229 55 227 53 225 52 c 0
 223 51 220 50 218 50 c 0
 213 49 208 49 203 50 c 0
 198 51 194 54 191 57 c 0
 187 61 184 65 183 70 c 0
 182 75 181 80 183 85 c 0
 184 87 185 90 186 92 c 0
 187 94 189 95 191 97 c 2
 307 214 l 1
 308 434 l 1
 192 547 l 2
 190 549 188 551 187 553 c 0
 186 555 185 557 184 560 c 0
 183 565 183 569 184 574 c 0
 185 579 188 583 191 587 c 0
 194 591 199 594 204 595 c 0
 209 596 214 596 219 595 c 0
 221 595 224 594 226 593 c 0
 228 592 230 590 232 588 c 2
 357 467 l 2
EndSplineSet
EndChar

StartChar: parenleft
Encoding: 11 40 13
Width: 536
VWidth: 0
Flags: HW
HStem: 49 21G<341.5 348.5>
VStem: 191 58<214 434>
LayerCount: 2
Back
Fore
SplineSet
199 468 m 2
 324 589 l 2
 330 594 337 596 344 596 c 0
 352 596 359 594 364 588 c 0
 370 582 373 575 373 567 c 0
 373 559 370 553 364 547 c 2
 248 434 l 1
 249 214 l 1
 365 98 l 2
 371 93 374 85 374 77 c 0
 374 69 371 63 365 58 c 0
 359 52 352 49 345 49 c 0
 338 49 330 52 325 58 c 2
 200 183 l 2
 194 189 191 194 191 202 c 2
 190 446 l 2
 190 454 193 462 199 468 c 2
EndSplineSet
EndChar

StartChar: braceright
Encoding: 12 125 14
Width: 536
VWidth: 0
InSpiro: 1
Flags: HW
HStem: -12 60<126 204> 294 60<351 387> 601 60<126 204>
VStem: 249 60<92 251 398 557>
LayerCount: 2
Back
Fore
SplineSet
216 661 m 2
 218 661 220 660 221 660 c 0
 222 660 224 659 225 659 c 0
 226 659 228 658 229 658 c 0
 230 658 232 657 233 656 c 0
 234 655 234 655 235 654 c 0
 236 653 236 653 237 652 c 2
 300 591 l 2
 301 590 302 588 303 587 c 0
 304 586 305 585 306 583 c 0
 307 581 307 578 308 576 c 0
 308 575 309 574 309 573 c 0
 309 572 309 570 309 569 c 2
 309 398 l 1
 351 354 l 1
 387 354 l 1
 387 294 l 1
 351 294 l 1
 309 251 l 1
 309 79 l 2
 309 78 309 77 309 76 c 0
 309 75 308 74 308 73 c 0
 308 72 307 70 307 69 c 0
 307 68 307 66 306 65 c 0
 305 64 304 62 303 61 c 0
 302 60 301 59 300 58 c 2
 237 -3 l 2
 236 -4 236 -4 235 -5 c 0
 234 -6 234 -6 233 -7 c 0
 232 -8 230 -9 229 -9 c 0
 228 -9 226 -10 225 -10 c 0
 224 -10 222 -11 221 -11 c 0
 220 -11 218 -12 216 -12 c 2
 126 -12 l 1
 126 48 l 1
 204 48 l 1
 249 92 l 1
 249 263 l 2
 249 265 249 266 249 268 c 0
 249 270 249 271 250 272 c 0
 251 273 251 274 252 275 c 0
 253 276 253 278 254 279 c 0
 254 280 255 281 255 282 c 0
 255 283 256 283 257 284 c 2
 296 324 l 1
 257 365 l 2
 256 366 255 366 255 367 c 0
 255 368 254 369 254 370 c 0
 253 371 253 373 252 374 c 0
 251 375 251 376 250 377 c 0
 249 378 249 379 249 381 c 0
 249 383 249 384 249 386 c 2
 249 557 l 1
 204 601 l 1
 126 601 l 1
 126 661 l 1
 216 661 l 2
EndSplineSet
EndChar

StartChar: braceleft
Encoding: 13 123 15
Width: 536
VWidth: 0
Flags: HW
HStem: -14 60<287 365> 293 60<104 140> 599 60<287 365>
VStem: 182 60<90 249 396 555>
LayerCount: 2
Back
Fore
SplineSet
365 659 m 1
 365 599 l 1
 287 599 l 1
 242 555 l 1
 242 384 l 2
 242 374 237 366 234 363 c 2
 195 323 l 1
 234 282 l 2
 237 279 242 271 242 261 c 2
 242 90 l 1
 287 46 l 1
 365 46 l 1
 365 -14 l 1
 275 -14 l 2
 265 -14 257 -8 254 -5 c 2
 191 56 l 2
 184 63 182 73 182 78 c 2
 182 249 l 1
 140 293 l 1
 104 293 l 1
 104 353 l 1
 140 353 l 1
 182 396 l 1
 182 568 l 2
 182 573 184 582 191 589 c 2
 254 650 l 2
 257 654 265 659 275 659 c 2
 365 659 l 1
EndSplineSet
EndChar

StartChar: equal
Encoding: 15 61 17
Width: 536
VWidth: 0
Flags: HW
HStem: 231 62<61 488> 415 61<61 488>
LayerCount: 2
Back
Fore
SplineSet
61 476 m 1
 488 476 l 1
 488 415 l 1
 61 415 l 1
 61 476 l 1
61 293 m 1
 488 293 l 1
 488 231 l 1
 61 231 l 1
 61 293 l 1
EndSplineSet
EndChar

StartChar: quotedbl
Encoding: 17 34 19
Width: 536
VWidth: 0
Flags: HW
HStem: 476 183<122 184 305 366>
VStem: 122 62<476 659> 305 61<476 659>
LayerCount: 2
Back
Fore
SplineSet
122 659 m 1
 184 659 l 1
 184 476 l 1
 122 476 l 1
 122 659 l 1
305 659 m 1
 366 659 l 1
 366 476 l 1
 305 476 l 1
 305 659 l 1
EndSplineSet
EndChar

StartChar: slash
Encoding: 18 47 20
Width: 536
VWidth: 0
InSpiro: 1
Flags: HW
LayerCount: 2
Back
Fore
SplineSet
428 533 m 2
 430 535 432 537 434 538 c 0
 436 539 439 540 442 541 c 0
 447 542 453 542 458 541 c 0
 463 540 468 537 472 533 c 0
 476 529 479 524 480 519 c 0
 481 514 481 509 480 504 c 0
 479 501 478 499 477 496 c 0
 476 493 474 491 472 489 c 2
 114 123 l 2
 112 121 110 119 108 118 c 0
 106 117 103 116 100 115 c 0
 95 114 89 114 84 115 c 0
 79 116 74 119 70 123 c 0
 66 127 64 132 62 137 c 0
 60 142 60 148 61 153 c 0
 62 156 63 159 64 161 c 0
 65 163 67 165 69 167 c 2
 428 533 l 2
EndSplineSet
EndChar

StartChar: backslash
Encoding: 19 92 21
Width: 536
VWidth: 0
Flags: HW
LayerCount: 2
Back
Fore
SplineSet
428 123 m 2
 69 489 l 2
 63 495 61 504 61 512 c 0
 61 520 63 527 69 533 c 0
 75 539 84 542 92 542 c 0
 100 542 107 539 113 533 c 2
 472 167 l 2
 478 161 481 153 481 145 c 0
 481 137 478 129 472 123 c 0
 466 117 458 113 450 113 c 0
 442 113 434 117 428 123 c 2
EndSplineSet
EndChar

StartChar: bar
Encoding: 20 124 22
Width: 536
VWidth: 0
Flags: HW
VStem: 244 61<-73 720>
LayerCount: 2
Back
Fore
SplineSet
244 720 m 1
 305 720 l 1
 305 -73 l 1
 244 -73 l 1
 244 720 l 1
EndSplineSet
EndChar

StartChar: brokenbar
Encoding: 21 166 23
Width: 536
VWidth: 0
Flags: HW
HStem: 639 20G<244 305>
VStem: 244 61<-73 231 354 659>
LayerCount: 2
Back
Fore
SplineSet
244 659 m 1
 305 659 l 1
 305 354 l 1
 244 354 l 1
 244 659 l 1
244 231 m 1
 305 231 l 1
 305 -73 l 1
 244 -73 l 1
 244 231 l 1
EndSplineSet
EndChar

StartChar: question
Encoding: 22 63 24
Width: 536
VWidth: 0
InSpiro: 1
Flags: HW
HStem: 50 61<240 307> 476 21G<122.07 183.173> 600 62<214.527 388.349>
VStem: 122 61<476.003 567.675> 244 61<50 111 231.902 321.67> 423 62<515.482 566.65>
LayerCount: 2
Back
Fore
SplineSet
240 111 m 1
 307 111 l 1
 307 50 l 1
 240 50 l 1
 240 111 l 1
122 579 m 2
 122 581 122 584 123 586 c 0
 124 588 125 590 126 592 c 0
 127 593 127 594 128 595 c 0
 129 596 129 597 130 598 c 2
 177 652 l 2
 179 654 181 656 183 658 c 0
 185 660 188 660 191 661 c 0
 194 662 197 662 200 662 c 2
 401 662 l 2
 402 662 404 662 405 662 c 0
 406 662 407 661 408 661 c 0
 410 660 413 660 415 659 c 0
 418 658 420 656 422 654 c 2
 477 603 l 2
 479 601 481 599 483 596 c 0
 484 594 485 591 486 588 c 0
 487 585 487 582 487 579 c 2
 485 501 l 2
 485 498 485 496 484 493 c 0
 483 490 482 488 480 485 c 0
 479 483 477 481 475 479 c 2
 305 322 l 1
 305 232 l 1
 244 232 l 1
 244 337 l 2
 244 340 244 342 245 345 c 0
 246 347 247 350 248 352 c 0
 250 354 252 356 254 358 c 2
 423 515 l 1
 425 567 l 1
 388 600 l 1
 215 600 l 1
 183 568 l 1
 183 476 l 1
 122 476 l 1
 122 579 l 2
EndSplineSet
EndChar

StartChar: exclam
Encoding: 23 33 25
Width: 536
VWidth: 0
Flags: HW
HStem: 49 61<243 306> 639 20G<244 305>
VStem: 244 61<49 110 231 659>
LayerCount: 2
Back
Fore
SplineSet
243 110 m 1
 306 110 l 1
 306 49 l 1
 243 49 l 1
 243 110 l 1
244 659 m 1
 305 659 l 1
 305 231 l 1
 244 231 l 1
 244 659 l 1
EndSplineSet
EndChar

StartChar: dollar
Encoding: 24 36 26
Width: 536
VWidth: 0
InSpiro: 1
Flags: HW
HStem: 110 61<61 244 305 392> 293 61<156 244 305 393> 476 61<155 244 305 488> 639 20G<244 305>
VStem: 65 60<385 446> 244 61<-12 110 171 293 354 476 537 659> 423 62<201 262>
LayerCount: 2
Back
Fore
SplineSet
423 201 m 1
 423 262 l 1
 393 293 l 1
 305 293 l 1
 305 171 l 1
 392 171 l 1
 423 201 l 1
156 354 m 1
 244 354 l 1
 244 476 l 1
 155 476 l 1
 125 446 l 1
 125 385 l 1
 156 354 l 1
244 659 m 1
 305 659 l 1
 305 537 l 1
 488 537 l 1
 488 476 l 1
 305 476 l 1
 305 354 l 1
 407 353 l 2
 410 353 412 353 415 352 c 0
 417 351 420 350 422 349 c 0
 424 348 426 346 428 344 c 2
 476 297 l 2
 477 296 478 295 479 294 c 0
 480 293 480 291 481 290 c 0
 482 287 483 285 484 282 c 0
 485 279 485 277 485 274 c 2
 483 198 l 2
 483 197 483 195 483 194 c 0
 483 193 482 192 482 191 c 0
 482 190 481 188 481 187 c 0
 481 186 481 185 480 184 c 0
 479 183 479 182 478 181 c 0
 477 180 477 180 476 179 c 2
 432 121 l 2
 431 120 430 119 429 118 c 0
 428 117 426 116 425 115 c 0
 422 113 420 112 417 111 c 0
 414 110 412 110 409 110 c 2
 305 110 l 1
 305 -12 l 1
 244 -12 l 1
 244 110 l 1
 61 110 l 1
 61 171 l 1
 244 171 l 1
 244 293 l 1
 141 294 l 2
 138 294 135 294 132 295 c 0
 129 296 126 297 124 299 c 0
 122 301 120 303 118 305 c 2
 73 363 l 2
 72 365 71 366 70 368 c 0
 69 370 68 373 67 375 c 0
 66 377 66 379 66 381 c 2
 65 458 l 2
 65 461 65 463 65 466 c 0
 65 467 66 469 66 470 c 0
 66 471 67 473 68 474 c 0
 70 476 72 478 74 480 c 2
 121 528 l 2
 123 530 125 532 127 533 c 0
 129 534 132 535 134 536 c 0
 137 537 141 537 144 537 c 2
 244 537 l 1
 244 659 l 1
EndSplineSet
EndChar

StartChar: cent
Encoding: 25 162 27
Width: 536
VWidth: 0
InSpiro: 1
Flags: HW
HStem: 232 61<154 244 305 427> 476 61<152 244 305 427> 639 20G<244 305>
VStem: 62 62<325 446> 244 61<111 232 293 476 537 659>
LayerCount: 2
Back
Fore
SplineSet
244 659 m 1
 305 659 l 1
 305 537 l 1
 427 537 l 1
 427 476 l 1
 305 476 l 1
 305 293 l 1
 427 293 l 1
 427 232 l 1
 305 232 l 1
 305 110 l 1
 244 111 l 1
 244 232 l 1
 141 232 l 2
 138 232 135 232 132 233 c 0
 130 234 127 235 125 236 c 0
 123 237 121 239 119 241 c 2
 70 290 l 2
 69 291 68 292 67 293 c 0
 66 294 66 296 65 297 c 0
 64 298 64 299 63 300 c 0
 62 301 62 303 62 304 c 0
 62 305 62 307 62 308 c 0
 62 309 62 311 62 312 c 2
 62 458 l 2
 62 461 62 463 63 466 c 0
 64 468 65 471 66 473 c 0
 67 475 69 477 71 479 c 2
 116 528 l 2
 117 529 118 530 119 531 c 0
 120 532 122 532 123 533 c 0
 125 534 128 535 130 536 c 0
 133 537 136 537 139 537 c 2
 244 537 l 1
 244 659 l 1
244 476 m 1
 152 476 l 1
 124 446 l 1
 124 325 l 1
 154 293 l 1
 244 293 l 1
 244 476 l 1
EndSplineSet
EndChar

StartChar: sterling
Encoding: 26 163 28
Width: 536
VWidth: 0
InSpiro: 1
Flags: HMW
LayerCount: 2
Back
Fore
SplineSet
333 597 m 1
 275 597 l 1
 244 565 l 1
 244 415 l 1
 366 415 l 1
 366 354 l 1
 244 354 l 1
 243 129 l 1
 278 111 l 1
 392 110 l 1
 435 162 l 1
 480 118 l 1
 427 62 l 2
 426 61 425 60 424 59 c 0
 423 58 422 57 421 56 c 0
 420 55 418 54 417 54 c 0
 416 54 414 53 413 53 c 0
 412 53 411 52 409 52 c 0
 407 52 406 52 404 52 c 2
 265 53 l 2
 264 53 263 53 262 53 c 0
 261 53 261 54 260 54 c 0
 259 54 258 54 257 54 c 0
 256 54 256 55 255 55 c 0
 254 55 252 56 251 57 c 2
 211 79 l 1
 172 55 l 2
 170 54 169 53 167 52 c 0
 165 51 164 50 162 50 c 0
 161 50 160 50 159 50 c 0
 158 50 157 50 156 50 c 2
 89 52 l 2
 86 52 84 52 81 53 c 0
 78 54 75 54 73 56 c 0
 69 59 66 63 63 67 c 0
 62 69 61 71 60 74 c 0
 59 77 59 79 59 82 c 2
 58 144 l 2
 58 147 58 149 58 152 c 0
 58 155 60 157 61 159 c 0
 64 164 67 168 72 171 c 0
 74 173 77 173 80 174 c 0
 83 175 85 175 88 175 c 2
 150 175 l 2
 152 175 153 175 155 175 c 0
 157 175 158 174 160 174 c 0
 161 174 162 173 163 173 c 0
 164 173 164 173 165 172 c 2
 183 160 l 1
 183 354 l 1
 61 354 l 1
 61 415 l 1
 184 415 l 1
 184 580 l 2
 184 583 184 585 185 588 c 0
 186 590 187 593 188 595 c 0
 189 596 189 598 190 599 c 0
 191 600 192 601 193 602 c 2
 240 649 l 2
 242 651 244 653 247 655 c 0
 249 656 252 657 254 658 c 0
 257 659 259 659 262 659 c 2
 348 659 l 2
 350 659 351 659 353 659 c 0
 355 659 356 658 357 657 c 0
 360 656 362 654 365 653 c 0
 366 652 368 651 369 650 c 0
 370 649 371 648 372 647 c 2
 423 584 l 1
 381 542 l 1
 333 597 l 1
EndSplineSet
EndChar

StartChar: yen
Encoding: 27 165 29
Width: 536
VWidth: 0
InSpiro: 1
Flags: HW
HStem: 49 21G<244 305> 171 61<61 244 305 488> 354 61<61 244 305 488>
VStem: 244 61<49 171 232 354 415 448>
LayerCount: 2
Back
Fore
SplineSet
274 506 m 1
 436 652 l 1
 478 606 l 1
 304 451 l 1
 305 415 l 1
 488 415 l 1
 488 354 l 1
 305 354 l 1
 305 232 l 1
 488 232 l 1
 488 171 l 1
 305 171 l 1
 305 49 l 1
 244 49 l 1
 244 171 l 1
 61 171 l 1
 61 232 l 1
 244 232 l 1
 244 354 l 1
 61 354 l 1
 61 415 l 1
 244 415 l 1
 243 448 l 1
 69 606 l 1
 110 653 l 1
 274 506 l 1
EndSplineSet
EndChar

StartChar: paragraph
Encoding: 28 182 30
Width: 536
VWidth: 0
InSpiro: 1
Flags: HW
HStem: 48 21G<59 122> 171 61<244 304 366 426> 355 61<122 272> 598 59<122 273>
VStem: 59 63<48 355 416 598> 305 61<-12 170 232 293 447 567>
LayerCount: 2
Back
Fore
SplineSet
62 659 m 1
 287 658 l 2
 290 658 292 658 295 657 c 0
 297 656 300 655 302 654 c 0
 304 653 306 651 308 649 c 2
 357 603 l 2
 359 601 361 599 362 597 c 0
 364 594 365 592 366 589 c 0
 367 586 367 584 367 581 c 2
 367 434 l 2
 367 432 367 431 367 429 c 0
 367 427 367 426 366 425 c 0
 366 424 365 422 364 421 c 0
 363 420 363 419 362 418 c 0
 361 417 361 415 360 414 c 0
 359 413 358 412 357 411 c 2
 308 366 l 2
 306 364 304 362 302 361 c 0
 300 360 297 359 295 358 c 0
 292 357 290 357 287 357 c 2
 122 354 l 1
 122 48 l 1
 59 48 l 1
 62 659 l 1
122 598 m 1
 122 416 l 1
 272 415 l 1
 305 447 l 1
 305 567 l 1
 273 598 l 1
 122 598 l 1
305 293 m 1
 366 293 l 1
 366 232 l 1
 427 232 l 1
 426 170 l 1
 366 170 l 1
 366 -12 l 1
 305 -12 l 1
 304 171 l 1
 244 171 l 1
 244 232 l 1
 305 232 l 1
 305 293 l 1
EndSplineSet
EndChar

StartChar: currency
Encoding: 29 164 31
Width: 536
VWidth: 0
Flags: HW
HStem: 178 48<214.823 324.653> 419 47<215.222 322.778>
VStem: 125 48<261.479 383.156> 365 48<261.284 382.963>
LayerCount: 2
Back
Fore
SplineSet
221 187 m 1
 95 59 l 1
 61 92 l 1
 177 212 l 1
 145 238 125 278 125 322 c 0
 125 367 145 407 177 433 c 1
 59 555 l 1
 93 588 l 1
 220 458 l 1
 235 464 252 466 269 466 c 0
 286 466 303 464 318 458 c 1
 444 587 l 1
 479 554 l 1
 362 433 l 1
 393 407 413 366 413 322 c 0
 413 279 393 240 363 214 c 1
 481 92 l 1
 446 59 l 1
 320 188 l 1
 304 182 287 178 269 178 c 0
 252 178 236 182 221 187 c 1
173 322 m 0
 173 269 216 226 269 226 c 0
 322 226 365 269 365 322 c 0
 365 375 322 419 269 419 c 0
 216 419 173 375 173 322 c 0
EndSplineSet
EndChar

StartChar: zero
Encoding: 30 48 32
Width: 536
VWidth: 0
InSpiro: 1
Flags: HW
HStem: 59 57<217 335> 282 141<244.914 300.152> 603 57<215 337>
VStem: 65 57<205 504> 244 57<282.914 422.152> 427 57<208 507>
LayerCount: 2
Back
Fore
SplineSet
301 311 m 2
 301 308 301 306 300 303 c 0
 299 300 298 298 297 296 c 0
 294 292 291 288 287 286 c 0
 283 283 278 282 273 282 c 0
 268 282 262 283 258 286 c 0
 254 288 251 292 248 296 c 0
 247 298 246 300 245 303 c 0
 244 306 244 308 244 311 c 2
 244 395 l 2
 244 397 244 400 245 402 c 0
 246 404 247 407 248 409 c 0
 249 411 250 413 252 415 c 0
 254 417 256 419 258 420 c 0
 260 421 262 423 265 423 c 0
 268 423 270 423 273 423 c 0
 275 423 278 422 280 422 c 0
 282 422 285 421 287 420 c 0
 289 419 291 417 293 415 c 0
 295 413 296 411 297 409 c 0
 298 407 299 404 300 402 c 0
 301 400 301 397 301 395 c 2
 301 311 l 2
181 651 m 2
 183 653 185 655 187 656 c 0
 189 657 192 658 194 659 c 0
 197 660 199 660 202 660 c 2
 349 660 l 2
 352 660 354 660 357 659 c 0
 359 658 362 657 364 656 c 0
 366 655 368 653 370 651 c 2
 475 538 l 2
 476 536 478 535 479 533 c 0
 480 531 481 528 482 526 c 0
 483 524 483 521 483 519 c 2
 484 197 l 2
 484 196 484 194 484 193 c 0
 484 192 484 190 484 189 c 0
 484 188 484 186 483 185 c 0
 482 184 482 183 481 182 c 0
 480 180 478 178 476 176 c 2
 367 68 l 2
 365 66 363 64 361 63 c 0
 359 62 357 61 355 60 c 0
 352 59 350 59 347 59 c 2
 206 59 l 2
 204 59 201 59 199 60 c 0
 197 61 194 62 192 63 c 0
 191 64 190 64 189 65 c 0
 188 66 187 66 186 67 c 2
 74 172 l 2
 72 174 70 176 69 178 c 0
 68 180 67 183 66 185 c 0
 65 188 65 190 65 193 c 2
 67 515 l 2
 67 516 67 518 67 519 c 0
 67 520 68 521 68 522 c 0
 68 523 69 525 69 526 c 0
 69 527 69 528 70 529 c 0
 71 531 73 532 74 534 c 2
 181 651 l 2
124 504 m 1
 122 205 l 1
 217 116 l 1
 335 116 l 1
 427 208 l 1
 425 507 l 1
 337 603 l 1
 215 603 l 1
 124 504 l 1
EndSplineSet
EndChar

StartChar: one
Encoding: 31 49 33
Width: 536
VWidth: 0
Flags: HW
HStem: 49 21G<248 305>
VStem: 248 57<49 562>
LayerCount: 2
Back
Fore
SplineSet
256 653 m 2
 262 659 269 663 276 663 c 0
 280 663 283 662 287 660 c 0
 299 655 305 646 305 633 c 2
 305 49 l 1
 248 49 l 1
 248 562 l 1
 159 470 l 1
 117 509 l 1
 256 653 l 2
EndSplineSet
EndChar

StartChar: two
Encoding: 32 50 34
Width: 536
VWidth: 0
InSpiro: 1
Flags: HW
HStem: 48 56<156 487> 477 21G<82.9744 122.992> 596 57<217 396>
VStem: 432 57<459 566>
LayerCount: 2
Back
Fore
SplineSet
183 644 m 2
 185 646 187 648 189 649 c 0
 191 650 194 651 196 652 c 0
 199 653 201 653 204 653 c 2
 406 653 l 2
 407 653 409 653 410 653 c 0
 411 653 412 653 413 653 c 0
 414 653 415 653 416 652 c 0
 417 651 418 651 419 650 c 0
 420 649 421 649 422 648 c 0
 423 647 424 647 425 646 c 2
 477 601 l 2
 478 600 479 599 480 598 c 0
 481 597 481 596 482 595 c 0
 483 593 484 590 485 588 c 0
 486 585 486 583 486 580 c 2
 489 448 l 2
 489 447 489 445 489 444 c 0
 489 443 488 441 488 440 c 0
 487 438 487 435 486 433 c 0
 485 432 485 431 484 430 c 0
 483 429 482 428 481 427 c 2
 156 105 l 1
 487 105 l 1
 487 48 l 1
 87 48 l 2
 85 48 83 48 81 48 c 0
 79 48 78 49 76 50 c 0
 73 51 70 54 67 56 c 0
 64 59 62 62 60 65 c 0
 58 69 58 73 58 77 c 0
 58 80 59 84 60 87 c 0
 61 89 62 90 63 92 c 0
 64 94 66 96 67 97 c 2
 432 459 l 1
 429 567 l 1
 396 596 l 1
 217 596 l 1
 105 476 l 1
 63 515 l 1
 183 644 l 2
EndSplineSet
EndChar

StartChar: three
Encoding: 33 51 35
Width: 536
VWidth: 0
InSpiro: 1
Flags: HW
HStem: 51 57<161 324> 603 57<122 429>
VStem: 419 57<210 262> 429 58<583 603>
LayerCount: 2
Back
Fore
SplineSet
487 660 m 1
 487 603 l 1
 486 572 l 2
 486 569 486 567 485 564 c 0
 484 562 483 559 482 557 c 0
 481 555 479 553 477 551 c 2
 339 413 l 2
 340 413 342 413 343 413 c 0
 344 413 346 413 347 412 c 0
 348 411 349 411 350 410 c 0
 351 409 352 409 353 408 c 0
 354 407 355 407 356 406 c 2
 468 294 l 2
 469 293 469 292 470 291 c 0
 471 290 472 289 472 288 c 0
 473 286 474 283 475 281 c 0
 476 279 476 276 476 274 c 2
 476 198 l 2
 476 197 476 195 476 194 c 0
 476 193 475 192 475 191 c 0
 474 189 474 187 473 185 c 0
 472 184 472 183 471 182 c 0
 470 181 469 180 468 179 c 2
 358 60 l 2
 356 58 354 56 352 55 c 0
 350 54 347 53 345 52 c 0
 342 51 340 51 337 51 c 2
 148 51 l 2
 145 51 143 51 140 52 c 0
 138 53 135 54 133 55 c 0
 132 56 130 56 129 57 c 0
 128 58 127 59 126 60 c 2
 65 129 l 1
 108 167 l 1
 161 108 l 1
 324 108 l 1
 419 210 l 1
 419 262 l 1
 324 357 l 1
 271 357 l 2
 269 357 267 357 265 357 c 0
 263 357 262 358 260 359 c 0
 257 360 254 363 251 365 c 0
 248 368 246 371 244 374 c 0
 242 377 242 381 242 385 c 0
 242 389 243 393 244 396 c 0
 245 398 246 399 247 401 c 0
 248 403 250 405 251 406 c 2
 428 583 l 1
 429 603 l 1
 122 603 l 1
 122 660 l 1
 487 660 l 1
EndSplineSet
EndChar

StartChar: four
Encoding: 34 52 36
Width: 536
VWidth: 0
InSpiro: 1
Flags: HW
HStem: 49 21G<367 424> 238 57<120 366 424 488> 603 57<342 366>
VStem: 63 57<295 383> 367 57<49 237 295 602>
LayerCount: 2
Back
Fore
SplineSet
366 602 m 1
 342 603 l 1
 120 383 l 1
 120 295 l 1
 366 295 l 1
 366 602 l 1
169 238 m 1
 91 238 l 2
 89 238 86 238 84 239 c 0
 82 240 79 241 77 242 c 0
 73 245 70 248 67 252 c 0
 66 254 65 256 64 259 c 0
 63 262 63 264 63 267 c 2
 63 395 l 2
 63 397 63 400 64 402 c 0
 65 404 66 407 67 409 c 0
 67 410 68 411 69 412 c 0
 70 413 70 414 71 415 c 2
 311 652 l 2
 312 653 313 653 314 654 c 0
 315 655 316 656 317 656 c 0
 319 657 322 658 324 659 c 0
 326 660 329 660 331 660 c 2
 395 659 l 2
 398 659 400 659 403 658 c 0
 406 657 408 656 410 655 c 0
 414 653 418 649 420 645 c 0
 421 643 423 641 423 638 c 0
 423 635 423 633 423 630 c 2
 424 295 l 1
 488 295 l 1
 488 238 l 1
 424 238 l 1
 424 49 l 1
 367 49 l 1
 367 237 l 1
 169 238 l 1
EndSplineSet
EndChar

StartChar: five
Encoding: 35 53 37
Width: 536
VWidth: 0
InSpiro: 1
Flags: HW
HStem: 51 58<61 331> 415 60<122 333> 598 61<122 488>
VStem: 61 61<475 598> 429 57<206 322>
LayerCount: 2
Back
Fore
SplineSet
61 659 m 1
 488 659 l 1
 488 598 l 1
 122 598 l 1
 122 475 l 1
 345 475 l 2
 348 475 350 475 353 474 c 0
 355 473 358 472 360 471 c 0
 362 470 364 468 366 466 c 2
 476 354 l 2
 478 352 480 350 481 348 c 0
 482 347 482 346 483 345 c 0
 484 344 484 342 484 341 c 0
 484 340 484 339 484 338 c 0
 484 337 484 335 484 334 c 2
 486 195 l 2
 486 194 486 192 486 191 c 0
 486 190 486 188 486 187 c 0
 486 186 486 185 485 184 c 0
 484 183 484 182 483 181 c 0
 482 180 482 178 481 177 c 0
 480 176 479 175 478 174 c 2
 364 58 l 2
 362 56 360 54 358 53 c 0
 357 52 356 52 355 51 c 0
 354 50 352 50 351 50 c 0
 350 50 348 50 347 50 c 0
 346 50 344 50 343 50 c 2
 61 51 l 1
 61 109 l 1
 331 107 l 1
 429 206 l 1
 427 322 l 1
 333 418 l 1
 61 415 l 1
 61 659 l 1
EndSplineSet
EndChar

StartChar: six
Encoding: 36 54 38
Width: 536
VWidth: 0
InSpiro: 1
Flags: HW
HStem: 55 57<213.867 333.984> 354 61<213.867 337.891>
VStem: 66 55<202.148 262.695 344.727 505.859> 428 57<204.102 264.648>
LayerCount: 2
Back
Fore
SplineSet
121 344 m 1
 181 403 l 2
 183 405 185 407 187 408 c 0
 189 409 191 410 193 411 c 0
 196 412 198 412 201 412 c 2
 345 414 l 2
 347 414 350 414 352 413 c 0
 354 412 357 411 359 410 c 0
 360 410 361 409 362 408 c 0
 363 407 364 407 365 406 c 2
 476 297 l 2
 478 295 480 293 481 291 c 0
 482 290 482 289 483 288 c 0
 484 287 484 285 484 284 c 0
 484 283 484 282 484 281 c 0
 484 280 484 278 484 277 c 2
 484 192 l 2
 484 191 484 189 484 188 c 0
 484 187 484 185 484 184 c 0
 484 183 484 181 483 180 c 0
 482 179 482 178 481 177 c 0
 480 175 478 173 476 171 c 2
 365 63 l 2
 363 61 361 59 359 58 c 0
 357 57 355 56 353 55 c 0
 350 54 348 54 345 54 c 2
 202 54 l 2
 200 54 197 54 195 55 c 0
 193 56 190 57 188 58 c 0
 186 59 184 61 182 63 c 2
 75 169 l 2
 73 171 72 172 71 174 c 0
 70 176 69 179 68 181 c 0
 67 183 67 186 67 188 c 2
 63 518 l 2
 63 521 63 524 64 527 c 0
 65 529 66 532 67 534 c 0
 68 536 70 538 72 540 c 2
 198 654 l 1
 235 611 l 1
 120 506 l 1
 121 344 l 1
214 112 m 1
 334 112 l 1
 427 204 l 1
 427 265 l 1
 338 354 l 1
 213 355 l 1
 121 262 l 1
 121 202 l 1
 214 112 l 1
EndSplineSet
EndChar

StartChar: seven
Encoding: 37 55 39
Width: 536
VWidth: 0
InSpiro: 1
Flags: HW
HStem: 49 21G<183.105 240.394> 598 61<61.0352 427.246>
VStem: 183 57<48.7344 315.219>
LayerCount: 2
Back
Fore
SplineSet
485 572 m 2
 485 571 485 569 485 568 c 0
 485 567 485 565 485 564 c 0
 485 563 485 561 484 560 c 0
 483 559 483 558 482 557 c 0
 481 555 479 553 477 551 c 2
 241 315 l 1
 240 49 l 1
 183 49 l 1
 184 327 l 2
 184 328 184 330 184 331 c 0
 184 332 185 334 185 335 c 0
 186 337 187 339 188 341 c 0
 189 342 189 343 190 344 c 0
 191 345 191 346 192 347 c 2
 427 583 l 1
 427 598 l 1
 61 598 l 1
 61 659 l 1
 485 659 l 1
 485 572 l 2
EndSplineSet
EndChar

StartChar: eight
Encoding: 38 56 40
Width: 536
VWidth: 0
Flags: HW
HStem: 55 56<223 325> 363 56<227 325> 602 57<225 325>
VStem: 64 58<213 254> 124 58<458 554> 366 58<458 560> 428 56<214 254>
LayerCount: 2
Back
Fore
SplineSet
133 583 m 2
 190 649 l 2
 192 651 194 652 196 654 c 0
 198 655 200 657 203 658 c 0
 206 659 209 659 212 659 c 2
 337 660 l 2
 340 660 342 660 345 659 c 0
 347 658 351 657 353 656 c 0
 355 655 356 653 358 651 c 2
 416 591 l 2
 418 589 420 587 421 585 c 0
 422 583 423 580 424 578 c 0
 425 576 425 574 425 571 c 2
 424 446 l 2
 424 443 424 440 423 438 c 0
 422 436 421 434 420 432 c 0
 419 430 417 428 415 426 c 2
 379 392 l 1
 479 285 l 2
 481 283 482 280 483 278 c 0
 484 276 484 273 485 271 c 0
 486 268 486 268 486 265 c 2
 484 200 l 2
 484 198 484 195 483 193 c 0
 482 191 481 189 480 187 c 0
 479 185 479 183 477 181 c 2
 356 62 l 2
 354 60 353 58 351 57 c 0
 349 56 346 56 344 55 c 0
 341 54 340 54 337 54 c 2
 211 55 l 2
 208 55 205 55 203 56 c 0
 201 57 198 58 196 59 c 0
 194 60 192 60 190 62 c 2
 73 181 l 2
 71 183 69 186 68 188 c 0
 67 190 66 192 65 194 c 0
 64 197 64 198 64 201 c 2
 65 266 l 2
 65 268 65 270 66 272 c 0
 67 274 68 277 69 279 c 0
 70 281 72 283 74 285 c 2
 172 390 l 1
 134 424 l 2
 132 426 129 428 128 430 c 0
 127 432 126 435 125 438 c 0
 124 441 124 443 124 446 c 2
 126 565 l 2
 126 567 126 569 127 571 c 0
 128 573 128 576 129 578 c 0
 130 580 131 581 133 583 c 2
123 254 m 1
 122 213 l 1
 223 111 l 1
 325 110 l 1
 428 214 l 1
 429 254 l 1
 325 363 l 1
 227 361 l 1
 123 254 l 1
183 554 m 1
 182 458 l 1
 226 420 l 1
 326 419 l 1
 366 458 l 1
 367 560 l 1
 325 603 l 1
 225 602 l 1
 183 554 l 1
EndSplineSet
EndChar

StartChar: nine
Encoding: 39 57 41
Width: 536
VWidth: 0
InSpiro: 1
Flags: HW
HStem: 294 57<159 266> 603 57<220 384>
VStem: 59 57<403 498> 427 56<149 437 503 558>
LayerCount: 2
Back
Fore
SplineSet
118 498 m 1
 116 403 l 1
 159 351 l 1
 266 351 l 1
 424 503 l 1
 425 558 l 1
 384 603 l 1
 220 601 l 1
 118 498 l 1
188 650 m 2
 189 652 191 653 193 654 c 0
 195 655 198 656 200 657 c 0
 203 658 205 658 208 658 c 2
 396 660 l 2
 399 660 402 660 405 659 c 0
 407 658 410 657 412 656 c 0
 414 655 416 653 418 651 c 2
 475 588 l 2
 476 587 476 586 477 585 c 0
 478 584 478 583 479 582 c 0
 480 580 481 577 482 575 c 0
 483 573 483 570 483 568 c 2
 483 137 l 2
 483 135 483 132 482 130 c 0
 481 128 480 125 479 123 c 0
 478 121 476 120 475 118 c 2
 413 53 l 2
 411 51 409 49 407 48 c 0
 405 47 403 46 400 45 c 0
 395 44 390 44 385 45 c 0
 380 46 376 49 372 52 c 0
 368 55 365 60 364 65 c 0
 363 70 363 74 364 79 c 0
 364 81 365 84 366 86 c 0
 367 88 369 90 371 92 c 2
 427 149 l 1
 428 437 l 1
 297 302 l 2
 295 300 293 298 291 297 c 0
 289 296 287 296 285 295 c 0
 284 295 283 294 282 294 c 0
 281 294 279 294 278 294 c 2
 145 294 l 2
 142 294 139 294 136 295 c 0
 134 296 131 297 129 298 c 0
 127 300 125 302 123 304 c 2
 66 375 l 2
 64 377 63 379 62 381 c 0
 61 383 61 385 60 387 c 0
 60 388 59 389 59 390 c 0
 59 391 59 392 59 393 c 2
 61 510 l 2
 61 513 61 515 62 518 c 0
 62 520 63 522 64 524 c 0
 65 526 67 528 69 530 c 2
 188 650 l 2
EndSplineSet
EndChar

StartChar: ssharp
Encoding: 40 223 42
Width: 536
VWidth: 0
InSpiro: 1
Flags: HW
HStem: 54 57<285.156 387.695> 601 58<221.68 266.602>
VStem: 62 58<48.8281 502.93> 307 58<518.555 557.617> 429 57<152.344 250.977>
LayerCount: 2
Back
Fore
SplineSet
61 515 m 2
 61 518 61 520 62 523 c 0
 63 525 64 528 65 530 c 0
 66 532 68 534 70 536 c 2
 191 650 l 2
 192 651 193 652 194 653 c 0
 195 654 196 654 197 655 c 0
 199 656 201 657 203 657 c 0
 204 657 206 658 207 658 c 0
 208 658 210 658 211 658 c 2
 278 658 l 2
 281 658 283 658 286 657 c 0
 288 656 291 655 293 654 c 0
 295 653 297 651 299 649 c 2
 356 589 l 2
 357 588 358 587 359 586 c 0
 360 585 360 584 361 583 c 0
 362 581 363 579 363 577 c 0
 363 576 364 574 364 573 c 0
 364 572 364 570 364 569 c 2
 364 507 l 2
 364 506 364 504 364 503 c 0
 364 502 363 501 363 500 c 0
 363 499 362 497 362 496 c 0
 362 495 362 494 361 493 c 0
 360 492 360 491 359 490 c 0
 358 489 357 489 356 488 c 2
 316 445 l 1
 478 283 l 2
 480 281 482 279 483 277 c 0
 484 275 485 273 485 271 c 0
 485 270 486 268 486 267 c 0
 486 266 486 264 486 263 c 2
 485 140 l 2
 485 137 485 135 484 132 c 0
 484 130 483 128 482 126 c 0
 481 124 479 122 477 120 c 2
 420 64 l 2
 418 62 416 60 414 59 c 0
 412 58 409 57 407 56 c 0
 405 55 402 55 400 55 c 2
 274 53 l 2
 273 53 271 53 270 53 c 0
 269 53 268 54 267 54 c 0
 265 55 262 56 260 57 c 0
 258 58 256 60 254 62 c 2
 193 122 l 1
 233 162 l 1
 285 111 l 1
 388 112 l 1
 428 152 l 1
 429 251 l 1
 255 424 l 2
 253 426 251 428 250 430 c 0
 249 432 249 435 248 437 c 0
 247 439 247 442 247 444 c 0
 247 446 247 449 247 451 c 0
 247 454 249 456 250 458 c 0
 251 460 253 462 255 464 c 2
 307 519 l 1
 307 558 l 1
 266 601 l 1
 222 601 l 1
 118 503 l 1
 119 49 l 1
 62 49 l 1
 61 515 l 2
EndSplineSet
EndChar

StartChar: section
Encoding: 41 167 43
Width: 536
VWidth: 0
Flags: HW
HStem: -71 57<122 265> 600 57<221 363>
VStem: 62 58<336 437> 123 57<512 556> 305 58<31 73> 364 57<150 251>
LayerCount: 2
Back
Fore
SplineSet
339 126 m 1
 364 150 l 1
 366 251 l 1
 148 459 l 1
 121 437 l 1
 120 336 l 1
 339 126 l 1
363 73 m 1
 363 20 l 2
 363 17 362 15 362 12 c 1
 361 10 360 8 359 6 c 0
 358 4 357 2 355 0 c 2
 299 -61 l 2
 297 -63 295 -65 293 -66 c 0
 290 -67 288 -68 286 -69 c 0
 283 -70 280 -70 278 -70 c 2
 122 -71 l 1
 122 -14 l 1
 265 -13 l 1
 305 31 l 1
 305 79 l 1
 71 303 l 2
 69 305 67 307 66 309 c 0
 65 311 64 314 63 316 c 0
 62 319 62 322 62 324 c 2
 64 450 l 2
 64 453 64 455 65 458 c 0
 66 460 67 463 68 465 c 0
 70 467 72 469 74 471 c 2
 123 512 l 1
 123 567 l 2
 123 570 123 572 124 575 c 0
 124 577 125 579 126 581 c 0
 127 583 129 585 130 587 c 2
 187 648 l 2
 188 650 190 652 193 653 c 0
 195 654 197 655 200 656 c 0
 202 657 205 657 208 657 c 2
 363 658 l 1
 363 601 l 1
 221 600 l 1
 180 556 l 1
 180 508 l 1
 414 284 l 2
 416 282 418 280 419 278 c 0
 421 275 422 273 422 271 c 0
 423 268 423 265 423 263 c 2
 421 137 l 2
 421 134 421 131 420 129 c 0
 419 126 418 124 417 122 c 0
 416 120 414 118 412 116 c 2
 363 73 l 1
EndSplineSet
EndChar

StartChar: numbersign
Encoding: 42 35 44
Width: 536
VWidth: 0
InSpiro: 1
Flags: HW
HStem: 293 61<61.0352 122.07 183.741 305.176 366.211 427.246> 476 61<61.0352 121.435 183.741 305.176 366.847 426.61> 578 20G<122.257 183.741 305.176 366.422>
VStem: 122 61<232.061 291.824 354.767 475.565 537.872 597.636> 305 61<232.696 293.096 352.859 475.565 537.872 597.636>
LayerCount: 2
Back
Fore
SplineSet
305 476 m 1
 184 476 l 1
 183 355 l 1
 305 353 l 1
 305 476 l 1
122 598 m 1
 184 598 l 1
 183 538 l 1
 305 537 l 1
 305 598 l 1
 366 598 l 1
 367 538 l 1
 427 536 l 1
 427 476 l 1
 366 476 l 1
 366 353 l 1
 427 353 l 1
 427 294 l 1
 366 293 l 1
 366 233 l 1
 305 232 l 1
 306 293 l 1
 184 294 l 1
 182 232 l 1
 122 232 l 1
 122 292 l 1
 61 293 l 1
 60 354 l 1
 122 354 l 1
 121 476 l 1
 61 476 l 1
 60 537 l 1
 123 537 l 1
 122 598 l 1
EndSplineSet
EndChar

StartChar: at
Encoding: 43 64 45
Width: 536
VWidth: 0
InSpiro: 1
Flags: HW
HStem: 56 57<161.133 488.281> 300 57<242.188 387.695> 378 97<307.617 363.58> 417 58<281.25 307.617> 602 58<163.086 387.695>
VStem: 62 57<152.344 558.594> 185 58<356.445 380.859> 308 58<377.93 416.992> 429 57<396.484 557.617>
LayerCount: 2
Back
Fore
SplineSet
149 55 m 2
 147 55 144 55 142 56 c 0
 140 57 138 58 136 59 c 0
 135 60 134 60 133 61 c 0
 132 62 131 62 130 63 c 2
 70 119 l 2
 68 121 66 123 65 125 c 0
 64 127 63 130 62 132 c 0
 61 135 61 137 61 140 c 2
 64 570 l 2
 64 571 64 573 64 574 c 0
 64 575 65 577 65 578 c 0
 65 580 66 582 67 584 c 0
 68 586 70 588 72 590 c 2
 130 650 l 2
 132 652 134 654 136 655 c 0
 138 656 141 657 143 658 c 0
 146 659 148 659 151 659 c 2
 400 658 l 2
 402 658 405 658 407 657 c 0
 409 656 412 655 414 654 c 0
 416 653 418 651 420 649 c 2
 479 589 l 2
 481 587 483 585 484 583 c 0
 485 581 486 579 486 577 c 0
 486 576 487 574 487 573 c 0
 487 572 487 570 487 569 c 2
 485 385 l 2
 485 384 485 382 485 381 c 0
 485 380 485 379 485 378 c 0
 485 377 485 375 484 374 c 0
 483 373 483 372 482 371 c 0
 481 369 479 368 478 366 c 2
 420 305 l 2
 418 303 416 301 414 300 c 0
 413 299 412 299 411 298 c 0
 410 297 408 297 407 297 c 0
 406 297 404 297 403 297 c 0
 402 297 400 297 399 297 c 2
 213 299 l 2
 210 299 208 299 205 300 c 0
 202 301 200 301 198 303 c 0
 196 304 194 306 193 308 c 0
 192 310 190 312 189 314 c 0
 188 316 187 319 186 321 c 0
 185 323 185 326 185 328 c 2
 186 393 l 2
 186 396 186 398 187 401 c 0
 188 403 189 406 190 408 c 0
 191 410 193 412 195 414 c 2
 250 466 l 2
 251 467 252 467 253 468 c 0
 254 469 255 469 256 470 c 0
 258 471 260 472 262 473 c 0
 264 474 267 474 269 474 c 2
 335 475 l 2
 338 475 340 475 343 474 c 0
 346 473 348 472 350 471 c 0
 354 468 357 465 360 461 c 0
 361 459 362 456 363 454 c 0
 364 452 364 449 364 447 c 2
 365 378 l 1
 308 377 l 1
 307 417 l 1
 281 417 l 1
 243 380 l 1
 243 356 l 1
 388 354 l 1
 428 397 l 1
 430 558 l 1
 388 601 l 1
 163 602 l 1
 121 559 l 1
 118 153 l 1
 161 112 l 1
 489 108 l 1
 488 51 l 1
 149 55 l 2
EndSplineSet
EndChar

StartChar: percent
Encoding: 44 37 46
Width: 536
VWidth: 0
InSpiro: 1
Flags: HW
HStem: -15 58<364.496 424.618> 113 57<364.655 424.459> 475 57<121.68 181.364> 602 58<121.521 181.454>
VStem: 62 57<534.438 598.692> 185 58<534.286 598.692> 305 57<45.8394 110.094> 428 58<45.8394 110.094>
LayerCount: 2
Back
Fore
SplineSet
428 533 m 2
 430 535 432 537 434 538 c 0
 436 539 439 540 442 541 c 0
 447 542 453 542 458 541 c 0
 463 540 468 537 472 533 c 0
 476 529 479 524 480 519 c 0
 481 514 481 509 480 504 c 0
 479 501 478 499 477 496 c 0
 476 493 474 491 472 489 c 2
 114 123 l 2
 112 121 110 119 108 118 c 0
 106 117 103 116 100 115 c 0
 95 114 89 114 84 115 c 0
 79 116 74 119 70 123 c 0
 66 127 64 132 62 137 c 0
 60 142 60 148 61 153 c 0
 62 156 63 159 64 161 c 0
 65 163 67 165 69 167 c 2
 428 533 l 2
395 170 m 0
 411 170 427 166 441 158 c 0
 455 150 465 138 473 124 c 0
 481 110 485 94 485 78 c 0
 485 62 481 46 473 32 c 0
 465 18 455 6 441 -2 c 0
 427 -10 411 -14 395 -14 c 0
 379 -14 363 -10 349 -2 c 0
 336 6 325 18 317 32 c 0
 309 46 304 62 304 78 c 0
 304 94 309 110 317 124 c 0
 325 138 336 150 349 158 c 0
 363 166 379 170 395 170 c 0
362 78 m 0
 362 72 363 66 366 60 c 0
 369 55 373 50 378 47 c 0
 383 44 389 43 395 43 c 0
 401 43 406 44 411 47 c 0
 416 50 420 55 423 60 c 0
 426 66 428 72 428 78 c 0
 428 84 426 91 423 96 c 0
 420 101 416 105 411 108 c 0
 406 111 401 113 395 113 c 0
 389 113 383 111 378 108 c 0
 373 105 369 101 366 96 c 0
 363 91 362 84 362 78 c 0
152 659 m 0
 168 659 184 654 198 646 c 0
 211 638 222 626 230 613 c 0
 238 599 242 583 242 567 c 0
 242 551 238 534 230 520 c 0
 222 507 211 495 198 487 c 0
 184 479 168 474 152 474 c 0
 136 474 120 479 106 487 c 0
 92 495 81 506 73 520 c 0
 65 534 61 551 61 567 c 0
 61 583 65 599 73 613 c 0
 81 627 92 638 106 646 c 0
 120 654 136 659 152 659 c 0
119 567 m 0
 119 561 120 555 123 549 c 0
 126 544 130 539 135 536 c 0
 140 533 146 532 152 532 c 0
 158 532 163 533 168 536 c 0
 173 539 177 544 180 549 c 0
 183 555 185 561 185 567 c 0
 185 573 183 580 180 585 c 0
 177 590 173 594 168 597 c 0
 163 600 158 602 152 602 c 0
 146 602 140 600 135 597 c 0
 130 594 126 590 123 585 c 0
 120 580 119 573 119 567 c 0
EndSplineSet
EndChar

StartChar: underscore
Encoding: 45 95 47
Width: 536
VWidth: 0
Flags: HW
HStem: -13 62<61 488>
LayerCount: 2
Back
Fore
SplineSet
61 49 m 1
 488 49 l 1
 488 -13 l 1
 61 -13 l 1
 61 49 l 1
EndSplineSet
EndChar

StartChar: ampersand
Encoding: 46 38 48
Width: 536
VWidth: 0
InSpiro: 1
Flags: HW
HStem: 53 58<162 263> 298 62<148 184> 538 57<162 205>
VStem: 67 57<152 259 393 496> 184 56<275 298> 244 57<398 498>
LayerCount: 2
Back
Fore
SplineSet
193 242 m 2
 191 244 189 245 188 247 c 0
 187 249 186 251 185 253 c 0
 184 255 184 258 184 260 c 2
 184 298 l 1
 148 298 l 1
 121 259 l 1
 119 152 l 1
 162 111 l 1
 263 110 l 1
 294 141 l 1
 193 242 l 2
72 368 m 2
 71 370 70 371 69 373 c 0
 69 374 68 374 68 375 c 0
 68 376 67 377 67 378 c 0
 67 379 67 380 67 381 c 0
 67 382 67 383 67 384 c 2
 66 507 l 2
 66 508 66 510 66 511 c 0
 66 512 67 513 67 514 c 0
 67 515 68 517 68 518 c 0
 68 519 68 520 69 521 c 0
 70 522 70 523 71 524 c 0
 72 525 73 526 74 527 c 2
 129 586 l 2
 131 588 133 590 135 591 c 0
 137 592 140 593 142 594 c 0
 145 595 147 595 150 595 c 2
 217 594 l 2
 219 594 222 594 224 593 c 0
 226 592 229 591 231 590 c 0
 232 589 233 589 234 588 c 0
 235 587 236 587 237 586 c 2
 293 531 l 2
 294 530 294 529 295 528 c 0
 296 527 297 526 297 525 c 0
 298 523 299 520 300 518 c 0
 301 516 301 513 301 511 c 2
 304 387 l 2
 304 386 304 384 304 383 c 0
 304 382 303 380 303 379 c 0
 302 377 302 374 301 372 c 0
 300 371 300 370 299 369 c 0
 298 368 297 367 296 366 c 2
 240 309 l 1
 240 275 l 1
 335 182 l 1
 440 286 l 1
 481 246 l 1
 375 141 l 1
 478 39 l 1
 438 -1 l 1
 335 101 l 1
 295 61 l 2
 293 59 291 57 289 56 c 0
 287 55 284 54 282 53 c 0
 279 52 277 52 274 52 c 2
 150 53 l 2
 148 53 145 53 143 54 c 0
 141 55 139 56 137 57 c 0
 136 58 135 58 134 59 c 0
 133 60 132 60 131 61 c 2
 71 120 l 2
 69 122 67 124 66 126 c 0
 65 128 64 131 63 133 c 0
 62 136 62 138 62 141 c 2
 64 268 l 2
 64 269 64 270 64 271 c 0
 64 272 64 273 64 274 c 0
 64 275 65 276 65 277 c 0
 65 278 66 278 66 279 c 0
 67 281 68 282 69 284 c 2
 99 328 l 1
 72 368 l 2
247 398 m 1
 244 498 l 1
 205 537 l 1
 162 538 l 1
 123 496 l 1
 124 393 l 1
 146 360 l 1
 208 360 l 1
 247 398 l 1
EndSplineSet
EndChar

StartChar: period
Encoding: 47 46 50
Width: 536
VWidth: 0
Flags: HW
HStem: 49 122<184 305>
VStem: 184 121<49 171>
LayerCount: 2
Back
Fore
SplineSet
184 171 m 1
 305 171 l 1
 305 49 l 1
 184 49 l 1
 184 171 l 1
EndSplineSet
EndChar

StartChar: comma
Encoding: 48 44 51
Width: 536
VWidth: 0
InSpiro: 1
Flags: HW
HStem: -71 242
VStem: 244 122<107 171>
LayerCount: 2
Back
Fore
SplineSet
366 83 m 2
 366 80 366 78 366 75 c 0
 366 72 365 70 364 68 c 0
 362 64 360 60 358 56 c 0
 357 54 356 52 355 50 c 0
 354 48 352 46 350 44 c 2
 234 -71 l 1
 151 8 l 1
 244 107 l 1
 244 171 l 1
 365 171 l 1
 366 83 l 2
EndSplineSet
EndChar

StartChar: colon
Encoding: 49 58 52
Width: 536
VWidth: 0
Flags: HW
HStem: 49 122<184 305> 293 122<184 305>
VStem: 184 121<49 171 293 415>
LayerCount: 2
Back
Fore
SplineSet
184 415 m 1
 305 415 l 1
 305 293 l 1
 184 293 l 1
 184 415 l 1
184 171 m 1
 305 171 l 1
 305 49 l 1
 184 49 l 1
 184 171 l 1
EndSplineSet
EndChar

StartChar: plus
Encoding: 50 43 53
Width: 536
VWidth: 0
Flags: HW
HStem: 293 61<61 244 305 488>
VStem: 244 61<109 293 354 537>
LayerCount: 2
Back
Fore
SplineSet
244 537 m 1
 305 537 l 1
 305 354 l 1
 488 354 l 1
 488 293 l 1
 305 293 l 1
 305 109 l 1
 244 109 l 1
 244 293 l 1
 61 293 l 1
 61 354 l 1
 244 354 l 1
 244 537 l 1
EndSplineSet
EndChar

StartChar: notsign
Encoding: 51 172 54
Width: 536
VWidth: 0
Flags: HW
HStem: 537 61<61 428>
VStem: 428 60<415 537>
LayerCount: 2
Back
Fore
SplineSet
61 598 m 1
 488 598 l 1
 488 415 l 1
 428 415 l 1
 428 537 l 1
 61 537 l 1
 61 598 l 1
EndSplineSet
EndChar

StartChar: macron
Encoding: 52 175 55
Width: 536
VWidth: 0
Flags: HW
HStem: 598 61<61 488>
LayerCount: 2
Back
Fore
SplineSet
61 659 m 1
 488 659 l 1
 488 598 l 1
 61 598 l 1
 61 659 l 1
EndSplineSet
EndChar

StartChar: degree
Encoding: 53 176 56
Width: 536
VWidth: 0
Flags: HW
HStem: 417 57<200.249 289.751> 603 57<200.739 289.261>
VStem: 127 57<490.318 587.399> 306 57<490.318 587.399>
LayerCount: 2
Back
Fore
SplineSet
245 660 m 0
 311 660 363 604 363 538 c 0
 363 472 311 417 245 417 c 0
 179 417 127 472 127 538 c 0
 127 604 179 660 245 660 c 0
184 538 m 0
 184 502 212 474 245 474 c 0
 278 474 306 502 306 538 c 0
 306 574 278 603 245 603 c 0
 212 603 184 574 184 538 c 0
EndSplineSet
EndChar

StartChar: periodcentered
Encoding: 54 183 57
Width: 536
VWidth: 0
Flags: HW
HStem: 231 123<184 305>
VStem: 184 121<231 354>
LayerCount: 2
Back
Fore
SplineSet
184 354 m 1
 305 354 l 1
 305 231 l 1
 184 231 l 1
 184 354 l 1
EndSplineSet
EndChar

StartChar: asciicircum
Encoding: 55 94 58
Width: 536
VWidth: 0
InSpiro: 1
Flags: HW
HStem: 487 172
VStem: 131 286
LayerCount: 2
Back
Fore
SplineSet
254 650 m 2
 256 652 258 654 260 655 c 0
 262 656 264 657 267 658 c 0
 272 659 276 659 281 658 c 0
 284 657 286 656 288 655 c 0
 290 654 292 652 294 650 c 2
 417 528 l 1
 377 487 l 1
 274 589 l 1
 172 488 l 1
 131 528 l 1
 254 650 l 2
EndSplineSet
EndChar

StartChar: asciitilde
Encoding: 56 126 59
Width: 536
VWidth: 0
InSpiro: 1
Flags: HW
HStem: 478 57<347.301 387.128> 600 57<163.306 204.487>
LayerCount: 2
Back
Fore
SplineSet
132 649 m 2
 133 650 134 650 135 651 c 0
 136 652 137 652 138 653 c 0
 140 654 142 655 144 656 c 0
 146 657 149 657 151 657 c 2
 216 658 l 2
 219 658 221 658 224 657 c 0
 226 656 229 655 231 654 c 0
 233 653 235 651 237 649 c 2
 347 535 l 1
 387 535 l 1
 438 587 l 1
 479 547 l 1
 420 487 l 2
 418 485 416 483 414 482 c 0
 412 481 409 480 407 479 c 0
 404 478 402 478 399 478 c 2
 335 478 l 2
 333 478 330 478 328 479 c 0
 326 480 323 481 321 482 c 0
 319 483 317 485 315 487 c 2
 204 600 l 1
 163 600 l 1
 111 549 l 1
 71 590 l 1
 132 649 l 2
EndSplineSet
EndChar

StartChar: diaeresis
Encoding: 57 168 60
Width: 536
VWidth: 0
Flags: HW
HStem: 537 122<61 184 366 488>
VStem: 61 123<537 659> 366 122<537 659>
LayerCount: 2
Back
Fore
SplineSet
121 659 m 1
 184 659 l 1
 184 598 l 1
 121 598 l 1
 121 659 l 1
305 659 m 1
 367 659 l 1
 367 598 l 1
 305 598 l 1
 305 659 l 1
EndSplineSet
EndChar

StartChar: grave
Encoding: 58 96 61
Width: 536
VWidth: 0
InSpiro: 1
Flags: HW
HStem: 480 178
VStem: 186 178
LayerCount: 2
Back
Fore
SplineSet
355 529 m 2
 357 527 359 525 360 523 c 0
 361 521 362 518 363 516 c 0
 364 511 364 506 363 501 c 0
 362 496 359 492 355 488 c 0
 352 485 348 482 343 481 c 0
 338 480 333 480 328 481 c 0
 326 481 323 482 321 483 c 0
 319 484 317 486 315 488 c 2
 194 608 l 2
 192 610 190 612 189 614 c 0
 188 616 187 619 187 621 c 0
 186 626 186 631 187 636 c 0
 188 641 190 645 194 649 c 0
 198 653 202 655 207 656 c 0
 212 657 217 657 222 656 c 0
 224 656 227 655 229 654 c 0
 231 653 233 651 235 649 c 2
 355 529 l 2
EndSplineSet
EndChar

StartChar: acute
Encoding: 59 180 62
Width: 536
VWidth: 0
Flags: HW
HStem: 477 181
VStem: 186 180
LayerCount: 2
Back
Fore
SplineSet
195 486 m 0
 189 492 186 500 186 507 c 0
 186 516 190 524 195 529 c 2
 315 650 l 2
 321 656 329 659 336 659 c 0
 345 659 353 655 358 650 c 0
 363 645 367 637 367 628 c 0
 367 621 364 613 358 607 c 2
 238 486 l 2
 233 481 225 477 216 477 c 0
 209 477 201 480 195 486 c 0
EndSplineSet
EndChar

StartChar: cedilla
Encoding: 60 184 63
Width: 536
VWidth: 0
InSpiro: 1
Flags: HW
HStem: -70 57<123.024 203.408>
VStem: 245 57<30.6553 171.661>
LayerCount: 2
Back
Fore
SplineSet
302 19 m 2
 302 18 302 16 302 15 c 0
 302 14 301 13 301 12 c 0
 301 11 300 9 300 8 c 0
 300 7 300 6 299 5 c 0
 298 4 298 3 297 2 c 0
 296 1 295 0 294 -1 c 2
 236 -61 l 2
 234 -63 232 -65 230 -66 c 0
 228 -67 225 -68 223 -69 c 0
 221 -70 218 -70 216 -70 c 2
 123 -70 l 1
 123 -12 l 1
 203 -12 l 1
 245 31 l 1
 245 172 l 1
 302 172 l 1
 302 19 l 2
EndSplineSet
EndChar

StartChar: igrave
Encoding: 63 236 66
Width: 536
VWidth: 0
InSpiro: 1
Flags: HW
HStem: 49 21G<244 305>
VStem: 244 61<49 415>
LayerCount: 2
Back
Fore
SplineSet
244 476 m 1
 305 476 l 1
 305 49 l 1
 244 49 l 1
 244 476 l 1
EndSplineSet
Refer: 61 96 N 1 0 0 1 -63 59 2
EndChar

StartChar: ydiaeresis
Encoding: 68 -1 71
Width: 536
VWidth: 0
Flags: HW
HStem: 455 20G<62 120.198 367 426> 598 61<122 184 305 366>
VStem: 63 59<273 474> 122 62<598 659> 305 61<598 659> 367 59<214 475>
LayerCount: 2
Back
Fore
SplineSet
231 78 m 1
 72 240 l 2
 69 243 63 250 63 260 c 2
 62 474 l 1
 120 475 l 1
 122 273 l 1
 272 120 l 1
 367 214 l 1
 367 475 l 1
 426 475 l 1
 426 202 l 2
 426 192 420 184 417 181 c 2
 112 -122 l 1
 71 -81 l 1
 231 78 l 1
122 659 m 1
 184 659 l 1
 184 598 l 1
 122 598 l 1
 122 659 l 1
305 659 m 1
 366 659 l 1
 366 598 l 1
 305 598 l 1
 305 659 l 1
EndSplineSet
EndChar

StartChar: onequarter
Encoding: 72 188 75
Width: 536
VWidth: 0
Flags: HW
HStem: 113 60<368 428 488 518>
VStem: 153 60<414 594> 428 60<50 113 173 249>
LayerCount: 2
Back
Fore
SplineSet
518 173 m 1
 518 113 l 1
 488 113 l 1
 487 50 l 1
 427 50 l 1
 428 113 l 1
 337 114 l 2
 315 114 307 133 307 144 c 2
 307 145 l 1
 308 201 l 2
 308 210 314 218 317 221 c 2
 408 313 l 2
 414 320 424 322 428 322 c 2
 458 323 l 2
 459 323 459 323 460 323 c 0
 480 323 489 305 489 294 c 0
 489 293 489 294 489 293 c 2
 488 173 l 1
 518 173 l 1
428 173 m 1
 429 249 l 1
 368 187 l 1
 368 174 l 1
 428 173 l 1
213 414 m 1
 153 414 l 1
 154 594 l 1
 145 586 l 1
 103 628 l 1
 163 687 l 2
 166 690 172 696 184 696 c 0
 195 696 214 687 214 666 c 2
 213 414 l 1
431 560 m 2
 437 566 445 569 453 569 c 0
 461 569 469 566 475 560 c 0
 481 554 484 546 484 538 c 0
 484 530 481 522 476 516 c 2
 116 150 l 2
 110 144 103 141 95 141 c 0
 87 141 79 144 73 150 c 0
 67 156 64 164 64 172 c 0
 64 180 67 188 72 194 c 2
 431 560 l 2
EndSplineSet
EndChar

StartChar: onehalf
Encoding: 73 189 76
Width: 536
VWidth: 0
Flags: HW
HStem: 51 60<409 519> 264 60<407 447>
VStem: 153 60<414 594>
LayerCount: 2
Back
Fore
SplineSet
519 111 m 1
 519 51 l 1
 366 51 l 2
 344 51 336 70 336 81 c 2
 336 110 l 2
 336 120 341 128 344 131 c 2
 458 243 l 1
 458 253 l 1
 447 264 l 1
 407 264 l 1
 387 243 l 1
 343 283 l 1
 372 314 l 2
 376 319 384 324 394 324 c 2
 461 323 l 2
 466 323 475 321 482 314 c 2
 509 285 l 2
 513 281 517 274 517 265 c 2
 518 231 l 2
 518 226 516 217 509 210 c 2
 409 111 l 1
 519 111 l 1
213 414 m 1
 153 414 l 1
 154 594 l 1
 145 586 l 1
 103 628 l 1
 163 687 l 2
 166 690 172 696 184 696 c 0
 195 696 214 687 214 666 c 2
 213 414 l 1
431 560 m 2
 437 566 445 569 453 569 c 0
 461 569 469 566 475 560 c 0
 481 554 484 546 484 538 c 0
 484 530 481 522 476 516 c 2
 116 150 l 2
 110 144 103 141 95 141 c 0
 87 141 79 144 73 150 c 0
 67 156 64 164 64 172 c 0
 64 180 67 188 72 194 c 2
 431 560 l 2
EndSplineSet
EndChar

StartChar: threequarters
Encoding: 74 190 77
Width: 536
VWidth: 0
Flags: HW
HStem: 113 60<368 428 488 518> 385 60<134 172> 631 60<62 158>
VStem: 184 60<457 496> 428 60<50 113 173 249>
LayerCount: 2
Back
Fore
SplineSet
62 631 m 1
 62 691 l 1
 213 690 l 2
 233 690 242 673 242 662 c 0
 242 661 242 661 242 660 c 0
 242 650 238 645 238 645 c 1
 192 572 l 1
 235 530 l 2
 242 523 244 513 244 508 c 2
 244 445 l 2
 244 435 238 428 235 425 c 2
 207 395 l 2
 200 387 191 385 186 385 c 2
 121 385 l 1
 111 384 103 390 99 394 c 2
 69 426 l 1
 112 467 l 1
 134 445 l 1
 172 445 l 1
 184 457 l 1
 184 496 l 1
 133 546 l 2
 129 550 124 558 124 567 c 0
 124 572 125 578 129 583 c 2
 158 631 l 1
 62 631 l 1
518 173 m 1
 518 113 l 1
 488 113 l 1
 487 50 l 1
 427 50 l 1
 428 113 l 1
 337 114 l 2
 315 114 307 133 307 144 c 2
 307 145 l 1
 308 201 l 2
 308 210 314 218 317 221 c 2
 408 313 l 2
 414 320 424 322 428 322 c 2
 458 323 l 2
 459 323 459 323 460 323 c 0
 480 323 489 305 489 294 c 0
 489 293 489 294 489 293 c 2
 488 173 l 1
 518 173 l 1
428 173 m 1
 429 249 l 1
 368 187 l 1
 368 174 l 1
 428 173 l 1
431 560 m 2
 437 566 445 569 453 569 c 0
 461 569 469 566 475 560 c 0
 481 554 484 546 484 538 c 0
 484 530 481 522 476 516 c 2
 116 150 l 2
 110 144 103 141 95 141 c 0
 87 141 79 144 73 150 c 0
 67 156 64 164 64 172 c 0
 64 180 67 188 72 194 c 2
 431 560 l 2
EndSplineSet
EndChar

StartChar: idiaeresis
Encoding: 79 239 82
Width: 536
VWidth: 0
Flags: HW
HStem: 49 21G<244 305> 456 20G<244 305> 598 61<122 184 366 428>
VStem: 122 62<598 659> 244 61<49 476> 366 62<598 659>
LayerCount: 2
Back
Fore
SplineSet
244 476 m 1
 305 476 l 1
 305 49 l 1
 244 49 l 1
 244 476 l 1
EndSplineSet
Refer: 60 168 S 1 0 0 1 27 -2 2
EndChar

StartChar: mu
Encoding: 81 956 84
Width: 536
VWidth: 0
Flags: HW
HStem: -135 21G<62.9672 122> 51 58<163 324 440 489> 456 20G<62 120.123 366.938 426>
VStem: 63 59<-135 68 150 475> 366 59<153 476>
LayerCount: 2
Back
Fore
SplineSet
62 475 m 1
 120 476 l 1
 122 150 l 1
 163 109 l 1
 324 109 l 1
 366 153 l 1
 367 476 l 1
 426 476 l 1
 425 141 l 2
 425 138 424 134 422 129 c 1
 440 109 l 1
 489 109 l 1
 489 50 l 1
 428 50 l 2
 418 50 410 55 407 59 c 2
 381 84 l 1
 357 60 l 2
 354 57 346 51 336 51 c 2
 151 51 l 2
 146 51 138 52 131 59 c 2
 122 68 l 1
 122 -135 l 1
 63 -135 l 1
 62 475 l 1
EndSplineSet
EndChar

StartChar: icircumflex
Encoding: 84 238 87
Width: 536
VWidth: 0
Flags: HW
HStem: 49 21G<244 305> 639 20G<269.5 277.5>
VStem: 244 61<49 415>
LayerCount: 2
Back
Fore
SplineSet
244 476 m 1
 305 476 l 1
 305 49 l 1
 244 49 l 1
 244 476 l 1
EndSplineSet
Refer: 58 94 S 1 0 0 1 0 16 2
EndChar

StartChar: multiply
Encoding: 88 215 91
Width: 536
VWidth: 0
Flags: HW
LayerCount: 2
Back
Fore
SplineSet
102 453 m 1
 145 496 l 1
 274 366 l 1
 404 496 l 1
 447 453 l 1
 317 323 l 1
 447 193 l 1
 404 151 l 1
 274 280 l 1
 145 151 l 1
 102 193 l 1
 232 323 l 1
 102 453 l 1
EndSplineSet
EndChar

StartChar: iacute
Encoding: 89 237 92
Width: 536
VWidth: 0
Flags: HW
HStem: 49 21G<244 305>
VStem: 244 61<49 415>
LayerCount: 2
Back
Fore
SplineSet
244 476 m 1
 305 476 l 1
 305 49 l 1
 244 49 l 1
 244 476 l 1
EndSplineSet
Refer: 62 180 S 1 0 0 1 56 59 2
EndChar

StartChar: onesuperior
Encoding: 100 185 103
Width: 536
VWidth: 0
Flags: HW
HStem: 640 20G<272.5 280.5>
VStem: 245 60<263 558>
LayerCount: 2
Back
Fore
SplineSet
206 519 m 1
 164 561 l 1
 255 651 l 2
 261 657 269 660 276 660 c 0
 285 660 293 656 297 651 c 1
 306 643 306 634 306 630 c 2
 305 263 l 1
 245 263 l 1
 246 558 l 1
 206 519 l 1
EndSplineSet
EndChar

StartChar: twosuperior
Encoding: 101 178 104
Width: 536
VWidth: 0
Flags: HW
HStem: 264 60<228 396> 600 60<257 296>
VStem: 336 61<520 557>
LayerCount: 2
Back
Fore
SplineSet
206 548 m 1
 163 590 l 1
 223 651 l 2
 230 658 240 660 245 660 c 2
 309 659 l 2
 319 659 327 654 330 650 c 2
 388 589 l 2
 395 582 397 573 397 568 c 2
 395 507 l 2
 395 497 390 489 387 486 c 2
 228 324 l 1
 397 323 l 1
 396 263 l 1
 183 264 l 2
 182 264 183 264 182 264 c 0
 171 265 153 274 153 293 c 0
 153 294 153 294 153 295 c 2
 155 323 l 2
 155 329 157 336 163 343 c 2
 336 520 l 1
 336 557 l 1
 296 599 l 1
 257 600 l 1
 206 548 l 1
EndSplineSet
EndChar

StartChar: threesuperior
Encoding: 102 179 105
Width: 536
VWidth: 0
Flags: HW
HStem: 265 60<226 294> 602 59<153 325>
VStem: 336 60<366 403>
LayerCount: 2
Back
Fore
SplineSet
153 602 m 1
 153 661 l 1
 368 659 l 2
 388 659 397 642 397 631 c 0
 397 630 397 630 397 629 c 0
 397 628 398 629 397 628 c 2
 396 598 l 2
 396 589 391 582 388 578 c 2
 316 504 l 1
 322 502 326 499 327 498 c 2
 388 437 l 2
 395 430 397 420 396 415 c 2
 395 354 l 2
 395 344 390 336 387 333 c 2
 328 273 l 2
 321 265 311 263 306 264 c 2
 214 265 l 2
 205 265 198 269 194 273 c 2
 163 301 l 1
 203 345 l 1
 226 325 l 1
 294 324 l 1
 336 366 l 1
 336 403 l 1
 293 446 l 1
 247 445 l 2
 246 445 234 445 225 453 c 0
 220 458 216 466 216 476 c 0
 216 482 218 489 224 496 c 2
 325 599 l 1
 153 602 l 1
EndSplineSet
EndChar

StartChar: ordfeminine
Encoding: 103 170 106
Width: 536
VWidth: 0
Flags: HW
HStem: 49 60<61 488> 171 60<165 368 427 488> 356 59<166 367> 537 59<123 326>
VStem: 65 59<275 312> 369 58<231 355 414 495>
LayerCount: 2
Back
Fore
SplineSet
368 231 m 1
 367 355 l 1
 166 356 l 1
 124 312 l 1
 124 275 l 1
 165 232 l 1
 368 231 l 1
427 230 m 1
 488 229 l 1
 488 171 l 1
 153 174 l 2
 143 174 135 180 132 183 c 2
 73 243 l 2
 66 250 65 260 65 264 c 2
 65 324 l 2
 65 334 70 341 73 344 c 2
 133 406 l 2
 140 413 149 415 154 415 c 2
 369 414 l 1
 369 495 l 1
 326 537 l 1
 122 540 l 1
 123 598 l 1
 339 596 l 2
 349 596 356 590 359 587 c 2
 419 527 l 2
 426 520 427 512 427 507 c 2
 427 230 l 1
61 109 m 1
 488 109 l 1
 488 49 l 1
 61 49 l 1
 61 109 l 1
EndSplineSet
EndChar

StartChar: masculine
Encoding: 104 -1 107
Width: 536
VWidth: 0
Flags: HW
HStem: 49 60<61 428> 172 58<165 326> 537 59<165 327>
VStem: 62 58<271 493> 366 59<271 493>
LayerCount: 2
Back
Fore
SplineSet
122 493 m 1
 120 271 l 1
 165 230 l 1
 326 229 l 1
 366 271 l 1
 367 493 l 1
 327 537 l 1
 165 537 l 1
 122 493 l 1
72 526 m 2
 133 587 l 2
 140 594 149 596 153 596 c 2
 340 596 l 2
 350 596 358 590 362 586 c 2
 418 523 l 2
 424 517 426 509 426 504 c 2
 425 259 l 2
 425 249 420 241 417 238 c 2
 359 179 l 2
 352 171 343 170 338 170 c 2
 153 172 l 2
 144 172 137 176 133 179 c 2
 71 237 l 2
 63 244 62 253 62 259 c 2
 64 506 l 2
 64 516 69 523 72 526 c 2
61 109 m 1
 428 109 l 1
 428 49 l 1
 61 49 l 1
 61 109 l 1
EndSplineSet
EndChar

StartChar: guillemotleft
Encoding: 105 171 108
Width: 536
VWidth: 0
Flags: HW
LayerCount: 2
Back
Fore
SplineSet
254 561 m 1
 297 519 l 1
 106 325 l 1
 297 133 l 1
 254 91 l 1
 43 304 l 2
 38 309 34 317 34 326 c 0
 34 332 37 340 43 346 c 2
 254 561 l 1
437 560 m 1
 480 518 l 1
 289 324 l 1
 480 132 l 1
 437 90 l 1
 226 303 l 2
 221 308 218 316 218 324 c 0
 218 331 220 338 226 345 c 2
 437 560 l 1
EndSplineSet
EndChar

StartChar: guillemotright
Encoding: 106 187 109
Width: 536
VWidth: 0
Flags: HW
LayerCount: 2
Back
Fore
SplineSet
293 561 m 1
 504 346 l 2
 510 339 512 332 512 325 c 0
 512 317 509 309 504 304 c 2
 293 91 l 1
 250 133 l 1
 440 325 l 1
 250 519 l 1
 293 561 l 1
109 560 m 1
 321 345 l 2
 327 339 329 332 329 325 c 0
 329 316 325 308 321 303 c 2
 109 90 l 1
 67 132 l 1
 257 324 l 1
 67 518 l 1
 109 560 l 1
EndSplineSet
EndChar

StartChar: exclamdown
Encoding: 107 161 110
Width: 536
VWidth: 0
Flags: HW
HStem: 49 21G<244 305> 456 20G<244 305> 598 61<244 305>
VStem: 244 61<49 476 598 659>
LayerCount: 2
Back
Fore
SplineSet
244 659 m 1
 305 659 l 1
 305 598 l 1
 244 598 l 1
 244 659 l 1
244 476 m 1
 305 476 l 1
 305 49 l 1
 244 49 l 1
 244 476 l 1
EndSplineSet
EndChar

StartChar: questiondown
Encoding: 108 191 111
Width: 536
VWidth: 0
Flags: HW
HStem: 50 62<220.562 394.384> 601 61<301.828 368.585>
VStem: 122 62<145.268 196.436> 304 61<390.248 480.016 601.292 662.327> 426 61<144.243 235.915>
LayerCount: 2
Back
Fore
SplineSet
369 601 m 1
 302 601 l 1
 302 662 l 1
 369 662 l 1
 369 601 l 1
487 132 m 2
 487 131 487 130 487 129 c 0
 487 128 486 127 486 126 c 0
 485 124 484 122 483 120 c 0
 482 118 481 116 479 114 c 2
 432 60 l 2
 430 58 428 56 425 54 c 0
 423 52 421 52 418 51 c 0
 415 50 412 50 409 50 c 2
 208 50 l 2
 205 50 204 49 201 50 c 0
 199 51 196 52 194 53 c 0
 192 54 189 56 187 58 c 2
 132 109 l 2
 130 111 127 113 126 116 c 0
 125 118 124 121 123 124 c 0
 122 127 122 130 122 133 c 2
 124 211 l 2
 124 214 124 216 125 219 c 0
 126 222 128 225 129 227 c 0
 130 229 132 231 134 233 c 2
 304 390 l 1
 304 480 l 1
 365 480 l 1
 365 375 l 2
 365 374 365 372 365 371 c 0
 365 370 364 368 364 367 c 0
 363 365 362 362 361 360 c 0
 360 358 357 355 355 353 c 2
 186 196 l 1
 184 145 l 1
 221 112 l 1
 394 112 l 1
 426 144 l 1
 426 236 l 1
 487 236 l 1
 487 132 l 2
EndSplineSet
EndChar

StartChar: a
Encoding: 125 97 128
Width: 536
VWidth: 0
Flags: HW
HStem: 49 60<165 367 426 487> 234 59<166 367> 415 59<122 326>
VStem: 64 59<153 190> 367 59<109 233 292 373>
LayerCount: 2
Back
Fore
SplineSet
367 109 m 1
 367 233 l 1
 166 234 l 1
 123 190 l 1
 123 153 l 1
 165 108 l 1
 367 109 l 1
426 108 m 1
 488 108 l 1
 488 50 l 1
 152 50 l 2
 142 50 134 56 131 59 c 2
 73 121 l 2
 66 128 64 138 64 142 c 2
 64 202 l 2
 64 212 70 220 73 223 c 2
 132 284 l 2
 139 291 148 293 153 293 c 2
 367 292 l 1
 366 373 l 1
 326 415 l 1
 123 415 l 1
 122 474 l 1
 338 474 l 2
 348 474 356 468 359 465 c 2
 418 405 l 2
 425 398 427 390 427 385 c 2
 426 108 l 1
EndSplineSet
EndChar

StartChar: b
Encoding: 126 98 129
Width: 536
VWidth: 0
Flags: HW
HStem: 52 57<122 262> 416 59<122 266> 639 20G<62 122>
VStem: 62 60<109 416 475 659> 368 59<213 312>
LayerCount: 2
Back
Fore
SplineSet
62 52 m 1
 62 659 l 1
 122 659 l 1
 122 475 l 1
 278 475 l 2
 288 475 296 469 299 466 c 2
 418 345 l 2
 425 338 427 329 427 324 c 2
 427 201 l 2
 427 191 421 183 418 180 c 2
 295 59 l 2
 288 52 278 51 274 51 c 2
 62 52 l 1
122 109 m 1
 262 109 l 1
 368 213 l 1
 368 312 l 1
 266 416 l 1
 122 416 l 1
 122 109 l 1
EndSplineSet
EndChar

StartChar: c
Encoding: 127 99 130
Width: 536
VWidth: 0
Flags: HW
HStem: 51 59<226.87 427.179> 416 59<223.665 427.246>
VStem: 62 59<213.444 312.188>
LayerCount: 2
Back
Fore
SplineSet
427 475 m 1
 427 416 l 1
 224 416 l 1
 121 312 l 1
 121 213 l 1
 227 109 l 1
 427 109 l 1
 427 50 l 1
 215 51 l 2
 211 51 201 52 194 59 c 2
 71 180 l 2
 68 183 62 191 62 201 c 2
 62 324 l 2
 62 329 64 338 71 345 c 2
 191 466 l 2
 194 469 201 475 211 475 c 2
 427 475 l 1
EndSplineSet
EndChar

StartChar: d
Encoding: 128 100 131
Width: 536
VWidth: 0
Flags: HW
HStem: 51 58<227 367> 416 59<224 367> 639 20G<367 427>
VStem: 62 59<213 312> 367 60<109 416 475 659>
LayerCount: 2
Back
Fore
SplineSet
427 52 m 1
 215 51 l 2
 211 51 201 52 194 59 c 2
 71 180 l 2
 68 183 62 191 62 201 c 2
 62 324 l 2
 62 329 64 338 71 345 c 2
 191 466 l 2
 194 469 201 475 211 475 c 2
 367 475 l 1
 367 659 l 1
 427 659 l 1
 427 52 l 1
367 109 m 1
 367 416 l 1
 224 416 l 1
 121 312 l 1
 121 213 l 1
 227 109 l 1
 367 109 l 1
EndSplineSet
EndChar

StartChar: e
Encoding: 129 101 132
Width: 536
VWidth: 0
Flags: HW
HStem: 51 58<163 428> 231 62<120 368> 415 59<165 325>
VStem: 61 59<152 231 293 372> 368 59<293 373>
LayerCount: 2
Back
Fore
SplineSet
120 231 m 1
 119 152 l 1
 163 109 l 1
 428 107 l 1
 428 49 l 1
 151 51 l 2
 142 51 134 56 131 59 c 2
 69 119 l 2
 62 126 61 135 61 140 c 2
 63 384 l 2
 63 394 68 401 71 404 c 2
 132 467 l 2
 139 474 149 476 154 476 c 2
 337 474 l 2
 347 474 355 468 358 465 c 2
 417 405 l 2
 424 398 426 390 426 385 c 2
 427 233 l 1
 120 231 l 1
120 293 m 1
 368 293 l 1
 367 373 l 1
 325 415 l 1
 165 417 l 1
 121 372 l 1
 120 293 l 1
EndSplineSet
EndChar

StartChar: f
Encoding: 130 102 133
Width: 536
VWidth: 0
Flags: HW
HStem: 49 21G<183 243.077> 415 61<61.0752 184.405 244.639 365.846> 599 60<284.73 427>
VStem: 185 60<49.1152 414.923 476 557.827>
LayerCount: 2
Back
Fore
SplineSet
285 599 m 1
 245 558 l 1
 245 476 l 1
 366 476 l 1
 366 415 l 1
 244 415 l 1
 243 49 l 1
 183 49 l 1
 184 415 l 1
 61 415 l 1
 61 476 l 1
 185 476 l 1
 185 570 l 2
 185 578 187 585 193 591 c 2
 250 650 l 2
 256 656 263 659 272 659 c 2
 427 659 l 1
 427 599 l 1
 285 599 l 1
EndSplineSet
EndChar

StartChar: g
Encoding: 131 103 134
Width: 536
VWidth: 0
Flags: HW
HStem: -72 60<226 387> 109 60<226 322> 171 60<407 429> 417 60<226 384>
VStem: 62 60<272 313> 429 60<30 171 231 375>
LayerCount: 2
Back
Fore
SplineSet
429 231 m 1
 429 375 l 1
 384 417 l 1
 226 415 l 1
 122 313 l 1
 122 272 l 1
 226 169 l 1
 322 171 l 1
 373 222 l 2
 379 228 386 231 394 231 c 2
 429 231 l 1
429 171 m 1
 407 171 l 1
 356 120 l 2
 351 114 344 111 335 111 c 2
 214 109 l 2
 206 109 199 112 193 118 c 2
 71 238 l 2
 65 244 62 251 62 259 c 2
 62 326 l 2
 62 335 65 342 71 347 c 2
 193 466 l 2
 199 472 206 475 214 475 c 2
 396 477 l 2
 404 477 411 474 417 469 c 2
 480 410 l 2
 486 404 489 397 489 388 c 2
 488 18 l 2
 488 10 485 3 480 -3 c 2
 422 -63 l 2
 416 -69 409 -72 400 -72 c 2
 214 -72 l 2
 206 -72 199 -69 193 -63 c 2
 132 -3 l 1
 174 39 l 1
 226 -12 l 1
 387 -12 l 1
 428 30 l 1
 429 171 l 1
EndSplineSet
EndChar

StartChar: h
Encoding: 132 104 135
Width: 536
VWidth: 0
Flags: HW
HStem: 48 21G<366 426> 416 60<224 321>
VStem: 59 60<50 315 398 666> 366 60<48 372>
LayerCount: 2
Back
Fore
SplineSet
60 50 m 1
 59 666 l 1
 119 666 l 1
 119 398 l 1
 191 468 l 2
 197 473 204 476 212 476 c 2
 333 475 l 2
 341 475 348 472 354 467 c 2
 417 407 l 2
 423 401 426 394 426 385 c 2
 426 48 l 1
 366 48 l 1
 366 372 l 1
 321 415 l 1
 224 416 l 1
 119 315 l 1
 120 50 l 1
 60 50 l 1
EndSplineSet
EndChar

StartChar: i
Encoding: 133 105 136
Width: 536
VWidth: 0
Flags: HW
HStem: 49 21G<244 305> 456 20G<244 305> 598 61<244 305>
VStem: 244 61<49 476 598 659>
LayerCount: 2
Back
Fore
SplineSet
244 659 m 1
 305 659 l 1
 305 598 l 1
 244 598 l 1
 244 659 l 1
244 476 m 1
 305 476 l 1
 305 49 l 1
 244 49 l 1
 244 476 l 1
EndSplineSet
EndChar

StartChar: j
Encoding: 134 106 137
Width: 536
VWidth: 0
Flags: HW
HStem: -73 60<224.672 323.528> 456 20G<366.956 427> 598 61<366 428>
VStem: 366 62<29.3086 475.935 598 659>
LayerCount: 2
Back
Fore
SplineSet
426 17 m 2
 426 9 423 2 417 -4 c 2
 357 -65 l 2
 351 -71 345 -74 336 -74 c 2
 212 -73 l 2
 204 -73 197 -70 191 -64 c 2
 131 -3 l 1
 173 39 l 1
 225 -13 l 1
 324 -14 l 1
 366 29 l 1
 367 476 l 1
 427 476 l 1
 426 17 l 2
366 659 m 1
 428 659 l 1
 428 598 l 1
 366 598 l 1
 366 659 l 1
EndSplineSet
EndChar

StartChar: k
Encoding: 135 107 138
Width: 536
VWidth: 0
Flags: HW
HStem: 49 21G<122 184> 233 60<184 205> 456 20G<366.328 406> 639 20G<122 184>
VStem: 122 62<49 233 293 659>
LayerCount: 2
Back
Fore
SplineSet
259 262 m 1
 425 91 l 1
 382 50 l 1
 205 233 l 1
 184 233 l 1
 184 49 l 1
 122 49 l 1
 122 659 l 1
 184 659 l 1
 184 293 l 1
 206 293 l 1
 386 476 l 1
 428 434 l 1
 259 262 l 1
EndSplineSet
EndChar

StartChar: l
Encoding: 136 108 139
Width: 536
VWidth: 0
Flags: HW
HStem: 49 60<317 366> 639 20G<244 304>
VStem: 244 60<123 659>
LayerCount: 2
Back
Fore
SplineSet
304 123 m 1
 317 109 l 1
 366 109 l 1
 366 49 l 1
 305 49 l 2
 297 49 290 52 284 58 c 2
 253 89 l 2
 247 95 244 102 244 110 c 2
 244 659 l 1
 304 659 l 1
 304 123 l 1
EndSplineSet
EndChar

StartChar: m
Encoding: 137 109 140
Width: 536
VWidth: 0
Flags: HW
HStem: 49 21G<62 122 244 305 427 487> 415 60<166 203 346 386>
VStem: 62 60<49 372 458 475> 244 61<49 373> 427 60<49 374>
CounterMasks: 1 38
LayerCount: 2
Back
Fore
SplineSet
305 373 m 1
 305 49 l 1
 244 49 l 1
 244 373 l 1
 203 416 l 1
 166 416 l 1
 122 372 l 1
 122 49 l 1
 62 49 l 1
 62 475 l 1
 123 475 l 1
 123 458 l 1
 132 467 l 2
 138 473 145 476 153 476 c 2
 216 476 l 2
 225 476 232 473 238 467 c 2
 274 428 l 1
 312 466 l 2
 318 472 325 475 333 475 c 2
 398 475 l 2
 406 475 413 472 419 466 c 2
 478 407 l 2
 484 401 487 394 487 386 c 2
 487 49 l 1
 427 49 l 1
 427 374 l 1
 386 415 l 1
 346 415 l 1
 305 373 l 1
EndSplineSet
EndChar

StartChar: n
Encoding: 138 110 141
Width: 536
VWidth: 0
Flags: HW
HStem: 417 58<62 111 227 388>
VStem: 125 59<50 373> 431 58<51 376>
LayerCount: 2
Back
Fore
SplineSet
170 442 m 1
 194 466 l 2
 197 469 205 475 215 475 c 2
 400 475 l 2
 405 475 413 474 420 467 c 2
 479 409 l 2
 482 406 488 398 488 388 c 2
 489 51 l 1
 431 50 l 1
 429 376 l 1
 388 417 l 1
 227 417 l 1
 185 373 l 1
 184 50 l 1
 125 50 l 1
 126 385 l 2
 126 388 127 392 129 397 c 1
 111 417 l 1
 62 417 l 1
 62 476 l 1
 123 476 l 2
 133 476 141 471 144 467 c 2
 170 442 l 1
EndSplineSet
EndChar

StartChar: o
Encoding: 139 111 142
Width: 536
VWidth: 0
Flags: HW
HStem: 53 58<164 325> 418 59<164 326>
VStem: 61 58<152 374> 365 59<152 374>
LayerCount: 2
Back
Fore
SplineSet
121 374 m 1
 119 152 l 1
 164 111 l 1
 325 110 l 1
 365 152 l 1
 366 374 l 1
 326 418 l 1
 164 418 l 1
 121 374 l 1
71 407 m 2
 132 468 l 2
 139 475 148 477 152 477 c 2
 339 477 l 2
 349 477 357 471 361 467 c 2
 417 404 l 2
 423 398 425 390 425 385 c 2
 424 140 l 2
 424 130 419 122 416 119 c 2
 358 60 l 2
 351 52 342 51 337 51 c 2
 152 53 l 2
 143 53 136 57 132 60 c 2
 70 118 l 2
 62 125 61 134 61 140 c 2
 63 387 l 2
 63 397 68 404 71 407 c 2
EndSplineSet
EndChar

StartChar: p
Encoding: 140 112 143
Width: 536
VWidth: 0
Flags: HW
HStem: -134 21G<61 121> 50 59<121 264> 416 57<121 261>
VStem: 61 60<-134 50 109 416> 367 59<213 312>
LayerCount: 2
Back
Fore
SplineSet
61 473 m 1
 273 474 l 2
 277 474 287 473 294 466 c 2
 417 345 l 2
 420 342 426 334 426 324 c 2
 426 201 l 2
 426 196 424 187 417 180 c 2
 297 59 l 2
 294 56 287 50 277 50 c 2
 121 50 l 1
 121 -134 l 1
 61 -134 l 1
 61 473 l 1
121 416 m 1
 121 109 l 1
 264 109 l 1
 367 213 l 1
 367 312 l 1
 261 416 l 1
 121 416 l 1
EndSplineSet
EndChar

StartChar: q
Encoding: 141 113 144
Width: 536
VWidth: 0
Flags: HW
HStem: -72 62<426 487> 109 59<223 366> 416 58<226 366>
VStem: 61 59<272 312> 365 122<-72 -10> 366 60<-10 109 168 416>
LayerCount: 2
Back
Fore
SplineSet
426 473 m 1
 426 -10 l 1
 487 -10 l 1
 487 -72 l 1
 365 -73 l 1
 366 109 l 1
 210 109 l 2
 200 109 193 115 190 118 c 2
 70 239 l 2
 63 246 61 255 61 260 c 2
 61 324 l 2
 61 334 67 342 70 345 c 2
 193 466 l 2
 200 473 210 474 214 474 c 2
 426 473 l 1
366 416 m 1
 226 416 l 1
 120 312 l 1
 120 272 l 1
 223 168 l 1
 366 168 l 1
 366 416 l 1
EndSplineSet
EndChar

StartChar: r
Encoding: 142 114 145
Width: 536
VWidth: 0
Flags: HW
HStem: 49 21G<122.06 182> 415 60<62 113.673 285 384>
VStem: 122 60<50 313> 429 60<354 372>
LayerCount: 2
Back
Fore
SplineSet
182 313 m 1
 182 50 l 1
 122 49 l 1
 123 384 l 2
 123 393 120 399 114 406 c 1
 107 412 101 415 91 415 c 2
 62 415 l 1
 61 475 l 1
 122 476 l 2
 139 476 181 446 182 414 c 1
 182 396 l 1
 251 466 l 2
 257 472 264 475 272 475 c 2
 396 476 l 2
 405 476 412 473 417 467 c 2
 480 406 l 2
 486 400 489 393 489 384 c 2
 489 354 l 1
 429 354 l 1
 429 372 l 1
 384 415 l 1
 285 415 l 1
 182 313 l 1
EndSplineSet
EndChar

StartChar: s
Encoding: 143 115 146
Width: 536
VWidth: 0
Flags: HW
HStem: 50 60<165.208 323.782> 416 60<164.857 321.716>
VStem: 366 60<353 372.431>
LayerCount: 2
Back
Fore
SplineSet
366 372 m 1
 322 416 l 1
 165 416 l 1
 136 386 l 1
 418 165 l 2
 425 159 429 152 429 143 c 0
 429 134 426 126 420 120 c 2
 357 58 l 2
 351 52 344 49 336 49 c 2
 153 50 l 2
 145 50 138 52 132 58 c 2
 70 118 l 2
 64 124 61 131 61 140 c 2
 61 168 l 1
 121 168 l 1
 121 153 l 1
 165 110 l 1
 324 109 l 1
 354 139 l 1
 73 359 l 2
 66 364 63 372 62 381 c 0
 61 390 64 398 70 404 c 2
 130 467 l 2
 136 473 143 476 152 476 c 2
 334 476 l 2
 342 476 349 473 355 467 c 2
 417 406 l 2
 423 400 426 393 426 385 c 2
 426 353 l 1
 366 353 l 1
 366 372 l 1
EndSplineSet
EndChar

StartChar: t
Encoding: 144 116 147
Width: 536
VWidth: 0
Flags: HW
HStem: 49 60<317 366> 415 61<121 244 304 427> 639 20G<244 304>
VStem: 244 60<123 415 476 659>
LayerCount: 2
Back
Fore
SplineSet
304 123 m 1
 317 109 l 1
 366 109 l 1
 366 49 l 1
 305 49 l 2
 297 49 290 52 284 58 c 2
 253 89 l 2
 247 95 244 102 244 110 c 2
 244 415 l 1
 121 415 l 1
 121 476 l 1
 244 476 l 1
 244 659 l 1
 304 659 l 1
 304 476 l 1
 427 476 l 1
 427 415 l 1
 304 415 l 1
 304 123 l 1
EndSplineSet
EndChar

StartChar: u
Encoding: 145 117 148
Width: 536
VWidth: 0
Flags: HW
HStem: 51 58<163 324 440 489> 456 20G<62 120.123 366.938 426>
VStem: 63 59<150 475> 366 59<153 476>
LayerCount: 2
Back
Fore
SplineSet
381 84 m 1
 357 60 l 2
 354 57 346 51 336 51 c 2
 151 51 l 2
 146 51 138 52 131 59 c 2
 72 117 l 2
 69 120 63 128 63 138 c 2
 62 475 l 1
 120 476 l 1
 122 150 l 1
 163 109 l 1
 324 109 l 1
 366 153 l 1
 367 476 l 1
 426 476 l 1
 425 141 l 2
 425 138 424 134 422 129 c 1
 440 109 l 1
 489 109 l 1
 489 50 l 1
 428 50 l 2
 418 50 410 55 407 59 c 2
 381 84 l 1
EndSplineSet
EndChar

StartChar: v
Encoding: 146 118 149
Width: 536
VWidth: 0
Flags: HW
HStem: 455 20G<62 122 427 487>
VStem: 62 60<391.231 475> 427 60<394.278 475>
LayerCount: 2
Back
Fore
SplineSet
122 391 m 1
 273 137 l 1
 427 394 l 1
 427 475 l 1
 487 475 l 1
 487 386 l 2
 487 380 486 376 483 371 c 2
 299 63 l 2
 293 53 284 48 273 48 c 0
 262 48 253 53 247 63 c 2
 66 368 l 2
 63 373 62 377 62 383 c 2
 62 475 l 1
 122 475 l 1
 122 391 l 1
EndSplineSet
EndChar

StartChar: w
Encoding: 147 119 150
Width: 536
VWidth: 0
Flags: HW
HStem: 457 19G<61 121 429 489>
VStem: 61 60<151 476> 244 61<211 293> 429 60<154 477>
LayerCount: 2
Back
Fore
SplineSet
305 211 m 1
 395 122 l 1
 429 154 l 1
 429 477 l 1
 489 477 l 1
 489 141 l 2
 489 132 486 125 480 119 c 2
 416 58 l 2
 410 53 402 50 395 50 c 0
 388 50 380 53 374 59 c 2
 274 158 l 1
 173 56 l 2
 167 50 160 46 152 46 c 0
 144 46 137 50 131 56 c 2
 70 118 l 2
 64 124 61 131 61 139 c 2
 61 476 l 1
 121 476 l 1
 121 151 l 1
 152 120 l 1
 244 211 l 1
 244 293 l 1
 305 293 l 1
 305 211 l 1
EndSplineSet
EndChar

StartChar: x
Encoding: 148 120 151
Width: 536
VWidth: 0
Flags: HW
HStem: 48 21G<59.5 119.5 427.5 487.5> 456 20G<59.5 119.5 427.5 487.5>
VStem: 60 60<48.5 67.0254 457.975 475.5> 428 60<48.5 67.0254 457.975 475.5>
LayerCount: 2
Back
Fore
SplineSet
274 220 m 1
 120 67 l 1
 120 48 l 1
 60 48 l 1
 60 80 l 2
 60 88 62 95 68 101 c 2
 231 262 l 1
 68 424 l 2
 62 430 60 438 60 446 c 2
 60 476 l 1
 120 476 l 1
 120 458 l 1
 274 305 l 1
 428 458 l 1
 428 476 l 1
 488 476 l 1
 488 446 l 2
 488 438 485 430 479 424 c 2
 316 263 l 1
 479 101 l 2
 485 95 488 88 488 80 c 2
 488 48 l 1
 428 48 l 1
 428 67 l 1
 274 220 l 1
EndSplineSet
EndChar

StartChar: y
Encoding: 149 121 152
Width: 536
VWidth: 0
Flags: HW
HStem: 456 20G<62 122 366 426>
VStem: 62 60<274 476> 366 60<212 476>
LayerCount: 2
Back
Fore
SplineSet
232 78 m 1
 71 241 l 2
 65 247 62 254 62 262 c 2
 62 476 l 1
 122 476 l 1
 122 274 l 1
 275 121 l 1
 366 212 l 1
 366 476 l 1
 426 476 l 1
 426 200 l 2
 426 192 423 185 417 179 c 2
 110 -128 l 1
 68 -86 l 1
 232 78 l 1
EndSplineSet
EndChar

StartChar: z
Encoding: 150 122 153
Width: 536
VWidth: 0
Flags: HW
HStem: 49 60<184 488> 415 61<61 366>
LayerCount: 2
Back
Fore
SplineSet
61 476 m 1
 488 476 l 1
 184 109 l 1
 488 109 l 1
 488 49 l 1
 61 49 l 1
 366 415 l 1
 61 415 l 1
 61 476 l 1
EndSplineSet
EndChar

StartChar: ae
Encoding: 151 230 154
Width: 536
VWidth: 0
Flags: HW
HStem: 49 60<165 202 348 487> 231 62<305 430> 294 60<227 245> 415 60<61 201 347 386>
VStem: 61 60<151 190> 245 60<153 231 293 294 354 372> 430 60<293 373>
LayerCount: 2
Back
Fore
SplineSet
245 294 m 1
 227 294 l 1
 121 190 l 1
 121 151 l 1
 165 109 l 1
 202 109 l 1
 245 153 l 1
 245 294 l 1
245 354 m 1
 245 372 l 1
 201 415 l 1
 61 415 l 1
 61 475 l 1
 213 475 l 2
 223 475 231 470 234 467 c 2
 274 428 l 1
 314 467 l 2
 317 470 325 475 335 475 c 2
 399 475 l 2
 403 475 413 474 420 467 c 2
 481 407 l 2
 485 403 490 395 490 385 c 2
 490 232 l 1
 305 231 l 1
 305 152 l 1
 348 109 l 1
 487 109 l 1
 487 49 l 1
 335 49 l 2
 330 49 321 51 314 58 c 2
 275 98 l 1
 236 58 l 2
 229 50 220 49 215 49 c 2
 153 49 l 2
 143 49 135 54 132 57 c 2
 70 117 l 2
 63 124 61 134 61 139 c 2
 61 203 l 2
 61 213 67 221 70 224 c 2
 194 345 l 2
 201 352 210 354 215 354 c 2
 245 354 l 1
305 293 m 1
 430 293 l 1
 430 373 l 1
 386 415 l 1
 347 415 l 1
 305 375 l 1
 305 293 l 1
EndSplineSet
EndChar

StartChar: oslash
Encoding: 152 248 155
Width: 536
VWidth: 0
Flags: HW
HStem: 52 60<224.48 324.624> 416 60<225.525 325.091>
VStem: 122 60<210.438 372.522> 366 60<152.33 311.271>
LayerCount: 2
Back
Fore
SplineSet
355 385 m 1
 325 417 l 1
 226 416 l 1
 182 373 l 1
 181 210 l 1
 355 385 l 1
367 311 m 1
 196 141 l 1
 224 112 l 1
 325 110 l 1
 366 152 l 1
 367 311 l 1
427 371 m 1
 426 140 l 2
 426 132 423 125 417 119 c 2
 358 59 l 2
 352 53 346 50 337 50 c 2
 212 52 l 2
 204 52 197 55 191 61 c 2
 153 98 l 1
 112 57 l 1
 70 99 l 1
 122 151 l 1
 122 385 l 2
 122 393 125 400 131 406 c 2
 192 467 l 2
 198 473 205 476 213 476 c 2
 338 477 l 2
 347 477 354 474 360 468 c 2
 398 427 l 1
 439 468 l 1
 481 426 l 1
 427 371 l 1
EndSplineSet
EndChar

StartChar: division
Encoding: 154 -1 157
Width: 536
VWidth: 0
Flags: HW
HStem: 79 122<214 336> 293 61<61 488> 445 122<214 336>
VStem: 214 122<79 201 445 567>
LayerCount: 2
Back
Fore
SplineSet
214 567 m 1
 336 567 l 1
 336 445 l 1
 214 445 l 1
 214 567 l 1
61 354 m 1
 488 354 l 1
 488 293 l 1
 61 293 l 1
 61 354 l 1
214 201 m 1
 336 201 l 1
 336 79 l 1
 214 79 l 1
 214 201 l 1
EndSplineSet
EndChar

StartChar: fm
Encoding: 155 -1 158
Width: 536
VWidth: 0
Flags: HW
HStem: 354 122<244 366> 537 122<61 488>
VStem: 244 122<354 476>
LayerCount: 2
Back
Fore
SplineSet
61 659 m 1
 488 659 l 1
 488 537 l 1
 61 537 l 1
 61 659 l 1
244 476 m 1
 366 476 l 1
 366 354 l 1
 244 354 l 1
 244 476 l 1
244 231 m 1
 366 231 l 1
 343 79 271 10 122 -13 c 1
 244 231 l 1
EndSplineSet
EndChar

StartChar: dup
Encoding: 156 -1 159
Width: 536
VWidth: 0
Flags: HW
HStem: 49 21G<244 305> 457 20G<244 305> 537 122<61 488>
VStem: 244 61<49 233 293 477>
LayerCount: 2
Back
Fore
SplineSet
244 233 m 1
 305 233 l 1
 305 49 l 1
 244 49 l 1
 244 233 l 1
244 477 m 1
 305 477 l 1
 305 293 l 1
 244 293 l 1
 244 477 l 1
438 407 m 1
 481 365 l 1
 382 265 l 1
 483 161 l 1
 440 119 l 1
 297 265 l 1
 438 407 l 1
112 407 m 1
 253 265 l 1
 110 119 l 1
 68 161 l 1
 169 265 l 1
 70 365 l 1
 112 407 l 1
61 659 m 1
 488 659 l 1
 488 537 l 1
 61 537 l 1
 61 659 l 1
EndSplineSet
EndChar

StartChar: A
Encoding: 157 65 160
Width: 536
VWidth: 0
Flags: HW
HStem: 49 21G<60 120.328 427 487> 232 61<124 427> 577 20G<270 278>
VStem: 64 60<49 232 293 374> 427 60<49 232 293 373>
LayerCount: 2
Back
Fore
SplineSet
123 232 m 1
 120 49 l 1
 60 49 l 1
 64 387 l 2
 64 396 70 404 73 407 c 2
 253 588 l 2
 259 595 267 597 273 597 c 0
 283 597 291 593 296 588 c 2
 479 406 l 2
 486 399 487 390 487 385 c 2
 487 49 l 1
 427 49 l 1
 428 232 l 1
 123 232 l 1
124 293 m 1
 427 293 l 1
 427 373 l 1
 274 525 l 1
 124 374 l 1
 124 293 l 1
EndSplineSet
EndChar

StartChar: B
Encoding: 158 66 161
Width: 536
VWidth: 0
Flags: HW
HStem: 49 60<61 122 183 323> 293 61<183 323> 538 60<61 122 183 325>
VStem: 122 61<109 293 354 538>
CounterMasks: 1 e0
LayerCount: 2
Back
Fore
SplineSet
122 109 m 1
 122 538 l 1
 61 538 l 1
 61 598 l 1
 338 598 l 2
 348 598 356 592 360 589 c 2
 480 464 l 2
 486 458 488 451 488 444 c 0
 488 434 484 426 479 421 c 2
 378 324 l 1
 479 225 l 2
 485 219 488 211 488 205 c 0
 488 196 484 188 479 183 c 2
 357 58 l 2
 350 51 341 49 336 49 c 2
 61 49 l 1
 61 109 l 1
 122 109 l 1
324 293 m 1
 183 293 l 1
 183 109 l 1
 323 109 l 1
 416 203 l 1
 324 293 l 1
323 354 m 1
 416 444 l 1
 325 538 l 1
 183 538 l 1
 183 354 l 1
 323 354 l 1
EndSplineSet
EndChar

StartChar: C
Encoding: 159 67 162
Width: 536
VWidth: 0
Flags: HW
HStem: 50 60<287.384 384.25> 536 60<286.432 384.818>
VStem: 62 60<272.771 371.678>
LayerCount: 2
Back
Fore
SplineSet
480 527 m 1
 438 485 l 1
 385 537 l 1
 286 536 l 1
 120 372 l 1
 122 273 l 1
 287 110 l 1
 384 109 l 1
 436 164 l 1
 480 122 l 1
 419 58 l 2
 415 54 407 49 397 49 c 2
 275 50 l 2
 270 50 261 52 254 59 c 2
 71 239 l 2
 68 242 62 250 62 260 c 2
 60 384 l 2
 60 389 62 398 69 405 c 2
 253 587 l 2
 256 590 264 596 274 596 c 2
 397 597 l 2
 402 597 411 595 418 588 c 2
 480 527 l 1
EndSplineSet
EndChar

StartChar: D
Encoding: 160 68 163
Width: 536
VWidth: 0
Flags: HW
HStem: 49 60<61.4062 122.088 183.131 323.592> 538 60<61.406 122.088 183.043 324.065>
VStem: 122 61<109.629 537.704> 427 60<213.108 433.018>
LayerCount: 2
Back
Fore
SplineSet
183 110 m 1
 324 110 l 1
 427 213 l 1
 427 433 l 1
 324 537 l 1
 183 538 l 1
 183 110 l 1
122 538 m 1
 61 538 l 1
 61 598 l 1
 337 597 l 2
 347 597 355 591 358 588 c 2
 478 466 l 2
 485 459 487 450 487 445 c 2
 487 201 l 2
 487 191 481 182 478 179 c 2
 357 59 l 2
 350 52 341 50 336 50 c 2
 61 49 l 1
 61 109 l 1
 122 109 l 1
 122 538 l 1
EndSplineSet
EndChar

StartChar: E
Encoding: 161 69 164
Width: 536
VWidth: 0
Flags: HW
HStem: 49 60<122 488> 293 61<122 366> 537 61<122 488>
VStem: 61 61<109 293 354 537>
LayerCount: 2
Back
Fore
SplineSet
61 598 m 1
 488 598 l 1
 488 537 l 1
 122 537 l 1
 122 354 l 1
 366 354 l 1
 366 293 l 1
 122 293 l 1
 122 109 l 1
 488 109 l 1
 488 49 l 1
 61 49 l 1
 61 598 l 1
EndSplineSet
EndChar

StartChar: F
Encoding: 162 70 165
Width: 536
VWidth: 0
Flags: HW
HStem: 49 21G<61 122> 293 61<122 428> 537 61<122 488>
VStem: 61 61<49 293 354 537>
LayerCount: 2
Back
Fore
SplineSet
61 598 m 1
 488 598 l 1
 488 537 l 1
 122 537 l 1
 122 354 l 1
 428 354 l 1
 428 293 l 1
 122 293 l 1
 122 49 l 1
 61 49 l 1
 61 598 l 1
EndSplineSet
EndChar

StartChar: G
Encoding: 163 71 166
Width: 536
VWidth: 0
Flags: HW
HStem: 51 60<225 366> 232 61<244 366 426 489> 538 60<225 325>
VStem: 63 60<212 435> 366 59<111 232>
LayerCount: 2
Back
Fore
SplineSet
244 293 m 1
 489 293 l 1
 489 233 l 1
 426 232 l 1
 425 80 l 2
 425 69 416 51 395 51 c 2
 213 51 l 2
 208 51 199 52 192 59 c 2
 72 178 l 2
 69 181 63 189 63 199 c 2
 63 447 l 2
 63 452 64 461 71 468 c 2
 191 589 l 2
 194 593 202 598 212 598 c 2
 337 598 l 2
 342 598 352 596 359 589 c 2
 419 528 l 1
 376 486 l 1
 325 538 l 1
 225 538 l 1
 123 435 l 1
 123 212 l 1
 225 111 l 1
 366 111 l 1
 366 232 l 1
 244 231 l 1
 244 293 l 1
EndSplineSet
EndChar

StartChar: H
Encoding: 164 72 167
Width: 536
VWidth: 0
Flags: HW
HStem: 49 21G<61 122 428 488> 293 61<122 428> 578 20G<61 122 428 488>
VStem: 61 61<49 293 354 598> 428 60<49 293 354 598>
LayerCount: 2
Back
Fore
SplineSet
61 598 m 1
 122 598 l 1
 122 354 l 1
 428 354 l 1
 428 598 l 1
 488 598 l 1
 488 49 l 1
 428 49 l 1
 428 293 l 1
 122 293 l 1
 122 49 l 1
 61 49 l 1
 61 598 l 1
EndSplineSet
EndChar

StartChar: I
Encoding: 165 73 168
Width: 536
VWidth: 0
Flags: HW
HStem: 49 61<183.333 244.333 305.333 366> 537 61<183.667 244 305.333 366>
VStem: 183 183<48.6667 109 537 597.667>
LayerCount: 2
Back
Fore
SplineSet
184 598 m 1
 366 598 l 1
 366 537 l 1
 305 537 l 1
 305 109 l 1
 366 109 l 1
 366 48 l 1
 183 49 l 1
 183 110 l 1
 244 109 l 1
 244 537 l 1
 183 537 l 1
 184 598 l 1
EndSplineSet
EndChar

StartChar: J
Encoding: 166 74 169
Width: 536
VWidth: 0
Flags: HW
HStem: 50 60<164.13 263.28> 537 61<244.286 305 365 427.143>
VStem: 62 60<150.989 230.355> 305 60<153.135 537.143>
LayerCount: 2
Back
Fore
SplineSet
60 230 m 1
 120 232 l 1
 122 151 l 1
 164 110 l 1
 263 110 l 1
 305 153 l 1
 305 537 l 1
 244 537 l 1
 244 598 l 1
 427 598 l 1
 427 537 l 1
 365 537 l 1
 365 141 l 2
 365 137 364 127 357 120 c 2
 298 59 l 2
 294 55 286 50 276 50 c 2
 152 50 l 2
 148 50 138 51 131 58 c 2
 71 116 l 2
 68 119 62 127 62 137 c 2
 60 230 l 1
EndSplineSet
EndChar

StartChar: K
Encoding: 167 75 170
Width: 536
VWidth: 0
Flags: HW
HStem: 49 21G<60 123 428 488> 578 20G<60 123 427 487>
VStem: 60 63<49 187.845 274.155 598> 428 60<49 67.5732 578.402 597>
LayerCount: 2
Back
Fore
SplineSet
123 188 m 1
 123 49 l 1
 60 49 l 1
 60 598 l 1
 123 598 l 1
 123 274 l 1
 427 578 l 1
 427 597 l 1
 487 597 l 1
 487 566 l 2
 487 558 484 551 478 545 c 2
 257 323 l 1
 479 101 l 2
 485 95 488 88 488 80 c 2
 488 49 l 1
 428 49 l 1
 428 68 l 1
 215 281 l 1
 123 188 l 1
EndSplineSet
EndChar

StartChar: L
Encoding: 168 76 171
Width: 536
VWidth: 0
Flags: HW
HStem: 49 60<122 488> 578 20G<61 122>
VStem: 61 61<109 598>
LayerCount: 2
Back
Fore
SplineSet
61 598 m 1
 122 598 l 1
 122 109 l 1
 488 109 l 1
 488 49 l 1
 61 49 l 1
 61 598 l 1
EndSplineSet
EndChar

StartChar: M
Encoding: 169 77 172
Width: 536
VWidth: 0
Flags: HW
HStem: 49 21G<61 121> 578 20G<453.5 459>
VStem: 61 60<49 494> 244 61<294 370> 427 60<47 496>
LayerCount: 2
Back
Fore
SplineSet
305 370 m 1
 305 294 l 1
 244 294 l 1
 244 370 l 1
 121 494 l 1
 121 49 l 1
 61 49 l 1
 61 566 l 2
 61 579 68 589 80 594 c 0
 84 596 87 596 91 596 c 0
 98 596 106 593 112 587 c 2
 273 426 l 1
 436 589 l 2
 442 595 450 598 457 598 c 0
 461 598 464 598 468 596 c 0
 480 591 487 581 487 568 c 2
 487 47 l 1
 427 47 l 1
 427 496 l 1
 305 370 l 1
EndSplineSet
EndChar

StartChar: N
Encoding: 170 78 173
Width: 536
VWidth: 0
Flags: HW
HStem: 48 21G<61 122> 578 20G<61 142 428 488>
VStem: 61 61<49 508> 428 60<50 200 292 598>
LayerCount: 2
Back
Fore
SplineSet
61 49 m 1
 61 598 l 1
 122 598 l 1
 428 292 l 1
 428 598 l 1
 488 598 l 1
 488 50 l 1
 428 50 l 1
 428 200 l 1
 122 508 l 1
 122 48 l 1
 61 49 l 1
EndSplineSet
EndChar

StartChar: O
Encoding: 171 79 174
Width: 536
VWidth: 0
Flags: HW
HStem: 50 60<163.125 384.719> 538 60<164.122 385.235>
VStem: 62 60<149.664 494.236> 428 60<152.572 492.861>
LayerCount: 2
Back
Fore
SplineSet
124 494 m 1
 122 150 l 1
 163 110 l 1
 385 110 l 1
 428 153 l 1
 428 493 l 1
 385 537 l 1
 164 538 l 1
 124 494 l 1
72 526 m 2
 129 588 l 2
 136 596 145 598 151 598 c 2
 398 597 l 2
 408 597 417 592 420 588 c 2
 480 526 l 2
 487 519 488 510 488 505 c 2
 488 140 l 2
 488 130 483 122 479 119 c 2
 418 59 l 2
 411 52 402 50 397 50 c 2
 151 50 l 2
 141 50 133 55 130 58 c 2
 71 115 l 2
 64 122 62 132 62 137 c 2
 64 506 l 2
 64 515 68 522 72 526 c 2
EndSplineSet
EndChar

StartChar: P
Encoding: 172 80 175
Width: 536
VWidth: 0
Flags: HW
HStem: 48 21G<60 122> 231 62<122 324.372> 537 61<122 324.604>
VStem: 60 62<48 231.167 292.667 536.999> 428 60<398.087 437.233>
LayerCount: 2
Back
Fore
SplineSet
122 293 m 1
 324 293 l 1
 428 398 l 1
 427 437 l 1
 325 538 l 1
 122 537 l 1
 122 293 l 1
122 231 m 1
 122 48 l 1
 60 48 l 1
 60 598 l 1
 337 598 l 2
 345 598 352 595 358 589 c 2
 478 471 l 2
 484 465 487 458 487 450 c 2
 488 386 l 2
 488 378 485 371 479 365 c 2
 358 242 l 2
 352 236 345 233 337 233 c 2
 122 231 l 1
EndSplineSet
EndChar

StartChar: Q
Encoding: 173 81 176
Width: 536
VWidth: 0
Flags: HW
HStem: 52 60<226 274> 536 60<226 324>
VStem: 63 60<214 434> 245 60<175 232> 425 60<213 432>
LayerCount: 2
Back
Fore
SplineSet
380 83 m 1
 481 -26 l 1
 437 -66 l 1
 329 53 l 1
 214 52 l 2
 206 52 199 55 193 61 c 2
 72 180 l 2
 66 186 63 193 63 201 c 2
 64 446 l 2
 64 454 67 461 73 467 c 2
 192 587 l 2
 198 593 205 596 213 596 c 2
 337 596 l 2
 345 596 352 593 358 587 c 2
 478 465 l 2
 484 459 487 452 487 444 c 2
 485 200 l 2
 485 191 482 185 476 179 c 2
 380 83 l 1
337 124 m 1
 425 213 l 1
 427 432 l 1
 324 536 l 1
 226 536 l 1
 124 434 l 1
 123 214 l 1
 226 112 l 1
 274 112 l 1
 249 152 l 2
 246 157 245 161 245 167 c 2
 245 232 l 1
 305 232 l 1
 305 175 l 1
 337 124 l 1
EndSplineSet
EndChar

StartChar: R
Encoding: 174 82 177
Width: 536
VWidth: 0
Flags: HW
HStem: 49 21G<61 122 427 487> 294 60<121 200 286 386> 537 60<121 385>
VStem: 61 60<49 294 354 537> 428 60<49 67 396 494>
LayerCount: 2
Back
Fore
SplineSet
286 294 m 1
 478 100 l 2
 484 94 487 87 487 79 c 2
 487 49 l 1
 427 49 l 1
 427 67 l 1
 200 294 l 1
 121 294 l 1
 122 49 l 1
 61 49 l 1
 61 597 l 1
 397 597 l 2
 405 597 412 594 418 588 c 2
 479 528 l 2
 485 522 488 515 488 507 c 2
 488 384 l 2
 488 376 485 369 479 363 c 2
 420 303 l 2
 414 297 407 294 399 294 c 2
 286 294 l 1
121 354 m 1
 386 354 l 1
 428 396 l 1
 428 494 l 1
 385 537 l 1
 121 537 l 1
 121 354 l 1
EndSplineSet
EndChar

StartChar: S
Encoding: 175 83 178
Width: 536
VWidth: 0
Flags: HW
HStem: 48 60<165.376 386.78> 476 21G<429 489> 536 60<168.427 388.573>
VStem: 65 60<151.427 170.5 460.921 492.573> 427 60<152.694 184.079 476 495.573>
LayerCount: 2
Back
Fore
SplineSet
429 496 m 1
 389 536 l 1
 168 536 l 1
 125 493 l 1
 125 461 l 1
 474 225 l 2
 483 219 487 210 487 200 c 2
 487 141 l 2
 487 133 484 127 479 121 c 2
 422 59 l 2
 416 53 409 49 400 49 c 2
 153 48 l 2
 145 48 138 51 132 57 c 2
 71 118 l 2
 65 124 62 131 62 139 c 2
 62 170 l 1
 122 170 l 1
 122 151 l 1
 165 108 l 1
 387 109 l 1
 427 153 l 1
 427 184 l 1
 78 420 l 2
 69 426 65 435 65 445 c 2
 65 505 l 2
 65 513 68 520 74 526 c 2
 135 587 l 2
 141 593 148 596 156 596 c 2
 401 596 l 2
 409 596 416 593 422 587 c 2
 480 529 l 2
 486 523 489 516 489 508 c 2
 489 476 l 1
 429 476 l 1
 429 496 l 1
EndSplineSet
EndChar

StartChar: T
Encoding: 176 84 179
Width: 536
VWidth: 0
Flags: HW
HStem: 49 21G<244 305> 537 61<61 244 305 488>
VStem: 244 61<49 537>
LayerCount: 2
Back
Fore
SplineSet
61 598 m 1
 488 598 l 1
 488 537 l 1
 305 537 l 1
 305 49 l 1
 244 49 l 1
 244 537 l 1
 61 537 l 1
 61 598 l 1
EndSplineSet
EndChar

StartChar: U
Encoding: 177 85 180
Width: 536
VWidth: 0
Flags: HW
HStem: 50 60<163.859 386.311> 577 20G<61.3335 121.391 427.304 487.333>
VStem: 63 60<151.697 597.246> 427 60<153.19 597.956>
LayerCount: 2
Back
Fore
SplineSet
61 597 m 1
 121 597 l 1
 123 152 l 1
 164 110 l 1
 386 110 l 1
 427 153 l 1
 427 598 l 1
 487 598 l 1
 487 141 l 2
 487 137 486 128 479 121 c 2
 421 60 l 2
 417 56 409 50 399 50 c 2
 151 50 l 2
 146 50 137 52 130 59 c 2
 71 118 l 2
 68 121 63 129 63 139 c 2
 61 597 l 1
EndSplineSet
EndChar

StartChar: V
Encoding: 178 86 181
Width: 536
VWidth: 0
Flags: HW
HStem: 48 21G<266.5 279.5> 578 20G<59 119.471 428 488>
VStem: 61 60<513 596> 428 60<512 598>
LayerCount: 2
Back
Fore
SplineSet
121 513 m 1
 273 155 l 1
 428 512 l 1
 428 598 l 1
 488 598 l 1
 488 506 l 2
 488 502 487 498 486 494 c 2
 301 66 l 2
 296 55 286 48 273 48 c 0
 260 48 250 55 245 66 c 2
 63 495 l 2
 62 499 61 502 61 506 c 2
 59 596 l 1
 119 598 l 1
 121 513 l 1
EndSplineSet
EndChar

StartChar: W
Encoding: 179 87 182
Width: 536
VWidth: 0
Flags: HW
HStem: 48 21G<148 155.5 392.5 400> 577 20G<61 121.045 427 487>
VStem: 62 60<150 597> 244 60<213 352> 427 60<151 598>
LayerCount: 2
Back
Fore
SplineSet
273 157 m 1
 173 57 l 2
 167 51 159 48 152 48 c 0
 144 48 137 51 131 57 c 2
 71 117 l 2
 65 123 62 130 62 138 c 2
 61 597 l 1
 121 597 l 1
 122 150 l 1
 152 121 l 1
 244 213 l 1
 244 352 l 1
 304 352 l 1
 304 211 l 1
 396 121 l 1
 427 151 l 1
 427 598 l 1
 487 598 l 1
 487 138 l 2
 487 129 484 122 478 116 c 2
 417 57 l 2
 411 52 404 49 396 49 c 0
 389 49 381 52 375 58 c 2
 273 157 l 1
EndSplineSet
EndChar

StartChar: X
Encoding: 180 88 183
Width: 536
VWidth: 0
Flags: HW
HStem: 578 20G<62.9971 122.998 427.999 488>
VStem: 63 60<50 126.669 520.331 598.001> 428 60<50 126.669 520.331 598.001>
LayerCount: 2
Back
Fore
SplineSet
275 281 m 1
 123 127 l 1
 123 50 l 1
 63 50 l 1
 63 139 l 2
 63 147 66 154 72 160 c 2
 233 323 l 1
 72 487 l 2
 66 493 63 500 63 508 c 2
 63 598 l 1
 123 598 l 1
 123 520 l 1
 276 366 l 1
 428 520 l 1
 428 598 l 1
 488 598 l 1
 488 508 l 2
 488 500 485 493 479 487 c 2
 318 324 l 1
 479 160 l 2
 485 154 488 147 488 139 c 2
 488 50 l 1
 428 50 l 1
 428 127 l 1
 275 281 l 1
EndSplineSet
EndChar

StartChar: Y
Encoding: 181 89 184
Width: 536
VWidth: 0
Flags: HW
HStem: 49 21G<244.182 305.182> 578 20G<62.5 122.5 428.5 488.5>
VStem: 62 60<578.522 598> 244 61<48.7273 371> 428 60<579.854 598>
LayerCount: 2
Back
Fore
SplineSet
305 371 m 1
 305 49 l 1
 244 49 l 1
 244 371 l 1
 71 545 l 2
 65 551 62 558 62 566 c 2
 62 598 l 1
 122 598 l 1
 122 579 l 1
 276 426 l 1
 428 580 l 1
 428 598 l 1
 488 598 l 1
 488 568 l 2
 488 560 486 552 480 546 c 2
 305 371 l 1
EndSplineSet
EndChar

StartChar: Z
Encoding: 182 90 185
Width: 536
VWidth: 0
Flags: HW
HStem: 49 60<122 487.5> 537 61<61.25 427>
VStem: 62 60<109.5 128.573> 427 60<518.427 537>
LayerCount: 2
Back
Fore
SplineSet
487 506 m 2
 487 498 484 491 478 485 c 2
 122 129 l 1
 122 110 l 1
 488 110 l 1
 488 50 l 1
 62 49 l 1
 62 141 l 2
 62 149 65 156 71 162 c 2
 427 518 l 1
 427 537 l 1
 61 537 l 1
 61 598 l 1
 487 598 l 1
 487 506 l 2
EndSplineSet
EndChar

StartChar: AE
Encoding: 183 198 186
Width: 536
VWidth: 0
Flags: HW
HStem: 49 60<366 488> 231 62<122 305> 293 61<366 488> 537 61<366 488>
VStem: 60 62<49 231 293 374> 305 183<49 109 293 354> 305 61<109 231 354 537>
LayerCount: 2
Back
Fore
SplineSet
306 537 m 1
 122 374 l 1
 122 293 l 1
 305 293 l 1
 306 537 l 1
61 49 m 1
 61 121 60 191 60 256 c 0
 60 299 60 340 62 378 c 1
 62 406 74 420 94 438 c 2
 240 570 l 2
 256 584 266 593 280 598 c 1
 384 598 408 598 488 598 c 1
 488 537 l 1
 366 537 l 1
 366 354 l 1
 488 354 l 1
 488 293 l 1
 366 293 l 1
 366 109 l 1
 488 109 l 1
 488 49 l 1
 305 49 l 1
 305 231 l 1
 122 231 l 1
 122 49 l 1
 61 49 l 1
EndSplineSet
EndChar

StartChar: Ooblique
Encoding: 184 216 187
Width: 536
VWidth: 0
Flags: HW
HStem: 50 60<163.125 384.719> 538 60<164.122 385.235>
VStem: 62 60<216.75 494.236> 428 60<152.572 432.25>
LayerCount: 2
Back
Fore
SplineSet
428 432 m 1
 132 140 l 1
 163 110 l 1
 385 110 l 1
 428 153 l 1
 428 432 l 1
415 506 m 1
 385 537 l 1
 164 538 l 1
 124 494 l 1
 122 217 l 1
 415 506 l 1
72 526 m 2
 129 588 l 2
 136 596 145 598 151 598 c 2
 398 597 l 2
 408 597 417 592 420 588 c 2
 480 526 l 2
 487 519 488 510 488 505 c 2
 488 140 l 2
 488 130 483 122 479 119 c 2
 418 59 l 2
 411 52 402 50 397 50 c 2
 151 50 l 2
 141 50 133 55 130 58 c 2
 71 115 l 2
 64 122 62 132 62 137 c 2
 64 506 l 2
 64 515 68 522 72 526 c 2
EndSplineSet
EndChar

StartChar: semicolon
Encoding: 187 59 190
Width: 536
VWidth: 0
Flags: HW
HStem: 293 122<244 366>
VStem: 244 122<107.091 170.727 293 415>
LayerCount: 2
Back
Fore
SplineSet
366 83 m 2
 366 78 365 73 364 68 c 0
 363 64 360 60 358 56 c 0
 356 52 353 47 350 44 c 2
 234 -71 l 1
 151 8 l 1
 244 107 l 1
 244 171 l 1
 365 171 l 1
 366 83 l 2
244 415 m 1
 366 415 l 1
 366 293 l 1
 244 293 l 1
 244 415 l 1
EndSplineSet
EndChar

StartChar: asterisk
Encoding: 188 42 191
Width: 536
VWidth: 0
Flags: HW
HStem: 578 20G<244 305>
VStem: 244 61<170 354 414 598>
LayerCount: 2
Back
Fore
SplineSet
244 354 m 1
 305 354 l 1
 305 170 l 1
 244 170 l 1
 244 354 l 1
244 598 m 1
 305 598 l 1
 305 414 l 1
 244 414 l 1
 244 598 l 1
438 528 m 1
 481 486 l 1
 382 386 l 1
 483 282 l 1
 440 240 l 1
 297 386 l 1
 438 528 l 1
112 528 m 1
 253 386 l 1
 110 240 l 1
 68 282 l 1
 169 386 l 1
 70 486 l 1
 112 528 l 1
EndSplineSet
EndChar

StartChar: copyright
Encoding: 205 169 208
Width: 536
VWidth: 0
Flags: HW
HStem: 50 60<196.558 354.907> 171 60<286.143 365.6> 415 60<285.802 366> 538 60<197.889 354.713>
VStem: 65 60<182.295 464.369> 184 60<274.312 372.148> 427 60<182.426 463.766>
LayerCount: 2
Back
Fore
SplineSet
366 475 m 1
 366 415 l 1
 286 415 l 1
 244 372 l 1
 244 274 l 1
 286 231 l 1
 366 231 l 1
 366 171 l 1
 274 171 l 2
 269 171 259 173 252 180 c 2
 192 241 l 2
 189 244 184 252 184 262 c 2
 184 384 l 2
 184 389 185 398 192 405 c 2
 252 466 l 2
 255 470 263 475 273 475 c 2
 366 475 l 1
74 498 m 2
 164 589 l 2
 171 596 180 598 185 598 c 2
 367 598 l 2
 377 598 386 593 389 589 c 2
 479 497 l 2
 486 490 487 481 487 476 c 2
 487 170 l 2
 487 160 482 152 479 149 c 2
 389 59 l 2
 382 52 372 50 367 50 c 2
 184 50 l 2
 174 50 166 56 163 59 c 2
 74 149 l 2
 67 156 65 165 65 170 c 2
 65 477 l 2
 65 487 71 495 74 498 c 2
125 464 m 1
 125 182 l 1
 197 110 l 1
 355 110 l 1
 427 182 l 1
 427 464 l 1
 355 538 l 1
 198 538 l 1
 125 464 l 1
EndSplineSet
EndChar

StartChar: registered
Encoding: 206 174 209
Width: 536
VWidth: 0
Flags: HW
HStem: 50 60<197 355> 293 60<243 269> 415 61<243 293> 538 60<198 355>
VStem: 65 60<182 464> 183 60<170 293 353 415> 305 60<171 226 367 402> 427 60<182 464>
LayerCount: 2
Back
Fore
SplineSet
74 498 m 2
 164 589 l 2
 171 596 180 598 185 598 c 2
 367 598 l 2
 377 598 385 593 389 589 c 2
 479 497 l 2
 486 490 487 481 487 476 c 2
 487 170 l 2
 487 160 482 152 479 149 c 2
 389 59 l 2
 381 52 372 50 367 50 c 2
 184 50 l 2
 174 50 166 55 163 59 c 2
 74 149 l 2
 67 156 65 165 65 170 c 2
 65 477 l 2
 65 487 71 494 74 498 c 2
125 464 m 1
 125 182 l 1
 197 110 l 1
 355 110 l 1
 427 182 l 1
 427 464 l 1
 355 538 l 1
 198 538 l 1
 125 464 l 1
183 476 m 1
 305 475 l 2
 315 475 323 470 326 467 c 2
 358 437 l 2
 365 430 367 421 367 415 c 2
 367 354 l 2
 367 344 362 336 358 332 c 2
 331 306 l 1
 362 247 l 2
 363 244 365 239 365 233 c 2
 365 171 l 1
 305 171 l 1
 305 226 l 1
 269 293 l 1
 243 293 l 1
 243 170 l 1
 183 170 l 1
 183 476 l 1
243 415 m 1
 243 353 l 1
 293 353 l 1
 307 367 l 1
 307 402 l 1
 293 415 l 1
 243 415 l 1
EndSplineSet
EndChar

StartChar: boxA
Encoding: 207 -1 210
Width: 536
VWidth: 0
Flags: HW
HStem: -13 62<61 488> 171 60<61 488> 415 60<61 244>
VStem: 0 61<49 171 293 415 475 556> 244 60<293 415 475 555> 488 61<49 171>
LayerCount: 2
Back
Fore
SplineSet
0 231 m 1
 549 231 l 1
 549 -13 l 1
 0 -13 l 1
 0 231 l 1
61 171 m 1
 61 49 l 1
 488 49 l 1
 488 171 l 1
 61 171 l 1
60 293 m 1
 0 293 l 1
 2 569 l 2
 2 579 8 587 11 590 c 2
 133 710 l 2
 139 716 146 718 152 718 c 0
 162 718 170 714 175 709 c 2
 296 588 l 2
 303 581 304 572 304 567 c 2
 304 293 l 1
 244 293 l 1
 244 415 l 1
 61 415 l 1
 60 293 l 1
61 475 m 1
 244 475 l 1
 244 555 l 1
 153 646 l 1
 62 556 l 1
 61 475 l 1
EndSplineSet
EndChar

StartChar: insert
Encoding: 208 -1 211
Width: 536
VWidth: 0
Flags: HW
HStem: 456 20G<253.073 292.856>
LayerCount: 2
Back
Fore
SplineSet
0 18 m 1
 0 202 l 1
 273 476 l 1
 548 199 l 1
 547 18 l 1
 273 291 l 1
 0 18 l 1
EndSplineSet
EndChar

StartChar: boxB
Encoding: 209 -1 212
Width: 536
VWidth: 0
Flags: HW
HStem: -13 62<61 488> 171 60<61 488> 294 60<245 304.5 365.5 446.5> 476 59<365.5 444.217> 659 60<245.07 304.5 365.5 446.617>
VStem: 0 61<49 171> 304 61<354 476.5 535.5 658.718> 488 61<49 171 396.353 433.646 580.148 615.501>
LayerCount: 2
Back
Fore
SplineSet
0 231 m 1
 549 231 l 1
 549 -13 l 1
 0 -13 l 1
 0 231 l 1
61 171 m 1
 61 49 l 1
 488 49 l 1
 488 171 l 1
 61 171 l 1
245 659 m 1
 245 719 l 1
 459 718 l 2
 469 718 477 713 480 710 c 2
 541 649 l 2
 548 642 550 633 550 628 c 2
 550 568 l 2
 550 558 545 549 541 546 c 2
 501 508 l 1
 540 466 l 2
 547 459 548 450 548 446 c 2
 548 384 l 2
 548 374 543 366 540 363 c 2
 480 303 l 2
 473 296 464 294 459 294 c 2
 245 294 l 1
 245 354 l 1
 304 354 l 1
 304 659 l 1
 245 659 l 1
366 354 m 1
 446 354 l 1
 488 396 l 1
 488 434 l 1
 448 476 l 1
 366 476 l 1
 366 354 l 1
366 659 m 1
 366 536 l 1
 444 536 l 1
 490 580 l 1
 490 616 l 1
 447 659 l 1
 366 659 l 1
EndSplineSet
EndChar

StartChar: box6
Encoding: 210 -1 213
Width: 536
VWidth: 0
Flags: HW
HStem: -73 60<61 488> 48 60<226.854 325.21> 172 60<183.5 201.501> 233 60<286.999 323.288> 537 61<61 488>
VStem: 0 61<-13 537> 124 60<151.499 172 232 371.858> 368 60<152.566 189.858> 488 61<-13 537>
LayerCount: 2
Back
Fore
SplineSet
184 232 m 1
 202 232 l 1
 253 284 l 2
 256 287 264 293 274 293 c 2
 336 293 l 2
 341 293 349 291 356 284 c 2
 418 224 l 2
 422 221 428 212 428 202 c 2
 428 140 l 2
 428 136 426 127 419 120 c 2
 360 58 l 2
 356 54 348 48 338 48 c 2
 214 48 l 2
 209 48 200 50 193 57 c 2
 132 118 l 2
 129 121 124 129 124 139 c 2
 124 384 l 2
 124 389 125 398 132 405 c 2
 192 467 l 1
 236 426 l 1
 184 372 l 1
 184 232 l 1
184 172 m 1
 184 151 l 1
 227 108 l 1
 325 108 l 1
 368 153 l 1
 368 190 l 1
 323 233 l 1
 287 233 l 1
 235 181 l 2
 228 174 219 172 214 172 c 2
 184 172 l 1
61 537 m 1
 61 -13 l 1
 488 -13 l 1
 488 537 l 1
 61 537 l 1
0 598 m 1
 549 598 l 1
 549 -73 l 1
 0 -73 l 1
 0 598 l 1
EndSplineSet
EndChar

StartChar: plusminus
Encoding: 211 177 214
Width: 536
VWidth: 0
Flags: HW
HStem: 109 62<61 488> 415 61<61 244 305 488> 639 20G<244 305>
VStem: 244 61<231 415 476 659>
LayerCount: 2
Back
Fore
SplineSet
244 659 m 1
 305 659 l 1
 305 476 l 1
 488 476 l 1
 488 415 l 1
 305 415 l 1
 305 231 l 1
 244 231 l 1
 244 415 l 1
 61 415 l 1
 61 476 l 1
 244 476 l 1
 244 659 l 1
61 171 m 1
 488 171 l 1
 488 109 l 1
 61 109 l 1
 61 171 l 1
EndSplineSet
EndChar

StartChar: ETH
Encoding: 212 208 215
Width: 536
VWidth: 0
Flags: HW
HStem: 49 61<61 122 183 324> 298 54<62 122 183 306> 538 60<61 122 183 324>
VStem: 122 61<110 298 352 538> 427 60<213 433>
LayerCount: 2
Back
Fore
SplineSet
122 538 m 1
 61 538 l 1
 61 598 l 1
 337 597 l 2
 347 597 355 592 358 588 c 2
 478 466 l 2
 485 459 487 450 487 445 c 2
 487 201 l 2
 487 191 482 183 478 179 c 2
 357 59 l 2
 350 52 341 50 336 50 c 2
 61 49 l 1
 61 109 l 1
 122 109 l 1
 122 298 l 1
 62 298 l 1
 62 352 l 1
 122 352 l 1
 122 538 l 1
183 110 m 1
 324 110 l 1
 427 213 l 1
 427 433 l 1
 324 537 l 1
 183 538 l 1
 183 352 l 1
 306 352 l 1
 306 298 l 1
 183 298 l 1
 183 110 l 1
EndSplineSet
EndChar

StartChar: rightarrow
Encoding: 213 -1 216
Width: 536
VWidth: 0
Flags: HW
HStem: 293 61<0 305> 456 20G<305 328.66>
LayerCount: 2
Back
Fore
SplineSet
305 476 m 1
 486 323 l 1
 305 171 l 1
 305 293 l 1
 0 293 l 1
 0 354 l 1
 305 354 l 1
 305 476 l 1
EndSplineSet
EndChar

StartChar: THORN
Encoding: 214 222 217
Width: 536
VWidth: 0
Flags: HW
HStem: 141 60<120 323.399> 447 60<120 323.574> 577 20G<62 120>
VStem: 62 58<50 141.319 201.319 446.666 506.666 597> 427 60<305.712 342.907>
LayerCount: 2
Back
Fore
SplineSet
62 597 m 1
 120 597 l 1
 120 507 l 1
 336 507 l 2
 346 507 354 501 357 498 c 2
 479 377 l 2
 486 370 487 360 487 355 c 2
 487 293 l 2
 487 283 482 275 479 272 c 2
 357 150 l 2
 350 143 341 141 336 141 c 2
 120 141 l 1
 120 50 l 1
 62 50 l 1
 62 597 l 1
120 447 m 1
 120 201 l 1
 323 201 l 1
 427 306 l 1
 427 343 l 1
 324 447 l 1
 120 447 l 1
EndSplineSet
EndChar

StartChar: upshift
Encoding: 215 -1 218
Width: 536
VWidth: 0
Flags: HW
HStem: -11 60<241 306> 315 60<147 181 366 399>
VStem: 181 60<49 315> 306 60<49 315>
LayerCount: 2
Back
Fore
SplineSet
181 -11 m 1
 181 315 l 1
 25 315 l 1
 273 637 l 1
 520 315 l 1
 366 315 l 1
 366 -11 l 1
 181 -11 l 1
241 49 m 1
 306 49 l 1
 306 375 l 1
 399 375 l 1
 273 539 l 1
 147 375 l 1
 241 375 l 1
 241 49 l 1
EndSplineSet
EndChar

StartChar: human
Encoding: 216 -1 219
Width: 536
VWidth: 0
Flags: HW
HStem: 354 61<61 244 305 488> 602 60<246.461 303.491>
VStem: 184 60<537.191 599.507> 244 61<245.31 354 415 491.508> 306 60<537.023 599.477>
LayerCount: 2
Back
Fore
SplineSet
111 57 m 1
 73 104 l 1
 244 245 l 1
 244 354 l 1
 61 354 l 1
 61 415 l 1
 244 415 l 1
 244 481 l 1
 207 494 184 530 184 568 c 0
 184 621 227 662 275 662 c 0
 329 662 366 616 366 568 c 0
 366 526 339 493 304 481 c 1
 305 415 l 1
 488 415 l 1
 488 354 l 1
 305 354 l 1
 305 245 l 1
 478 101 l 1
 440 55 l 1
 274 193 l 1
 111 57 l 1
244 568 m 0
 244 550 258 536 275 536 c 0
 290 536 306 548 306 568 c 0
 306 586 292 602 275 602 c 0
 260 602 244 588 244 568 c 0
EndSplineSet
EndChar

StartChar: underB
Encoding: 217 -1 220
Width: 536
VWidth: 0
Flags: HW
HStem: 171 60<0 549> 294 60<124.43 183.93 244.93 325.93> 477 59<244.93 323.646> 659 60<124.5 183.93 244.93 326.047>
VStem: 184 61<354.282 476.782 535.782 659> 368 60<396.635 433.928 580.43 615.783>
LayerCount: 2
Back
Fore
SplineSet
124 659 m 1
 124 719 l 1
 338 719 l 2
 348 719 357 713 360 710 c 2
 421 650 l 2
 428 643 429 633 429 628 c 2
 429 568 l 2
 429 558 424 549 420 546 c 2
 381 508 l 1
 420 466 l 2
 427 459 428 450 428 446 c 2
 428 384 l 2
 428 374 422 366 419 363 c 2
 360 303 l 2
 353 296 343 294 338 294 c 2
 124 294 l 1
 124 354 l 1
 184 354 l 1
 184 659 l 1
 124 659 l 1
245 354 m 1
 326 354 l 1
 368 397 l 1
 368 434 l 1
 328 477 l 1
 245 477 l 1
 245 354 l 1
245 659 m 1
 245 536 l 1
 324 536 l 1
 369 580 l 1
 369 616 l 1
 326 659 l 1
 245 659 l 1
0 231 m 1
 549 231 l 1
 549 171 l 1
 0 171 l 1
 0 231 l 1
EndSplineSet
EndChar

StartChar: downshift
Encoding: 218 -1 221
Width: 536
VWidth: 0
Flags: HW
HStem: 272 60<148.941 183 368.505 400.818> 598 60<243.003 308.504>
VStem: 183 60<332 598.039> 309 60<332.166 598.123>
LayerCount: 2
Back
Fore
SplineSet
183 658 m 1
 369 658 l 1
 369 332 l 1
 523 332 l 1
 275 10 l 1
 27 332 l 1
 183 332 l 1
 183 658 l 1
243 598 m 1
 243 272 l 1
 149 272 l 1
 275 108 l 1
 401 272 l 1
 309 272 l 1
 309 598 l 1
 243 598 l 1
EndSplineSet
EndChar

StartChar: boxquestion
Encoding: 219 -1 222
Width: 536
VWidth: 0
Flags: HW
HStem: -73 60<61 488> 49 60<244 305> 538 60<226.283 324.785> 659 61<61 488>
VStem: 0 61<-13 659> 122 60<415 494.429> 245 60<49 109 171.5 250.645> 368 60<398.855 493.361> 488 61<-13 659>
LayerCount: 2
Back
Fore
SplineSet
182 415 m 1
 122 415 l 1
 122 507 l 2
 122 517 127 525 131 528 c 2
 193 589 l 2
 200 596 209 598 214 598 c 2
 338 598 l 2
 348 598 355 592 359 588 c 2
 419 526 l 2
 426 519 428 511 428 506 c 2
 428 386 l 2
 428 376 422 368 419 365 c 2
 305 251 l 1
 305 172 l 1
 245 172 l 1
 245 263 l 2
 245 268 247 277 254 284 c 2
 368 399 l 1
 368 493 l 1
 325 538 l 1
 226 538 l 1
 182 494 l 1
 182 415 l 1
244 109 m 1
 305 109 l 1
 305 49 l 1
 244 49 l 1
 244 109 l 1
61 659 m 1
 61 -13 l 1
 488 -13 l 1
 488 659 l 1
 61 659 l 1
0 720 m 1
 549 720 l 1
 549 -73 l 1
 0 -73 l 1
 0 720 l 1
EndSplineSet
EndChar

StartChar: boxsolid
Encoding: 220 -1 223
Width: 536
VWidth: 0
Flags: HW
VStem: 0 549<-73 720>
LayerCount: 2
Back
Fore
SplineSet
0 720 m 1
 549 720 l 1
 549 -73 l 1
 0 -73 l 1
 0 720 l 1
EndSplineSet
EndChar

StartChar: badcommhi
Encoding: 236 -1 240
Width: 536
VWidth: 0
Flags: HW
HStem: 293 62<0 149 391 549>
LayerCount: 2
Back
Fore
SplineSet
0 689 m 1
 336 355 l 1
 550 355 l 1
 549 294 l 1
 391 293 l 1
 550 140 l 1
 551 -43 l 1
 215 293 l 1
 0 293 l 1
 0 355 l 1
 149 355 l 1
 0 507 l 1
 0 689 l 1
EndSplineSet
EndChar

StartChar: commhi
Encoding: 237 -1 241
Width: 536
VWidth: 0
Flags: HW
HStem: 293 59<0 536>
LayerCount: 2
Back
Fore
SplineSet
0 352 m 1
 536 352 l 1
 536 293 l 1
 0 293 l 1
 0 352 l 1
EndSplineSet
EndChar

StartChar: commjag
Encoding: 238 -1 242
Width: 536
VWidth: 0
Flags: HW
HStem: 49 60<165.595 549.333> 295 60<0 264.405>
LayerCount: 2
Back
Fore
SplineSet
0 295 m 1
 0 355 l 1
 408 355 l 1
 166 109 l 1
 549 109 l 1
 549 49 l 1
 22 49 l 1
 264 295 l 1
 0 295 l 1
EndSplineSet
EndChar

StartChar: commlo
Encoding: 239 -1 243
Width: 536
VWidth: 0
Flags: HW
HStem: 48 62<0 548.667>
LayerCount: 2
Back
Fore
SplineSet
0 110 m 1
 549 110 l 1
 549 48 l 1
 0 48 l 1
 0 110 l 1
EndSplineSet
EndChar

StartChar: clockleft
Encoding: 240 -1 244
Width: 536
VWidth: 0
Flags: HW
HStem: -136 66<426.33 487.822> -75 66<243.905 305.962> 46 66<122.317 183.683> 230 66<60.3303 121.822> 414 66<122.028 183.972> 534 66<245.028 306.972> 594 66<425.028 486.972>
VStem: 58 66<232.178 293.67> 120 66<48.0382 110.095 416.028 477.972> 242 66<-72.6826 -11.3174 536.317 597.683> 424 66<-133.822 -72.3303 4 250 596.317 657.683>
LayerCount: 2
Back
Fore
SplineSet
423 627 m 0
 423 645 438 660 456 660 c 0
 474 660 489 645 489 627 c 0
 489 609 474 594 456 594 c 0
 438 594 423 609 423 627 c 0
243 567 m 0
 243 585 258 600 276 600 c 0
 294 600 309 585 309 567 c 0
 309 549 294 534 276 534 c 0
 258 534 243 549 243 567 c 0
120 447 m 0
 120 465 135 480 153 480 c 0
 171 480 186 465 186 447 c 0
 186 429 171 414 153 414 c 0
 135 414 120 429 120 447 c 0
58 262 m 0
 58 281 73 296 92 296 c 0
 110 296 124 281 124 262 c 0
 124 244 110 230 92 230 c 0
 73 230 58 244 58 262 c 0
120 80 m 0
 120 98 135 112 153 112 c 0
 171 112 186 98 186 80 c 0
 186 61 171 46 153 46 c 0
 135 46 120 61 120 80 c 0
242 -42 m 0
 242 -24 256 -9 274 -9 c 0
 293 -9 308 -24 308 -42 c 0
 308 -60 293 -75 274 -75 c 0
 256 -75 242 -60 242 -42 c 0
424 -104 m 0
 424 -85 439 -70 458 -70 c 0
 476 -70 490 -85 490 -104 c 0
 490 -122 476 -136 458 -136 c 0
 439 -136 424 -122 424 -104 c 0
536 385 m 1
 536 300 l 1
 488 250 l 1
 488 4 l 1
 428 4 l 1
 428 262 l 2
 428 267 429 276 436 284 c 2
 536 385 l 1
EndSplineSet
EndChar

StartChar: clockright
Encoding: 241 -1 245
Width: 536
VWidth: 0
Flags: HW
HStem: -14 66<123.503 185.497> 108 66<243.503 305.497> 291 66<303.503 365.497> 476 66<245.003 306.997> 594 66<122.003 183.997>
VStem: 122 66<-11.4965 50.4965 596.595 657.405> 242 66<110.003 171.997 478.095 538.905> 302 66<293.003 354.997>
LayerCount: 2
Back
Fore
SplineSet
120 627 m 0
 120 645 135 660 153 660 c 0
 171 660 186 645 186 627 c 0
 186 609 171 594 153 594 c 0
 135 594 120 609 120 627 c 0
243 508 m 0
 243 526 258 542 276 542 c 0
 294 542 309 526 309 508 c 0
 309 490 294 476 276 476 c 0
 258 476 243 490 243 508 c 0
302 324 m 0
 302 342 316 357 334 357 c 0
 352 357 368 342 368 324 c 0
 368 306 352 291 334 291 c 0
 316 291 302 306 302 324 c 0
242 141 m 0
 242 159 256 174 274 174 c 0
 292 174 308 159 308 141 c 0
 308 123 292 108 274 108 c 0
 256 108 242 123 242 141 c 0
122 20 m 0
 122 38 136 52 154 52 c 0
 172 52 188 38 188 20 c 0
 188 2 172 -14 154 -14 c 0
 136 -14 122 2 122 20 c 0
138 537 m 1
 180 495 l 1
 -0 311 l 1
 0 340 0 368 -0 397 c 1
 138 537 l 1
EndSplineSet
EndChar

StartChar: lock
Encoding: 242 -1 246
Width: 536
VWidth: 0
Flags: HW
LayerCount: 2
Back
Fore
SplineSet
547 754 m 1
 547 480 l 1
 424 356 l 1
 549 230 l 1
 548 -44 l 1
 287 219 l 1
 -1 -71 l 1
 -2 203 l 1
 150 356 l 1
 0 507 l 1
 0 780 l 1
 287 493 l 1
 547 754 l 1
EndSplineSet
EndChar

StartChar: leftarrow
Encoding: 244 -1 248
Width: 536
VWidth: 0
Flags: HW
HStem: 293 61<230 535> 456 20G<206.34 230>
LayerCount: 2
Back
Fore
SplineSet
230 476 m 1
 230 354 l 1
 535 354 l 1
 535 293 l 1
 230 293 l 1
 230 171 l 1
 49 323 l 1
 230 476 l 1
EndSplineSet
EndChar

StartChar: thorn
Encoding: 245 254 249
Width: 536
VWidth: 0
Flags: HW
HStem: 48 60<122 262.538> 414 60<122 264.037> 638 20G<60 122>
VStem: 60 62<-132 48.5 108.5 414 474 658> 367 60<213.39 310.61>
LayerCount: 2
Back
Fore
SplineSet
60 658 m 1
 122 658 l 1
 122 474 l 1
 276 474 l 2
 286 474 295 468 298 465 c 2
 418 344 l 2
 425 337 427 328 427 323 c 2
 427 201 l 2
 427 191 421 183 418 180 c 2
 296 57 l 2
 289 50 280 48 275 48 c 2
 122 48 l 1
 122 -132 l 1
 60 -132 l 1
 60 658 l 1
122 414 m 1
 122 108 l 1
 263 108 l 1
 367 213 l 1
 367 311 l 1
 264 414 l 1
 122 414 l 1
EndSplineSet
EndChar

StartChar: keyleft
Encoding: 246 -1 250
Width: 536
VWidth: 0
Flags: HW
HStem: 226 60<276.99 399.67> 354 61<492.925 536> 490 60<275.791 399.445>
VStem: 176 60<325.791 449.01> 440 96<354.722 412.994>
LayerCount: 2
Back
Fore
SplineSet
236 388 m 0
 236 333 280 286 338 286 c 0
 393 286 440 330 440 388 c 0
 440 443 396 490 338 490 c 0
 283 490 236 446 236 388 c 0
176 388 m 0
 176 480 251 550 338 550 c 0
 420 550 485 490 498 415 c 1
 536 415 l 1
 536 354 l 1
 496 354 l 1
 480 279 414 226 338 226 c 0
 246 226 176 301 176 388 c 0
EndSplineSet
EndChar

StartChar: keyright
Encoding: 247 -1 251
Width: 536
VWidth: 0
Flags: HW
HStem: 232 183<183.333 366> 354 61<0 183.333 366 427.333>
VStem: 183 183<232 354> 427 122<171.333 354.667>
LayerCount: 2
Back
Fore
SplineSet
0 415 m 1
 549 415 l 1
 549 171 l 1
 427 171 l 1
 427 355 l 1
 366 355 l 1
 366 232 l 1
 183 232 l 1
 183 354 l 1
 0 354 l 1
 0 415 l 1
EndSplineSet
EndChar

StartChar: box4
Encoding: 248 -1 252
Width: 536
VWidth: 0
Flags: HW
HStem: -74 61<59 488> 49 21G<307 367> 171 60<183 307 367 427> 455 20G<330.5 342.5> 538 58<59 488>
VStem: 0 59<-13 538> 123 60<231 249> 307 60<49 171 231 373> 488 59<-13 538>
LayerCount: 2
Back
Fore
SplineSet
367 231 m 1
 427 231 l 1
 427 171 l 1
 367 171 l 1
 367 49 l 1
 307 49 l 1
 307 171 l 1
 153 171 l 2
 142 171 123 180 123 201 c 2
 123 261 l 2
 123 266 125 275 132 283 c 2
 315 467 l 2
 316 467 324 475 337 475 c 0
 348 475 367 467 367 445 c 2
 367 231 l 1
307 231 m 1
 307 373 l 1
 183 249 l 1
 183 231 l 1
 307 231 l 1
59 538 m 1
 59 -13 l 1
 488 -13 l 1
 488 538 l 1
 59 538 l 1
0 596 m 1
 547 596 l 1
 547 -74 l 1
 0 -74 l 1
 0 596 l 1
EndSplineSet
EndChar

StartChar: underA
Encoding: 249 -1 253
Width: 536
VWidth: 0
Flags: HW
HStem: 172 58<0 544> 418 60<183 366>
VStem: 122 61<297 418 478 560> 366 60<296 418 478 558>
LayerCount: 2
Back
Fore
SplineSet
0 230 m 1
 544 230 l 1
 544 172 l 1
 0 172 l 1
 0 230 l 1
182 296 m 1
 122 297 l 1
 124 573 l 2
 124 583 130 590 133 594 c 2
 255 713 l 2
 261 719 268 721 275 721 c 0
 284 721 292 718 297 713 c 2
 418 592 l 2
 425 584 426 575 426 570 c 2
 426 296 l 1
 366 296 l 1
 366 418 l 1
 183 418 l 1
 182 296 l 1
183 478 m 1
 366 478 l 1
 366 558 l 1
 275 649 l 1
 184 560 l 1
 183 478 l 1
EndSplineSet
EndChar

StartChar: magcard
Encoding: 250 -1 254
Width: 536
VWidth: 0
Flags: HW
HStem: 108 66<60 492> 232 62<60 488> 474 64<60 488>
VStem: 0 60<174 232 294 474> 488 60<174 232 294 474>
LayerCount: 2
Back
Fore
SplineSet
60 232 m 1
 60 174 l 1
 492 174 l 1
 492 232 l 1
 60 232 l 1
60 474 m 1
 60 294 l 1
 488 294 l 1
 488 474 l 1
 60 474 l 1
0 538 m 1
 548 538 l 1
 548 108 l 1
 0 108 l 1
 0 538 l 1
EndSplineSet
EndChar

StartChar: boxhuman
Encoding: 251 -1 255
Width: 536
VWidth: 0
Flags: HW
HStem: -70 54<97.7893 447.961> 294 61<62 244 305 490> 542 60<246.461 303.491> 660 60<62 490>
VStem: 0 62<32.2826 294 355 660> 184 60<477.191 539.507> 244 61<185.31 294 355 431.508> 306 60<477.023 539.477> 490 58<26.9643 294 355 660>
LayerCount: 2
Back
Fore
SplineSet
244 508 m 0
 244 490 258 476 275 476 c 0
 290 476 306 488 306 508 c 0
 306 526 292 542 275 542 c 0
 260 542 244 528 244 508 c 0
0 720 m 1
 548 720 l 1
 548 -70 l 1
 0 -70 l 1
 0 720 l 1
490 27 m 1
 490 294 l 1
 305 294 l 1
 305 185 l 1
 490 27 l 1
490 355 m 1
 490 660 l 1
 62 660 l 1
 62 355 l 1
 244 355 l 1
 244 421 l 1
 207 434 184 470 184 508 c 0
 184 561 227 602 275 602 c 0
 329 602 366 556 366 508 c 0
 366 466 339 433 304 421 c 1
 305 355 l 1
 490 355 l 1
98 -16 m 1
 448 -16 l 1
 274 133 l 1
 98 -16 l 1
62 294 m 1
 62 32 l 1
 244 185 l 1
 244 294 l 1
 62 294 l 1
EndSplineSet
EndChar

StartChar: apl_bracketright
Encoding: 253 -1 257
Width: 536
VWidth: 0
Flags: HW
HStem: -13 62<184 305> 598 61<184 305>
VStem: 184 182<-13 49 598 659> 305 61<49 598>
LayerCount: 2
Back
Fore
SplineSet
184 659 m 1
 366 659 l 1
 366 -13 l 1
 184 -13 l 1
 184 49 l 1
 305 49 l 1
 305 598 l 1
 184 598 l 1
 184 659 l 1
EndSplineSet
EndChar

StartChar: apl_bracketleft
Encoding: 254 -1 258
Width: 536
VWidth: 0
Flags: HW
HStem: -13 62<244 366> 598 61<244 366>
VStem: 184 182<-13 49 598 659> 184 60<49 598>
LayerCount: 2
Back
Fore
SplineSet
184 659 m 1
 366 659 l 1
 366 598 l 1
 244 598 l 1
 244 49 l 1
 366 49 l 1
 366 -13 l 1
 184 -13 l 1
 184 659 l 1
EndSplineSet
EndChar

StartChar: apl_stile
Encoding: 255 -1 259
Width: 536
VWidth: 0
Flags: HW
VStem: 244 61<-195 781>
LayerCount: 2
Back
Fore
SplineSet
244 781 m 1
 305 781 l 1
 305 -195 l 1
 244 -195 l 1
 244 781 l 1
EndSplineSet
EndChar

StartChar: apl_2vertical
Encoding: 256 -1 260
Width: 536
VWidth: 0
Flags: HW
VStem: 92 60<-195 781> 396 62<-195 781>
LayerCount: 2
Back
Fore
SplineSet
396 781 m 1
 458 781 l 1
 458 -195 l 1
 396 -195 l 1
 396 781 l 1
92 781 m 1
 152 781 l 1
 152 -195 l 1
 92 -195 l 1
 92 781 l 1
EndSplineSet
EndChar

StartChar: apl_2horizontal
Encoding: 257 -1 261
Width: 536
VWidth: 0
Flags: HW
HStem: -104 61<0 549> 629 60<0 549>
LayerCount: 2
Back
Fore
SplineSet
0 -43 m 1
 549 -43 l 1
 549 -104 l 1
 0 -104 l 1
 0 -43 l 1
0 689 m 1
 549 689 l 1
 549 629 l 1
 0 629 l 1
 0 689 l 1
EndSplineSet
EndChar

StartChar: apl_leftvbar
Encoding: 258 -1 262
Width: 536
VWidth: 0
Flags: HW
VStem: 92 60<-195 781>
LayerCount: 2
Back
Fore
SplineSet
92 781 m 1
 152 781 l 1
 152 -195 l 1
 92 -195 l 1
 92 781 l 1
EndSplineSet
EndChar

StartChar: apl_rightvbar
Encoding: 259 -1 263
Width: 536
VWidth: 0
Flags: HW
VStem: 396 62<-195 781>
LayerCount: 2
Back
Fore
SplineSet
396 781 m 1
 458 781 l 1
 458 -195 l 1
 396 -195 l 1
 396 781 l 1
EndSplineSet
EndChar

StartChar: apl_midvbar
Encoding: 260 -1 264
Width: 536
VWidth: 0
Flags: HW
VStem: 244 61<-195 781>
LayerCount: 2
Back
Fore
SplineSet
244 781 m 1
 305 781 l 1
 305 -195 l 1
 244 -195 l 1
 244 781 l 1
EndSplineSet
EndChar

StartChar: apl_leftsolid
Encoding: 261 -1 265
Width: 536
VWidth: 0
Flags: HW
VStem: 0 274<-195 781>
LayerCount: 2
Back
Fore
SplineSet
0 781 m 1
 274 781 l 1
 274 -195 l 1
 0 -195 l 1
 0 781 l 1
EndSplineSet
EndChar

StartChar: apl_rightsolid
Encoding: 262 -1 266
Width: 536
VWidth: 0
Flags: HW
VStem: 274 275<-195 781>
LayerCount: 2
Back
Fore
SplineSet
274 781 m 1
 549 781 l 1
 549 -195 l 1
 274 -195 l 1
 274 781 l 1
EndSplineSet
EndChar

StartChar: apl_topsolid
Encoding: 263 -1 267
Width: 536
VWidth: 0
Flags: HW
HStem: 293 488<0 549>
VStem: 0 549<293 781>
LayerCount: 2
Back
Fore
SplineSet
0 781 m 1
 549 781 l 1
 549 293 l 1
 0 293 l 1
 0 781 l 1
EndSplineSet
EndChar

StartChar: apl_bottomsolid
Encoding: 264 -1 268
Width: 536
VWidth: 0
Flags: HW
HStem: -195 488<0 549>
VStem: 0 549<-195 293>
LayerCount: 2
Back
Fore
SplineSet
0 293 m 1
 549 293 l 1
 549 -195 l 1
 0 -195 l 1
 0 293 l 1
EndSplineSet
EndChar

StartChar: apl_solid
Encoding: 265 -1 269
Width: 536
VWidth: 0
Flags: HW
VStem: 0 549<-195 781>
LayerCount: 2
Back
Fore
SplineSet
0 781 m 1
 549 781 l 1
 549 -195 l 1
 0 -195 l 1
 0 781 l 1
EndSplineSet
EndChar

StartChar: apl_midhbar
Encoding: 266 -1 270
Width: 536
VWidth: 0
Flags: HW
HStem: 293 61<0 549>
LayerCount: 2
Back
Fore
SplineSet
0 354 m 1
 549 354 l 1
 549 293 l 1
 0 293 l 1
 0 354 l 1
EndSplineSet
EndChar

StartChar: apl_lowerleft
Encoding: 267 -1 271
Width: 536
VWidth: 0
Flags: HW
HStem: 293 61<436.419 549>
VStem: 242 62<485.474 781>
LayerCount: 2
Back
Fore
SplineSet
244 781 m 1
 305 781 l 1
 305 740 304 700 304 661 c 0
 304 492 325 361 549 354 c 1
 549 293 l 1
 272 293 242 405 242 600 c 0
 242 654 244 715 244 781 c 1
EndSplineSet
EndChar

StartChar: apl_upperleft
Encoding: 268 -1 272
Width: 536
VWidth: 0
Flags: HW
HStem: 293 61<437.492 549>
VStem: 238 63<-195 154.973>
LayerCount: 2
Back
Fore
SplineSet
244 -195 m 1
 244 -109 238 -28 238 43 c 0
 238 230 276 354 549 354 c 1
 549 293 l 1
 330 286 301 152 301 -11 c 0
 301 -70 305 -133 305 -195 c 1
 244 -195 l 1
EndSplineSet
EndChar

StartChar: apl_leftjoin
Encoding: 269 -1 273
Width: 536
VWidth: 0
Flags: HW
HStem: 293 61<305 549>
VStem: 244 61<-195 293 354 781>
LayerCount: 2
Back
Fore
SplineSet
244 781 m 1
 305 781 l 1
 305 354 l 1
 549 354 l 1
 549 293 l 1
 305 293 l 1
 305 -195 l 1
 244 -195 l 1
 244 781 l 1
EndSplineSet
EndChar

StartChar: apl_bottomjoin
Encoding: 270 -1 274
Width: 536
VWidth: 0
Flags: HW
HStem: 293 61<0 244 305 549>
VStem: 244 61<354 781>
LayerCount: 2
Back
Fore
SplineSet
244 781 m 1
 305 781 l 1
 305 354 l 1
 549 354 l 1
 549 293 l 1
 0 293 l 1
 0 354 l 1
 244 354 l 1
 244 781 l 1
EndSplineSet
EndChar

StartChar: apl_intersect
Encoding: 271 -1 275
Width: 536
VWidth: 0
Flags: HW
HStem: 293 61<0 244 305 549>
VStem: 244 61<-195 293 354 781>
LayerCount: 2
Back
Fore
SplineSet
244 781 m 1
 305 781 l 1
 305 354 l 1
 549 354 l 1
 549 293 l 1
 305 293 l 1
 305 -195 l 1
 244 -195 l 1
 244 293 l 1
 0 293 l 1
 0 354 l 1
 244 354 l 1
 244 781 l 1
EndSplineSet
EndChar

StartChar: apl_lowerright
Encoding: 272 -1 276
Width: 536
VWidth: 0
Flags: HW
HStem: 293 61<0 112.581>
VStem: 245 62<486.588 781>
LayerCount: 2
Back
Fore
SplineSet
244 781 m 1
 305 781 l 1
 305 715 307 654 307 600 c 0
 307 405 277 293 0 293 c 1
 0 354 l 1
 225 361 245 493 245 664 c 0
 245 701 244 741 244 781 c 1
EndSplineSet
EndChar

StartChar: apl_upperright
Encoding: 273 -1 277
Width: 536
VWidth: 0
Flags: HW
HStem: 293 61<0 111.508>
VStem: 248 63<-195 154.973>
LayerCount: 2
Back
Fore
SplineSet
0 354 m 1
 273 354 311 230 311 43 c 0
 311 -28 305 -109 305 -195 c 1
 244 -195 l 1
 244 -133 248 -70 248 -11 c 0
 248 152 219 286 0 293 c 1
 0 354 l 1
EndSplineSet
EndChar

StartChar: apl_rightjoin
Encoding: 274 -1 278
Width: 536
VWidth: 0
Flags: HW
HStem: 293 61<0 244>
VStem: 244 61<-195 293 354 781>
LayerCount: 2
Back
Fore
SplineSet
244 781 m 1
 305 781 l 1
 305 -195 l 1
 244 -195 l 1
 244 293 l 1
 0 293 l 1
 0 354 l 1
 244 354 l 1
 244 781 l 1
EndSplineSet
EndChar

StartChar: apl_topjoin
Encoding: 275 -1 279
Width: 536
VWidth: 0
Flags: HW
HStem: 293 61<0 244 305 549>
VStem: 244 61<-195 293>
LayerCount: 2
Back
Fore
SplineSet
0 354 m 1
 549 354 l 1
 549 293 l 1
 305 293 l 1
 305 -195 l 1
 244 -195 l 1
 244 293 l 1
 0 293 l 1
 0 354 l 1
EndSplineSet
EndChar

StartChar: dec_solid
Encoding: 276 -1 280
Width: 536
VWidth: 0
Flags: HW
VStem: 152 244<-195 781>
LayerCount: 2
Back
Fore
SplineSet
152 781 m 1
 396 781 l 1
 396 -195 l 1
 152 -195 l 1
 152 781 l 1
EndSplineSet
EndChar

StartChar: dec_filled_circle
Encoding: 277 -1 281
Width: 536
VWidth: 0
Flags: HW
HStem: 218 207<219.361 330.078>
VStem: 174 201<263.467 379.863>
LayerCount: 2
Back
Fore
SplineSet
224 412 m 0
 241 421 257 425 272 425 c 0
 330 425 375 369 375 314 c 0
 375 283 361 252 326 231 c 1
 309 222 293 218 277 218 c 0
 220 218 174 274 174 329 c 0
 174 361 189 392 224 412 c 0
EndSplineSet
EndChar

StartChar: dec_ht
Encoding: 279 -1 283
Width: 536
VWidth: 0
Flags: HW
HStem: 262 61<244 305 366 428> 507 60<152 214>
VStem: 92 60<385 507 567 689> 214 60<385 507 567 689> 305 61<19 262>
LayerCount: 2
Back
Fore
SplineSet
92 689 m 1
 152 689 l 1
 152 567 l 1
 214 567 l 1
 214 689 l 1
 274 689 l 1
 274 385 l 1
 214 385 l 1
 214 507 l 1
 152 507 l 1
 152 385 l 1
 92 385 l 1
 92 689 l 1
244 323 m 1
 428 323 l 1
 428 262 l 1
 366 262 l 1
 366 19 l 1
 305 19 l 1
 305 262 l 1
 244 263 l 1
 244 323 l 1
EndSplineSet
EndChar

StartChar: dec_ff
Encoding: 280 -1 284
Width: 536
VWidth: 0
Flags: HW
HStem: 143 61<304.308 395.69> 266 60<304 426> 506 61<152.308 243.69> 629 60<152 274>
VStem: 92 60<385 506.462 567.231 629> 244 60<22 143.462 204.23 266>
LayerCount: 2
Back
Fore
SplineSet
244 326 m 1
 426 326 l 1
 426 266 l 1
 304 266 l 1
 304 204 l 1
 396 204 l 1
 396 143 l 1
 304 143 l 1
 304 22 l 1
 244 22 l 1
 244 326 l 1
92 689 m 1
 274 689 l 1
 274 629 l 1
 152 629 l 1
 152 567 l 1
 244 567 l 1
 244 506 l 1
 152 506 l 1
 152 385 l 1
 92 385 l 1
 92 689 l 1
EndSplineSet
EndChar

StartChar: dec_cr
Encoding: 281 -1 285
Width: 536
VWidth: 0
Flags: HW
HStem: 262 60<305 354.569> 386 90<213 249.9> 386 60<162.361 203.605> 628 60<160.426 202.175>
VStem: 92 60<457.512 619.574> 213 60<456.479 476 598.937 617.346> 244 60<19 141.5 201 262.5> 366 60<18.5 42.5498 243.135 250.522>
LayerCount: 2
Back
Fore
SplineSet
273 597 m 1
 213 599 l 1
 214 617 l 1
 202 628 l 1
 160 628 l 1
 152 620 l 1
 152 458 l 1
 162 446 l 1
 204 446 l 1
 213 456 l 1
 213 476 l 1
 273 476 l 1
 273 445 l 2
 273 440 271 432 265 425 c 2
 239 396 l 2
 235 392 228 386 217 386 c 2
 149 386 l 2
 143 386 134 388 127 396 c 2
 100 426 l 2
 96 430 92 437 92 446 c 2
 92 632 l 2
 92 637 94 646 101 653 c 2
 127 679 l 2
 130 682 138 688 148 688 c 2
 214 688 l 2
 218 688 227 687 234 680 c 2
 264 652 l 2
 268 648 274 640 274 629 c 2
 273 597 l 1
244 19 m 1
 245 322 l 1
 368 322 l 2
 378 322 385 317 389 313 c 2
 418 283 l 2
 425 276 426 266 426 262 c 2
 426 231 l 2
 426 221 421 213 418 210 c 2
 373 164 l 1
 423 63 l 2
 426 58 426 53 426 50 c 2
 426 18 l 1
 366 18 l 1
 366 43 l 1
 318 142 l 1
 305 142 l 1
 304 18 l 1
 244 19 l 1
305 201 m 1
 325 201 l 1
 366 243 l 1
 366 251 l 1
 355 263 l 1
 305 262 l 1
 305 201 l 1
EndSplineSet
EndChar

StartChar: dec_lf
Encoding: 282 -1 286
Width: 536
VWidth: 0
Flags: HW
HStem: 143 61<304.308 395.69> 266 60<304 426> 385 60<152 274>
VStem: 92 60<445 689> 244 60<22 143.462 204.23 266>
LayerCount: 2
Back
Fore
SplineSet
244 326 m 1
 426 326 l 1
 426 266 l 1
 304 266 l 1
 304 204 l 1
 396 204 l 1
 396 143 l 1
 304 143 l 1
 304 22 l 1
 244 22 l 1
 244 326 l 1
92 689 m 1
 152 689 l 1
 152 445 l 1
 274 445 l 1
 274 385 l 1
 92 385 l 1
 92 689 l 1
EndSplineSet
EndChar

StartChar: dec_degree
Encoding: 283 -1 287
Width: 536
VWidth: 0
Flags: HW
HStem: 432 44<214 274> 598 41<214 274>
VStem: 143 41<507 567> 305 40<507 567>
LayerCount: 2
Back
Fore
SplineSet
214 598 m 1
 184 567 l 1
 184 507 l 1
 214 476 l 1
 274 476 l 1
 305 507 l 1
 305 567 l 1
 274 598 l 1
 214 598 l 1
192 626 m 0
 209 635 225 639 241 639 c 0
 298 639 345 583 345 527 c 0
 345 496 331 466 296 445 c 1
 279 436 263 432 247 432 c 0
 189 432 143 488 143 544 c 0
 143 575 157 606 192 626 c 0
EndSplineSet
EndChar

StartChar: dec_plusminus
Encoding: 284 -1 288
Width: 536
VWidth: 0
Flags: HW
HStem: 109 62<61 488> 415 61<61 244 305 488> 639 20G<244 305>
VStem: 244 61<231 415 476 659>
LayerCount: 2
Back
Fore
SplineSet
244 659 m 1
 305 659 l 1
 305 476 l 1
 488 476 l 1
 488 415 l 1
 305 415 l 1
 305 231 l 1
 244 231 l 1
 244 415 l 1
 61 415 l 1
 61 476 l 1
 244 476 l 1
 244 659 l 1
61 171 m 1
 488 171 l 1
 488 109 l 1
 61 109 l 1
 61 171 l 1
EndSplineSet
EndChar

StartChar: dec_nl
Encoding: 285 -1 289
Width: 536
VWidth: 0
Flags: HW
HStem: 19 60<305 428>
VStem: 92 60<385 537> 244 61<79 323 537 689>
LayerCount: 2
Back
Fore
SplineSet
92 689 m 1
 152 689 l 1
 244 537 l 1
 244 689 l 1
 305 689 l 1
 305 385 l 1
 246 386 l 1
 152 537 l 1
 152 385 l 1
 92 385 l 1
 92 689 l 1
244 323 m 1
 305 323 l 1
 305 79 l 1
 428 79 l 1
 428 19 l 1
 244 19 l 1
 244 323 l 1
EndSplineSet
EndChar

StartChar: dec_vt
Encoding: 286 -1 290
Width: 536
VWidth: 0
Flags: HMW
LayerCount: 2
Back
Fore
SplineSet
91 690 m 1
 151 690 l 1
 151 517 l 1
 198 462 l 1
 244 517 l 1
 244 690 l 1
 304 690 l 1
 304 506 l 2
 304 501 303 494 297 487 c 2
 220 396 l 1
 220 396 223 398 217 393 c 0
 212 389 205 385 197 385 c 0
 189 385 181 388 175 396 c 2
 98 487 l 2
 95 490 91 497 91 506 c 2
 91 690 l 1
244 323 m 1
 428 323 l 1
 428 262 l 1
 366 262 l 1
 366 19 l 1
 305 19 l 1
 305 262 l 1
 244 263 l 1
 244 323 l 1
EndSplineSet
EndChar

StartChar: dec_lowerright
Encoding: 287 -1 291
Width: 536
VWidth: 0
Flags: HW
HStem: 293 61<0 112.581>
VStem: 245 62<486.588 781>
LayerCount: 2
Back
Fore
SplineSet
244 781 m 1
 305 781 l 1
 305 715 307 654 307 600 c 0
 307 405 277 293 0 293 c 1
 0 354 l 1
 225 361 245 493 245 664 c 0
 245 701 244 741 244 781 c 1
EndSplineSet
EndChar

StartChar: dec_upperright
Encoding: 288 -1 292
Width: 536
VWidth: 0
Flags: HW
HStem: 293 61<0 111.508>
VStem: 248 63<-195 154.973>
LayerCount: 2
Back
Fore
SplineSet
0 354 m 1
 273 354 311 230 311 43 c 0
 311 -28 305 -109 305 -195 c 1
 244 -195 l 1
 244 -133 248 -70 248 -11 c 0
 248 152 219 286 0 293 c 1
 0 354 l 1
EndSplineSet
EndChar

StartChar: dec_upperleft
Encoding: 289 -1 293
Width: 536
VWidth: 0
Flags: HW
HStem: 293 61<437.492 549>
VStem: 238 63<-195 154.973>
LayerCount: 2
Back
Fore
SplineSet
244 -195 m 1
 244 -109 238 -28 238 43 c 0
 238 230 276 354 549 354 c 1
 549 293 l 1
 330 286 301 152 301 -11 c 0
 301 -70 305 -133 305 -195 c 1
 244 -195 l 1
EndSplineSet
EndChar

StartChar: dec_lowerleft
Encoding: 290 -1 294
Width: 536
VWidth: 0
Flags: HW
HStem: 293 61<436.419 549>
VStem: 242 62<485.474 781>
LayerCount: 2
Back
Fore
SplineSet
244 781 m 1
 305 781 l 1
 305 740 304 700 304 661 c 0
 304 492 325 361 549 354 c 1
 549 293 l 1
 272 293 242 405 242 600 c 0
 242 654 244 715 244 781 c 1
EndSplineSet
EndChar

StartChar: dec_intersect
Encoding: 291 -1 295
Width: 536
VWidth: 0
Flags: HW
HStem: 293 61<0 244 305 536.002>
VStem: 244 61<-199.998 293 354 799.999>
LayerCount: 2
Back
Fore
SplineSet
244 800 m 1
 305 800 l 1
 305 354 l 1
 536 354 l 1
 536 293 l 1
 305 293 l 1
 305 -200 l 1
 244 -200 l 1
 244 293 l 1
 0 293 l 1
 0 354 l 1
 244 354 l 1
 244 800 l 1
EndSplineSet
EndChar

StartChar: dec_hbar1
Encoding: 292 -1 296
Width: 536
VWidth: 0
Flags: HW
HStem: 659 61<0 549>
LayerCount: 2
Back
Fore
SplineSet
0 720 m 1
 549 720 l 1
 549 659 l 1
 0 659 l 1
 0 720 l 1
EndSplineSet
EndChar

StartChar: dec_hbar2
Encoding: 293 -1 297
Width: 536
VWidth: 0
Flags: HW
HStem: 476 61<0 549>
LayerCount: 2
Back
Fore
SplineSet
0 537 m 1
 549 537 l 1
 549 476 l 1
 0 476 l 1
 0 537 l 1
EndSplineSet
EndChar

StartChar: dec_hbar3
Encoding: 294 -1 298
Width: 536
VWidth: 0
Flags: HW
HStem: 293 61<0 535.995>
LayerCount: 2
Back
Fore
SplineSet
0 354 m 1
 536 354 l 1
 536 293 l 1
 0 293 l 1
 0 354 l 1
EndSplineSet
EndChar

StartChar: dec_hbar4
Encoding: 295 -1 299
Width: 536
VWidth: 0
Flags: HW
HStem: 109 62<0 549>
LayerCount: 2
Back
Fore
SplineSet
0 171 m 1
 549 171 l 1
 549 109 l 1
 0 109 l 1
 0 171 l 1
EndSplineSet
EndChar

StartChar: dec_hbar5
Encoding: 296 -1 300
Width: 536
VWidth: 0
Flags: HW
HStem: -73 60<0 549>
LayerCount: 2
Back
Fore
SplineSet
0 -13 m 1
 549 -13 l 1
 549 -73 l 1
 0 -73 l 1
 0 -13 l 1
EndSplineSet
EndChar

StartChar: dec_leftjoin
Encoding: 297 -1 301
Width: 536
VWidth: 0
Flags: HW
HStem: 293 61<305 549>
VStem: 244 61<-195 293 354 781>
LayerCount: 2
Back
Fore
SplineSet
244 781 m 1
 305 781 l 1
 305 354 l 1
 549 354 l 1
 549 293 l 1
 305 293 l 1
 305 -195 l 1
 244 -195 l 1
 244 781 l 1
EndSplineSet
EndChar

StartChar: dec_rightjoin
Encoding: 298 -1 302
Width: 536
VWidth: 0
Flags: HW
HStem: 293 61<0 244>
VStem: 244 61<-195 293 354 781>
LayerCount: 2
Back
Fore
SplineSet
244 781 m 1
 305 781 l 1
 305 -195 l 1
 244 -195 l 1
 244 293 l 1
 0 293 l 1
 0 354 l 1
 244 354 l 1
 244 781 l 1
EndSplineSet
EndChar

StartChar: dec_bottomjoin
Encoding: 299 -1 303
Width: 536
VWidth: 0
Flags: HW
HStem: 293 61<0 244 305 549>
VStem: 244 61<354 781>
LayerCount: 2
Back
Fore
SplineSet
244 781 m 1
 305 781 l 1
 305 354 l 1
 549 354 l 1
 549 293 l 1
 0 293 l 1
 0 354 l 1
 244 354 l 1
 244 781 l 1
EndSplineSet
EndChar

StartChar: dec_topjoin
Encoding: 300 -1 304
Width: 536
VWidth: 0
Flags: HW
HStem: 293 61<0 244 305 549>
VStem: 244 61<-195 293>
LayerCount: 2
Back
Fore
SplineSet
0 354 m 1
 549 354 l 1
 549 293 l 1
 305 293 l 1
 305 -195 l 1
 244 -195 l 1
 244 293 l 1
 0 293 l 1
 0 354 l 1
EndSplineSet
EndChar

StartChar: dec_vbar
Encoding: 301 -1 305
Width: 536
VWidth: 0
Flags: HW
VStem: 244 61<-195 781>
LayerCount: 2
Back
Fore
SplineSet
244 781 m 1
 305 781 l 1
 305 -195 l 1
 244 -195 l 1
 244 781 l 1
EndSplineSet
EndChar

StartChar: dec_notgreater
Encoding: 302 -1 306
Width: 536
VWidth: 0
Flags: HW
HStem: -73 60<92 458>
LayerCount: 2
Back
Fore
SplineSet
418 99 m 2
 423 93 426 85 426 77 c 0
 426 69 422 62 417 56 c 0
 412 50 404 47 396 46 c 0
 388 45 382 46 375 50 c 1
 132 295 l 1
 132 351 l 1
 374 600 l 1
 380 603 387 604 394 603 c 0
 401 602 407 599 412 594 c 0
 418 589 421 581 422 573 c 0
 423 565 422 558 418 551 c 1
 190 323 l 1
 418 99 l 2
92 -13 m 1
 458 -13 l 1
 458 -73 l 1
 92 -73 l 1
 92 -13 l 1
EndSplineSet
EndChar

StartChar: dec_notless
Encoding: 303 -1 307
Width: 536
VWidth: 0
Flags: HW
HStem: -73 60<92 458>
LayerCount: 2
Back
Fore
SplineSet
138 549 m 2
 133 555 131 563 131 571 c 0
 131 579 135 586 140 592 c 0
 145 598 152 602 160 603 c 0
 168 604 175 602 182 598 c 1
 425 353 l 1
 425 298 l 1
 183 48 l 1
 177 45 170 45 163 46 c 0
 156 47 150 49 145 54 c 0
 139 59 135 67 134 75 c 0
 133 83 135 90 139 97 c 1
 366 325 l 1
 138 549 l 2
92 -13 m 1
 458 -13 l 1
 458 -73 l 1
 92 -73 l 1
 92 -13 l 1
EndSplineSet
EndChar

StartChar: dec_pi
Encoding: 304 -1 308
Width: 536
VWidth: 0
Flags: HW
HStem: 49 21G<104.709 154.508 366 428> 477 60<62 123 183 366 427 488>
VStem: 123 60<148.883 476.602> 366 62<49 476>
LayerCount: 2
Back
Fore
SplineSet
61 537 m 1
 488 537 l 1
 488 476 l 1
 427 476 l 1
 428 49 l 1
 366 49 l 1
 366 476 l 1
 183 477 l 1
 183 142 l 2
 183 139 182 134 180 129 c 2
 146 49 l 1
 92 75 l 1
 123 149 l 1
 123 477 l 1
 62 477 l 1
 61 537 l 1
EndSplineSet
EndChar

StartChar: dec_notequal
Encoding: 305 -1 309
Width: 536
VWidth: 0
Flags: HW
HStem: 231 62<61 141.37 287.947 488> 354 61<60 264.045 409.624 487>
LayerCount: 2
Back
Fore
SplineSet
107 112 m 1
 65 154 l 1
 141 231 l 1
 61 231 l 1
 61 293 l 1
 203 293 l 1
 264 354 l 1
 60 354 l 1
 60 415 l 1
 325 415 l 1
 442 532 l 1
 484 490 l 1
 410 415 l 1
 487 415 l 1
 487 354 l 1
 349 354 l 1
 288 293 l 1
 488 293 l 1
 488 231 l 1
 226 231 l 1
 107 112 l 1
EndSplineSet
EndChar

StartChar: dec_sterling
Encoding: 306 -1 310
Width: 536
VWidth: 0
Flags: HW
HStem: 46 60<120 148.37 283.209 382.819> 112 60<120 148.465 468.281 487> 352 62<60 183.53 243.665 364> 597 60<286.986 324.305>
VStem: 183 60<162.987 352 414 556.102> 368 60<539 556.829>
LayerCount: 2
Back
Fore
SplineSet
155 110 m 1
 148 112 l 1
 120 112 l 1
 120 106 l 1
 148 106 l 1
 155 110 l 1
243 140 m 1
 254 136 l 2
 259 134 262 132 264 130 c 2
 283 111 l 1
 383 110 l 1
 435 161 l 2
 442 168 451 170 456 170 c 2
 487 170 l 1
 487 110 l 1
 468 110 l 1
 416 59 l 2
 413 56 405 50 395 50 c 2
 271 51 l 2
 267 51 257 52 250 59 c 2
 228 81 l 1
 227 81 l 1
 170 50 l 2
 165 47 160 46 156 46 c 2
 90 46 l 2
 69 46 60 65 60 76 c 2
 60 142 l 2
 60 163 79 172 90 172 c 2
 154 172 l 2
 159 172 163 171 165 170 c 2
 183 163 l 1
 184 352 l 1
 60 352 l 1
 60 414 l 1
 184 414 l 1
 184 569 l 2
 184 574 186 584 193 591 c 2
 254 649 l 2
 257 652 265 657 275 657 c 2
 336 657 l 2
 342 657 349 655 356 649 c 2
 418 592 l 2
 422 588 428 580 428 570 c 2
 428 539 l 1
 368 539 l 1
 368 557 l 1
 324 597 l 1
 287 597 l 1
 244 556 l 1
 244 414 l 1
 364 414 l 1
 364 352 l 1
 244 352 l 1
 243 140 l 1
EndSplineSet
EndChar

StartChar: dec_periodcentered
Encoding: 307 -1 311
Width: 536
VWidth: 0
Flags: HW
HStem: 231 123<184 305>
VStem: 184 121<231 354>
LayerCount: 2
Back
Fore
SplineSet
184 354 m 1
 305 354 l 1
 305 231 l 1
 184 231 l 1
 184 354 l 1
EndSplineSet
EndChar

StartChar: apostrophe
Encoding: 308 39 312
Width: 536
VWidth: 0
Flags: HW
HStem: 476 183<244 305>
VStem: 244 61<476 659>
LayerCount: 2
Fore
SplineSet
244 659 m 1
 305 659 l 1
 305 476 l 1
 244 476 l 1
 244 659 l 1
EndSplineSet
EndChar

StartChar: uni00AD
Encoding: 309 173 313
Width: 536
VWidth: 0
Flags: HW
HStem: 293 61<122 428>
VStem: 122 306<293 354>
LayerCount: 2
Fore
SplineSet
122 354 m 1
 428 354 l 1
 428 293 l 1
 122 293 l 1
 122 354 l 1
EndSplineSet
EndChar

StartChar: uni00B5
Encoding: 310 181 314
Width: 536
VWidth: 0
Flags: HW
HStem: -135 21G<62.9672 122> 51 58<163 324 440 489> 456 20G<62 120.123 366.938 426>
VStem: 63 59<-135 68 150 475> 366 59<153 476>
LayerCount: 2
Fore
SplineSet
62 475 m 1
 120 476 l 1
 122 150 l 1
 163 109 l 1
 324 109 l 1
 366 153 l 1
 367 476 l 1
 426 476 l 1
 425 141 l 2
 425 138 424 134 422 129 c 1
 440 109 l 1
 489 109 l 1
 489 50 l 1
 428 50 l 2
 418 50 410 55 407 59 c 2
 381 84 l 1
 357 60 l 2
 354 57 346 51 336 51 c 2
 151 51 l 2
 146 51 138 52 131 59 c 2
 122 68 l 1
 122 -135 l 1
 63 -135 l 1
 62 475 l 1
EndSplineSet
EndChar

StartChar: divide
Encoding: 311 247 315
Width: 536
VWidth: 0
Flags: HW
HStem: 79 122<214 336> 293 61<61 488> 445 122<214 336>
VStem: 214 122<79 201 445 567>
LayerCount: 2
Fore
SplineSet
214 567 m 1
 336 567 l 1
 336 445 l 1
 214 445 l 1
 214 567 l 1
61 354 m 1
 488 354 l 1
 488 293 l 1
 61 293 l 1
 61 354 l 1
214 201 m 1
 336 201 l 1
 336 79 l 1
 214 79 l 1
 214 201 l 1
EndSplineSet
EndChar

StartChar: ordmasculine
Encoding: 316 186 320
Width: 536
VWidth: 0
Flags: HW
HStem: 49 60<61 429> 174 58<164 325> 539 59<164 326>
VStem: 61 58<273 495> 365 59<273 495>
LayerCount: 2
Fore
SplineSet
121 495 m 1
 119 273 l 1
 164 232 l 1
 325 231 l 1
 365 273 l 1
 366 495 l 1
 326 539 l 1
 164 539 l 1
 121 495 l 1
71 528 m 2
 132 589 l 2
 139 596 148 598 152 598 c 2
 339 598 l 2
 349 598 357 592 361 588 c 2
 417 525 l 2
 423 519 425 511 425 506 c 2
 424 261 l 2
 424 251 419 243 416 240 c 2
 358 181 l 2
 351 173 342 172 337 172 c 2
 152 174 l 2
 143 174 136 178 132 181 c 2
 70 239 l 2
 62 246 61 255 61 261 c 2
 63 508 l 2
 63 518 68 525 71 528 c 2
61 109 m 1
 429 109 l 1
 429 49 l 1
 61 49 l 1
 61 109 l 1
EndSplineSet
EndChar

StartChar: Abreve
Encoding: 319 258 323
Width: 536
VWidth: 0
Flags: HW
HStem: 49 21G<60 120.328 427 487> 232 61<124 427> 597 21G<271.5 279.5>
VStem: 64 60<49 232 293 312> 427 60<49 232 293 312>
LayerCount: 2
Fore
SplineSet
193 710 m 0
 199 716 207 719 213 719 c 0
 222 719 230 715 235 710 c 2
 276 669 l 1
 318 710 l 2
 324 716 332 719 338 719 c 0
 355 719 369 704 369 688 c 0
 369 681 367 674 360 667 c 2
 297 605 l 2
 292 600 284 597 275 597 c 0
 268 597 261 599 255 605 c 2
 193 667 l 2
 188 672 184 680 184 689 c 0
 184 696 187 704 193 710 c 0
123 232 m 1
 120 49 l 1
 60 49 l 1
 64 325 l 2
 64 335 70 343 73 346 c 2
 253 527 l 2
 259 533 267 536 273 536 c 0
 282 536 290 532 295 527 c 2
 478 345 l 2
 485 338 487 329 487 324 c 2
 487 49 l 1
 427 49 l 1
 428 232 l 1
 123 232 l 1
124 293 m 1
 427 293 l 1
 427 312 l 1
 274 464 l 1
 124 312 l 1
 124 293 l 1
EndSplineSet
EndChar

StartChar: abreve
Encoding: 320 259 324
Width: 536
VWidth: 0
Flags: HW
HStem: 49 60<165 367 426 487> 234 59<166 367> 415 59<122 326> 639 20G<208 215.5 333 340.5>
VStem: 64 59<153 190> 367 59<109 233 292 373>
LayerCount: 2
Fore
SplineSet
191 650 m 0
 197 656 205 659 211 659 c 0
 220 659 228 655 233 650 c 2
 274 609 l 1
 316 650 l 2
 322 656 330 659 336 659 c 0
 345 659 353 655 358 650 c 0
 363 645 367 637 367 628 c 0
 367 622 364 614 358 608 c 2
 295 546 l 2
 290 541 282 537 273 537 c 0
 266 537 259 540 253 546 c 2
 191 608 l 2
 186 613 182 621 182 630 c 0
 182 636 185 644 191 650 c 0
367 109 m 1
 367 233 l 1
 166 234 l 1
 123 190 l 1
 123 153 l 1
 165 110 l 1
 367 109 l 1
426 108 m 1
 488 107 l 1
 487 49 l 1
 152 52 l 2
 142 52 134 58 131 61 c 2
 73 121 l 2
 66 128 64 138 64 142 c 2
 64 202 l 2
 64 212 70 220 73 223 c 2
 132 284 l 2
 139 291 148 293 153 293 c 2
 368 292 l 1
 368 373 l 1
 326 415 l 1
 122 418 l 1
 122 477 l 1
 338 474 l 2
 348 474 356 468 359 465 c 2
 418 405 l 2
 425 398 427 390 427 385 c 2
 426 108 l 1
EndSplineSet
EndChar

StartChar: dcroat
Encoding: 325 273 329
Width: 536
VWidth: 0
Flags: HW
HStem: 51 58<227 367> 416 59<224 367> 530 61<222 367 427 474> 639 20G<367 427>
VStem: 62 59<213 312> 367 60<109 416 475 530 591 659>
LayerCount: 2
Fore
SplineSet
367 109 m 1
 367 416 l 1
 224 416 l 1
 121 312 l 1
 121 213 l 1
 227 109 l 1
 367 109 l 1
427 52 m 1
 215 51 l 2
 211 51 201 52 194 59 c 2
 71 180 l 2
 68 183 62 191 62 201 c 2
 62 324 l 2
 62 329 64 338 71 345 c 2
 191 466 l 2
 194 469 201 475 211 475 c 2
 367 475 l 1
 367 530 l 1
 222 530 l 1
 222 591 l 1
 367 591 l 1
 367 659 l 1
 427 659 l 1
 427 591 l 1
 474 591 l 1
 474 530 l 1
 427 530 l 1
 427 52 l 1
EndSplineSet
EndChar

StartChar: Dcroat
Encoding: 326 272 330
Width: 536
VWidth: 0
Flags: HW
HStem: 49 61<61 122 183 324> 297 61<62 122 183 244> 538 60<61 122 183 324>
VStem: 122 61<110 297 358 538> 427 60<213 433>
LayerCount: 2
Fore
SplineSet
122 538 m 1
 61 538 l 1
 61 598 l 1
 337 597 l 2
 347 597 355 592 358 588 c 2
 478 466 l 2
 485 459 487 450 487 445 c 2
 487 201 l 2
 487 191 482 183 478 179 c 2
 357 59 l 2
 350 52 341 50 336 50 c 2
 61 49 l 1
 61 109 l 1
 122 109 l 1
 122 297 l 1
 62 297 l 1
 62 358 l 1
 122 358 l 1
 122 538 l 1
183 110 m 1
 324 110 l 1
 427 213 l 1
 427 433 l 1
 324 537 l 1
 183 538 l 1
 183 358 l 1
 244 358 l 1
 244 297 l 1
 183 297 l 1
 183 110 l 1
EndSplineSet
EndChar

StartChar: Ebreve
Encoding: 329 276 333
Width: 536
VWidth: 0
Flags: HW
HStem: 49 60<122 488> 231 62<122 366> 476 61<122 488> 597 21G<271.5 279.5>
VStem: 61 61<109 231 293 476>
LayerCount: 2
Fore
SplineSet
193 710 m 0
 199 716 207 719 213 719 c 0
 222 719 230 715 235 710 c 2
 276 669 l 1
 318 710 l 2
 324 716 331 719 338 719 c 0
 347 719 355 715 360 709 c 0
 365 704 369 696 369 687 c 0
 369 681 366 673 360 667 c 2
 297 605 l 2
 292 600 284 597 275 597 c 0
 268 597 261 599 255 605 c 2
 193 667 l 2
 188 672 184 680 184 689 c 0
 184 696 187 704 193 710 c 0
61 537 m 1
 488 537 l 1
 488 476 l 1
 122 476 l 1
 122 293 l 1
 366 293 l 1
 366 231 l 1
 122 231 l 1
 122 109 l 1
 488 109 l 1
 488 49 l 1
 61 49 l 1
 61 537 l 1
EndSplineSet
EndChar

StartChar: ebreve
Encoding: 330 277 334
Width: 536
VWidth: 0
Flags: HW
HStem: 51 58<163 428> 231 62<120 368> 415 59<165 325> 639 20G<208 215.5 333 340.5>
VStem: 61 59<152 231 293 372> 368 59<293 373>
LayerCount: 2
Fore
SplineSet
191 650 m 0
 197 656 205 659 211 659 c 0
 220 659 228 655 233 650 c 2
 274 609 l 1
 316 650 l 2
 322 656 330 659 336 659 c 0
 345 659 353 655 358 650 c 0
 363 645 367 637 367 628 c 0
 367 622 364 614 358 608 c 2
 295 546 l 2
 290 541 282 537 273 537 c 0
 266 537 259 540 253 546 c 2
 191 608 l 2
 186 613 182 621 182 630 c 0
 182 636 185 644 191 650 c 0
120 231 m 1
 119 152 l 1
 163 109 l 1
 428 107 l 1
 428 49 l 1
 151 51 l 2
 142 51 134 56 131 59 c 2
 69 119 l 2
 62 126 61 135 61 140 c 2
 63 384 l 2
 63 394 68 401 71 404 c 2
 132 467 l 2
 139 474 149 476 154 476 c 2
 337 474 l 2
 347 474 355 468 358 465 c 2
 417 405 l 2
 424 398 426 390 426 385 c 2
 427 233 l 1
 120 231 l 1
120 293 m 1
 368 293 l 1
 367 373 l 1
 325 415 l 1
 165 417 l 1
 121 372 l 1
 120 293 l 1
EndSplineSet
EndChar

StartChar: Eogonek
Encoding: 333 280 337
Width: 536
VWidth: 0
Flags: HW
HStem: 49 60<122 488> 231 62<122 366> 476 61<122 488>
VStem: 61 61<109 231 293 476>
LayerCount: 2
Fore
SplineSet
61 537 m 1
 488 537 l 1
 488 476 l 1
 122 476 l 1
 122 293 l 1
 366 293 l 1
 366 231 l 1
 122 231 l 1
 122 109 l 1
 488 109 l 1
 488 49 l 1
 61 49 l 1
 61 537 l 1
EndSplineSet
EndChar

StartChar: eogonek
Encoding: 334 281 338
Width: 536
VWidth: 0
Flags: HW
HStem: 51 58<163 428> 231 62<120 368> 415 59<165 325>
VStem: 61 59<152 231 293 372> 368 59<293 373>
LayerCount: 2
Fore
SplineSet
120 231 m 1
 119 152 l 1
 163 109 l 1
 428 107 l 1
 428 49 l 1
 151 51 l 2
 142 51 134 56 131 59 c 2
 69 119 l 2
 62 126 61 135 61 140 c 2
 63 384 l 2
 63 394 68 401 71 404 c 2
 132 467 l 2
 139 474 149 476 154 476 c 2
 337 474 l 2
 347 474 355 468 358 465 c 2
 417 405 l 2
 424 398 426 390 426 385 c 2
 427 233 l 1
 120 231 l 1
120 293 m 1
 368 293 l 1
 367 373 l 1
 325 415 l 1
 165 417 l 1
 121 372 l 1
 120 293 l 1
EndSplineSet
EndChar

StartChar: Gbreve
Encoding: 339 286 343
Width: 536
VWidth: 0
Flags: HW
HStem: 51 60<225 366> 232 61<244 366 426 489> 498 60<225 325> 597 21G<271.5 279.5>
VStem: 63 60<212 395> 366 59<111 232>
LayerCount: 2
Fore
SplineSet
193 710 m 0
 199 716 207 719 213 719 c 0
 222 719 230 715 235 710 c 2
 276 669 l 1
 318 710 l 2
 324 716 331 719 338 719 c 0
 347 719 355 715 360 709 c 0
 365 704 369 696 369 687 c 0
 369 681 366 673 360 667 c 2
 297 605 l 2
 292 600 284 597 275 597 c 0
 268 597 261 599 255 605 c 2
 193 667 l 2
 188 672 184 680 184 689 c 0
 184 696 187 704 193 710 c 0
244 293 m 1
 489 293 l 1
 489 233 l 1
 426 232 l 1
 425 80 l 2
 425 69 416 51 395 51 c 2
 213 51 l 2
 208 51 199 52 192 59 c 2
 72 178 l 2
 69 181 63 189 63 199 c 2
 63 407 l 2
 63 412 64 421 71 428 c 2
 191 549 l 2
 194 553 202 558 212 558 c 2
 337 558 l 2
 342 558 352 556 359 549 c 2
 419 488 l 1
 376 446 l 1
 325 498 l 1
 225 498 l 1
 123 395 l 1
 123 212 l 1
 225 111 l 1
 366 111 l 1
 366 232 l 1
 244 231 l 1
 244 293 l 1
EndSplineSet
EndChar

StartChar: gbreve
Encoding: 340 287 344
Width: 536
VWidth: 0
Flags: HW
HStem: -72 60<226 387> 109 60<226 322> 171 60<407 429> 417 60<226 384> 597 21G<271.5 279.5>
VStem: 62 60<272 313> 429 60<30 171 231 375>
LayerCount: 2
Fore
SplineSet
193 710 m 0
 199 716 207 719 213 719 c 0
 222 719 230 715 235 710 c 2
 276 669 l 1
 318 710 l 2
 324 716 331 719 338 719 c 0
 347 719 355 715 360 709 c 0
 365 704 369 696 369 687 c 0
 369 681 366 673 360 667 c 2
 297 605 l 2
 292 600 284 597 275 597 c 0
 268 597 261 599 255 605 c 2
 193 667 l 2
 188 672 184 680 184 689 c 0
 184 696 187 704 193 710 c 0
429 231 m 1
 429 375 l 1
 384 417 l 1
 226 415 l 1
 122 313 l 1
 122 272 l 1
 226 169 l 1
 322 171 l 1
 373 222 l 2
 379 228 386 231 394 231 c 2
 429 231 l 1
429 171 m 1
 407 171 l 1
 356 120 l 2
 351 114 344 111 335 111 c 2
 214 109 l 2
 206 109 199 112 193 118 c 2
 71 238 l 2
 65 244 62 251 62 259 c 2
 62 326 l 2
 62 335 65 342 71 347 c 2
 193 466 l 2
 199 472 206 475 214 475 c 2
 396 477 l 2
 404 477 411 474 417 469 c 2
 480 410 l 2
 486 404 489 397 489 388 c 2
 488 18 l 2
 488 10 485 3 480 -3 c 2
 422 -63 l 2
 416 -69 409 -72 400 -72 c 2
 214 -72 l 2
 206 -72 199 -69 193 -63 c 2
 132 -3 l 1
 174 39 l 1
 226 -12 l 1
 387 -12 l 1
 428 30 l 1
 429 171 l 1
EndSplineSet
EndChar

StartChar: gcommaaccent
Encoding: 344 291 348
Width: 536
VWidth: 0
Flags: HW
HStem: -181 57<120.329 200.713> -72 60<226 242.4 299.619 387> 109 60<226 322> 171 60<407 429> 417 60<226 384>
VStem: 62 60<272 313> 242 57<-80.9004 -72 -12 60.1055> 429 60<30 171 231 375>
LayerCount: 2
Fore
SplineSet
429 171 m 1
 407 171 l 1
 356 120 l 2
 351 114 344 111 335 111 c 2
 214 109 l 2
 206 109 199 112 193 118 c 2
 71 238 l 2
 65 244 62 251 62 259 c 2
 62 326 l 2
 62 335 65 342 71 347 c 2
 193 466 l 2
 199 472 206 475 214 475 c 2
 396 477 l 2
 404 477 411 474 417 469 c 2
 480 410 l 2
 486 404 489 397 489 388 c 2
 488 18 l 2
 488 10 485 3 480 -3 c 2
 422 -63 l 2
 416 -69 409 -72 400 -72 c 2
 300 -72 l 1
 300 -92 l 2
 300 -100 297 -106 292 -112 c 2
 233 -172 l 2
 227 -178 221 -181 213 -181 c 2
 120 -181 l 1
 120 -124 l 1
 201 -124 l 1
 242 -81 l 1
 242 -72 l 1
 214 -72 l 2
 206 -72 199 -69 193 -63 c 2
 132 -3 l 1
 174 39 l 1
 226 -12 l 1
 242 -12 l 1
 242 60 l 1
 300 60 l 1
 300 -12 l 1
 387 -12 l 1
 428 30 l 1
 429 171 l 1
429 231 m 1
 429 375 l 1
 384 417 l 1
 226 415 l 1
 122 313 l 1
 122 272 l 1
 226 169 l 1
 322 171 l 1
 373 222 l 2
 379 228 386 231 394 231 c 2
 429 231 l 1
EndSplineSet
EndChar

StartChar: uniFFE9
Encoding: 655 65513 659
Width: 536
VWidth: 0
Flags: HW
HStem: 293 61<230 535> 456 20G<206.34 230>
LayerCount: 2
Fore
SplineSet
230 476 m 1
 230 354 l 1
 435 354 l 5
 435 293 l 5
 230 293 l 1
 230 171 l 1
 49 323 l 1
 230 476 l 1
EndSplineSet
EndChar

StartChar: uniFFEA
Encoding: 656 65514 660
Width: 536
VWidth: 0
Flags: HW
HStem: 293 61<230 535> 456 20G<206.34 230>
LayerCount: 2
Fore
SplineSet
394.5 335.5 m 1
 272.5 335.5 l 1
 272.5 130.5 l 1
 211.5 130.5 l 1
 211.5 335.5 l 1
 89.5 335.5 l 1
 241.5 516.5 l 1
 394.5 335.5 l 1
EndSplineSet
EndChar

StartChar: uniFFEB
Encoding: 657 65515 661
Width: 536
VWidth: 0
Flags: HW
HStem: 293 61<230 535> 456 20G<206.34 230>
LayerCount: 2
Fore
SplineSet
354 476 m 1
 354 354 l 1
 149 354 l 5
 149 293 l 5
 354 293 l 1
 354 171 l 1
 535 323 l 1
 354 476 l 1
EndSplineSet
EndChar

StartChar: uniFFEC
Encoding: 658 65516 662
Width: 536
VWidth: 0
Flags: HW
HStem: 293 61<230 535> 456 20G<206.34 230>
LayerCount: 2
Fore
SplineSet
89.5 311.5 m 5
 211.5 311.5 l 5
 211.5 516.5 l 5
 272.5 516.5 l 5
 272.5 311.5 l 5
 394.5 311.5 l 5
 242.5 130.5 l 5
 89.5 311.5 l 5
EndSplineSet
EndChar

StartChar: uni2B60
Encoding: 678 11104 682
Width: 536
VWidth: 2048
Flags: HW
LayerCount: 2
Fore
SplineSet
114 315 m 1
 124 316 135 318 150 322 c 128
 165 326 182 331 200 338 c 128
 218 345 235 353 250 361 c 128
 265 369 278 379 288 390 c 128
 298 401 304 412 304 424 c 2
 304 513 l 1
 240 492 l 1
 332 663 l 1
 422 492 l 1
 358 513 l 1
 358 424 l 2
 358 409 356 395 350 381 c 128
 344 367 337 354 328 344 c 128
 319 334 310 324 300 314 c 128
 290 304 279 296 268 287 c 128
 257 278 247 270 238 262 c 128
 229 254 223 246 218 238 c 128
 213 230 208 220 208 212 c 2
 208 58 l 1
 114 58 l 1
 114 315 l 1
114 368 m 1
 114 750 l 1
 208 750 l 1
 208 395 l 1
 204 389 188 383 162 377 c 128
 136 371 120 368 114 368 c 1
EndSplineSet
EndChar

StartChar: uni2B61
Encoding: 679 11105 683
Width: 536
VWidth: 0
Flags: HW
HStem: 19 60<305 428>
VStem: 92 60<385 537> 244 61<79 323 537 689>
LayerCount: 2
Fore
SplineSet
244 323 m 1
 304 323 l 1
 396 171 l 1
 396 323 l 1
 457 323 l 1
 457 19 l 1
 398 20 l 1
 304 171 l 1
 304 19 l 1
 244 19 l 1
 244 323 l 1
92 691 m 1
 153 691 l 1
 153 447 l 1
 276 447 l 1
 276 387 l 1
 92 387 l 1
 92 691 l 1
EndSplineSet
EndChar

StartChar: uni2B62
Encoding: 680 11106 684
Width: 536
VWidth: 2048
Flags: HW
LayerCount: 2
Fore
SplineSet
204 558 m 2
 378 558 l 1
 378 513 l 1
 204 513 l 1
 204 295 l 1
 260 295 l 1
 260 387 l 1
 350 387 l 1
 350 430 l 1
 260 430 l 1
 260 471 l 1
 378 471 l 1
 378 352 l 1
 375 349 370 347 364 345 c 128
 358 343 354 342 350 342 c 2
 304 342 l 1
 304 295 l 2
 304 283 301 272 292 263 c 128
 283 254 272 250 260 250 c 2
 204 250 l 2
 192 250 181 254 172 263 c 128
 163 272 158 283 158 295 c 2
 158 513 l 2
 158 525 163 536 172 545 c 128
 181 554 192 558 204 558 c 2
EndSplineSet
EndChar

StartChar: NameMe.682
Encoding: 681 11107 685
Width: 536
VWidth: 2048
Flags: HW
LayerCount: 2
Fore
SplineSet
158 558 m 1
 332 558 l 2
 344 558 355 554 364 545 c 128
 373 536 378 525 378 513 c 2
 378 471 l 2
 378 459 373 448 364 439 c 128
 355 430 344 426 332 426 c 2
 306 426 l 1
 306 295 l 2
 306 283 301 272 292 263 c 128
 283 254 272 250 260 250 c 2
 204 250 l 2
 192 250 181 254 172 263 c 128
 163 272 158 283 158 295 c 2
 158 352 l 1
 158 352 l 1
 158 471 l 1
 204 471 l 1
 204 295 l 1
 260 295 l 1
 260 471 l 1
 332 471 l 1
 332 513 l 1
 158 513 l 1
 158 558 l 1
EndSplineSet
EndChar

StartChar: uni2B64
Encoding: 682 11108 686
Width: 536
VWidth: 2048
Flags: HW
LayerCount: 2
Fore
SplineSet
268 593 m 128
 279 593 288 592 297 588 c 128
 306 584 313 580 319 574 c 128
 325 568 329 561 333 554 c 128
 337 547 340 540 342 533 c 128
 344 526 345 519 346 513 c 128
 347 507 348 503 348 499 c 1
 348 494 l 1
 348 433 l 1
 408 433 l 1
 408 373 l 2
 408 371 408 368 408 364 c 128
 408 360 407 353 405 342 c 128
 403 331 400 320 397 310 c 128
 394 300 389 289 382 277 c 128
 375 265 367 254 357 245 c 128
 347 236 335 229 320 223 c 128
 305 217 287 214 268 214 c 0
 253 214 239 215 226 219 c 128
 213 223 203 228 194 234 c 128
 185 240 177 247 170 255 c 128
 163 263 156 271 152 280 c 128
 148 289 143 298 140 307 c 128
 137 316 135 324 133 332 c 128
 131 340 131 347 130 353 c 128
 129 359 128 364 128 368 c 2
 128 373 l 1
 128 433 l 1
 188 433 l 1
 188 494 l 2
 188 495 188 497 188 499 c 128
 188 501 189 506 190 513 c 128
 191 520 192 527 194 533 c 128
 196 539 199 546 203 554 c 128
 207 562 212 568 217 574 c 128
 222 580 229 584 238 588 c 128
 247 592 257 593 268 593 c 128
268 553 m 128
 261 553 256 552 251 550 c 128
 246 548 243 545 240 539 c 128
 237 533 235 529 233 524 c 128
 231 519 231 511 230 499 c 128
 229 487 228 478 228 470 c 128
 228 462 228 450 228 433 c 1
 308 433 l 1
 308 449 308 462 308 470 c 128
 308 478 308 488 307 499 c 128
 306 510 305 519 303 524 c 128
 301 529 299 535 296 540 c 128
 293 545 289 548 285 550 c 128
 281 552 275 553 268 553 c 128
268 393 m 128
 262 393 257 391 252 386 c 128
 247 381 243 374 241 367 c 128
 239 360 238 352 238 343 c 128
 238 334 239 326 241 319 c 128
 243 312 247 306 252 301 c 128
 257 296 262 293 268 293 c 128
 274 293 279 296 284 301 c 128
 289 306 293 312 295 319 c 128
 297 326 298 334 298 343 c 128
 298 352 297 360 295 367 c 128
 293 374 289 381 284 386 c 128
 279 391 274 393 268 393 c 128
EndSplineSet
EndChar

StartChar: uni2B80
Encoding: 683 11136 687
Width: 536
VWidth: 2048
Flags: HW
LayerCount: 2
Fore
SplineSet
-1 796 m 1
 457 299 l 1
 -1 -198 l 1
 -47 -198 l 1
 -47 796 l 1
 -1 796 l 1
EndSplineSet
EndChar

StartChar: uni2B81
Encoding: 684 11137 688
Width: 536
VWidth: 2048
Flags: HW
LayerCount: 2
Fore
SplineSet
8 789 m 0
 12 793 16 796 24 796 c 0
 30 796 36 794 40 788 c 2
 452 316 l 2
 456 312 458 307 458 299 c 0
 458 291 456 286 452 282 c 1
 40 -191 l 2
 36 -197 30 -198 24 -198 c 0
 16 -198 12 -196 8 -192 c 0
 4 -186 0 -180 0 -174 c 0
 0 -166 2 -161 6 -157 c 1
 403 299 l 1
 6 755 l 1
 2 759 0 766 0 774 c 0
 0 780 4 783 8 789 c 0
EndSplineSet
EndChar

StartChar: uni2B82
Encoding: 685 11138 689
Width: 536
VWidth: 2048
Flags: HW
LayerCount: 2
Fore
SplineSet
536 796 m 1
 536 -198 l 1
 78 299 l 1
 536 796 l 1
EndSplineSet
EndChar

StartChar: uni2B83
Encoding: 686 11139 690
Width: 536
VWidth: 2048
Flags: HW
LayerCount: 2
Fore
SplineSet
524 789 m 4
 528 785 532 780 532 774 c 4
 532 766 530 759 526 755 c 5
 129 299 l 5
 526 -157 l 5
 530 -161 532 -166 532 -174 c 4
 532 -182 528 -186 524 -192 c 4
 520 -196 515 -198 507 -198 c 4
 501 -198 497 -197 493 -191 c 6
 80 282 l 6
 76 286 74 291 74 299 c 4
 74 307 76 310 80 316 c 5
 493 788 l 6
 497 794 501 796 507 796 c 4
 515 796 520 793 524 789 c 4
EndSplineSet
EndChar

StartChar: uni21E0
Encoding: 687 8672 691
Width: 536
VWidth: 0
Flags: HW
HStem: 293 61<230 535> 456 20G<206.34 230>
LayerCount: 2
Fore
SplineSet
230 476 m 1
 230 354 l 1
 251 354 l 1
 251 293 l 1
 230 293 l 1
 230 171 l 1
 49 323 l 1
 230 476 l 1
280 354 m 1
 342 354 l 1
 342 293 l 1
 280 293 l 1
 280 354 l 1
494 354 m 1
 535 354 l 1
 535 293 l 1
 494 293 l 1
 494 354 l 1
388 354 m 1
 450 354 l 1
 450 293 l 1
 388 293 l 1
 388 354 l 1
EndSplineSet
EndChar

StartChar: uni21E1
Encoding: 688 8673 692
Width: 536
VWidth: 0
Flags: HW
HStem: 293 61<49 354> 171 20G<354 378>
LayerCount: 2
Fore
SplineSet
91 385 m 1
 213 385 l 1
 213 364 l 1
 274 364 l 1
 274 385 l 1
 396 385 l 1
 244 566 l 1
 91 385 l 1
213 335 m 1
 213 273 l 1
 274 273 l 1
 274 335 l 1
 213 335 l 1
213 121 m 1
 213 80 l 1
 274 80 l 1
 274 121 l 1
 213 121 l 1
213 227 m 1
 213 165 l 1
 274 165 l 1
 274 227 l 1
 213 227 l 1
EndSplineSet
EndChar

StartChar: uni21E2
Encoding: 689 8674 693
Width: 536
VWidth: 0
Flags: HW
HStem: 293 61<181 486> 456 20G<157 181>
LayerCount: 2
Fore
SplineSet
305 476 m 5
 305 354 l 5
 284 354 l 5
 284 293 l 5
 305 293 l 5
 305 171 l 5
 486 323 l 5
 305 476 l 5
255 354 m 5
 193 354 l 5
 193 293 l 5
 255 293 l 5
 255 354 l 5
41 354 m 5
 0 354 l 5
 0 293 l 5
 41 293 l 5
 41 354 l 5
147 354 m 5
 85 354 l 5
 85 293 l 5
 147 293 l 5
 147 354 l 5
EndSplineSet
EndChar

StartChar: uni21E3
Encoding: 690 8675 694
Width: 536
VWidth: 0
Flags: HW
HStem: 293 61<230 535> 456 20G<206.34 230>
LayerCount: 2
Fore
SplineSet
396 261 m 5
 274 261 l 5
 274 282 l 5
 213 282 l 5
 213 261 l 5
 91 261 l 5
 243 80 l 5
 396 261 l 5
274 311 m 5
 274 373 l 5
 213 373 l 5
 213 311 l 5
 274 311 l 5
274 525 m 5
 274 566 l 5
 213 566 l 5
 213 525 l 5
 274 525 l 5
274 419 m 5
 274 481 l 5
 213 481 l 5
 213 419 l 5
 274 419 l 5
EndSplineSet
EndChar
